{
	"patcher" : 	{
		"fileversion" : 1,
		"appversion" : 		{
			"major" : 7,
			"minor" : 3,
			"revision" : 3,
			"architecture" : "x86",
			"modernui" : 1
		}
,
		"rect" : [ 149.0, 95.0, 928.0, 577.0 ],
		"bgcolor" : [ 0.0, 0.0, 0.0, 1.0 ],
		"editing_bgcolor" : [ 0.0, 0.0, 0.0, 1.0 ],
		"bglocked" : 0,
		"openinpresentation" : 1,
		"default_fontsize" : 12.0,
		"default_fontface" : 0,
		"default_fontname" : "Arial",
		"gridonopen" : 1,
		"gridsize" : [ 15.0, 15.0 ],
		"gridsnaponopen" : 1,
		"objectsnaponopen" : 1,
		"statusbarvisible" : 2,
		"toolbarvisible" : 1,
		"lefttoolbarpinned" : 0,
		"toptoolbarpinned" : 0,
		"righttoolbarpinned" : 0,
		"bottomtoolbarpinned" : 0,
		"toolbars_unpinned_last_save" : 0,
		"tallnewobj" : 0,
		"boxanimatetime" : 200,
		"enablehscroll" : 1,
		"enablevscroll" : 1,
		"devicewidth" : 0.0,
		"description" : "",
		"digest" : "",
		"tags" : "",
		"style" : "",
		"subpatcher_template" : "",
		"boxes" : [ 			{
				"box" : 				{
					"fontname" : "Lato",
					"fontsize" : 12.0,
					"id" : "obj-21",
					"maxclass" : "newobj",
					"numinlets" : 3,
					"numoutlets" : 2,
					"outlettype" : [ "signal", "signal" ],
					"patcher" : 					{
						"fileversion" : 1,
						"appversion" : 						{
							"major" : 7,
							"minor" : 3,
							"revision" : 3,
							"architecture" : "x86",
							"modernui" : 1
						}
,
						"rect" : [ 50.0, 94.0, 610.0, 596.0 ],
						"bgcolor" : [ 0.9, 0.9, 0.9, 1.0 ],
						"editing_bgcolor" : [ 0.9, 0.9, 0.9, 1.0 ],
						"bglocked" : 0,
						"openinpresentation" : 0,
						"default_fontsize" : 12.0,
						"default_fontface" : 0,
						"default_fontname" : "Lato",
						"gridonopen" : 1,
						"gridsize" : [ 15.0, 15.0 ],
						"gridsnaponopen" : 1,
						"objectsnaponopen" : 1,
						"statusbarvisible" : 2,
						"toolbarvisible" : 1,
						"lefttoolbarpinned" : 0,
						"toptoolbarpinned" : 0,
						"righttoolbarpinned" : 0,
						"bottomtoolbarpinned" : 0,
						"toolbars_unpinned_last_save" : 0,
						"tallnewobj" : 0,
						"boxanimatetime" : 200,
						"enablehscroll" : 1,
						"enablevscroll" : 1,
						"devicewidth" : 0.0,
						"description" : "",
						"digest" : "",
						"tags" : "",
						"style" : "",
						"subpatcher_template" : "",
						"boxes" : [ 							{
								"box" : 								{
									"fontname" : "Lato",
									"fontsize" : 12.0,
									"id" : "obj-5",
									"maxclass" : "comment",
									"numinlets" : 1,
									"numoutlets" : 0,
									"patching_rect" : [ 77.0, 311.0, 102.0, 20.0 ],
									"style" : "",
									"text" : "waveshape"
								}

							}
, 							{
								"box" : 								{
									"fontname" : "Lato",
									"fontsize" : 12.0,
									"id" : "obj-14",
									"maxclass" : "newobj",
									"numinlets" : 1,
									"numoutlets" : 1,
									"outlettype" : [ "" ],
									"patching_rect" : [ 47.0, 311.0, 26.0, 20.0 ],
									"style" : "",
									"text" : "* 2"
								}

							}
, 							{
								"box" : 								{
									"fontname" : "Lato",
									"fontsize" : 12.0,
									"id" : "obj-13",
									"maxclass" : "newobj",
									"numinlets" : 0,
									"numoutlets" : 1,
									"outlettype" : [ "" ],
									"patching_rect" : [ 227.0, 56.0, 30.0, 20.0 ],
									"style" : "",
									"text" : "in 3"
								}

							}
, 							{
								"box" : 								{
									"fontname" : "Lato",
									"fontsize" : 12.0,
									"id" : "obj-3",
									"maxclass" : "newobj",
									"numinlets" : 1,
									"numoutlets" : 1,
									"outlettype" : [ "" ],
									"patching_rect" : [ 167.0, 476.0, 67.0, 20.0 ],
									"style" : "",
									"text" : "history y 0"
								}

							}
, 							{
								"box" : 								{
									"fontname" : "Lato",
									"fontsize" : 12.0,
									"id" : "obj-4",
									"maxclass" : "newobj",
									"numinlets" : 3,
									"numoutlets" : 1,
									"outlettype" : [ "" ],
									"patching_rect" : [ 167.0, 446.0, 46.0, 20.0 ],
									"style" : "",
									"text" : "mix"
								}

							}
, 							{
								"box" : 								{
									"fontname" : "Lato",
									"fontsize" : 12.0,
									"id" : "obj-2",
									"maxclass" : "newobj",
									"numinlets" : 1,
									"numoutlets" : 0,
									"patching_rect" : [ 197.0, 521.0, 38.0, 20.0 ],
									"style" : "",
									"text" : "out 2"
								}

							}
, 							{
								"box" : 								{
									"fontname" : "Lato",
									"fontsize" : 12.0,
									"id" : "obj-1",
									"maxclass" : "newobj",
									"numinlets" : 1,
									"numoutlets" : 1,
									"outlettype" : [ "" ],
									"patching_rect" : [ 362.0, 146.0, 28.0, 20.0 ],
									"style" : "",
									"text" : "* pi"
								}

							}
, 							{
								"box" : 								{
									"fontname" : "Lato",
									"fontsize" : 12.0,
									"id" : "obj-44",
									"linecount" : 2,
									"maxclass" : "comment",
									"numinlets" : 1,
									"numoutlets" : 0,
									"patching_rect" : [ 362.0, 71.0, 102.0, 33.0 ],
									"style" : "",
									"text" : "rotate feedback signal"
								}

							}
, 							{
								"box" : 								{
									"fontname" : "Lato",
									"fontsize" : 12.0,
									"id" : "obj-39",
									"maxclass" : "comment",
									"numinlets" : 1,
									"numoutlets" : 0,
									"patching_rect" : [ 197.0, 26.0, 56.0, 20.0 ],
									"style" : "",
									"text" : "period"
								}

							}
, 							{
								"box" : 								{
									"fontname" : "Lato",
									"fontsize" : 12.0,
									"id" : "obj-40",
									"maxclass" : "comment",
									"numinlets" : 1,
									"numoutlets" : 0,
									"patching_rect" : [ 32.0, 26.0, 56.0, 20.0 ],
									"style" : "",
									"text" : "impulse"
								}

							}
, 							{
								"box" : 								{
									"fontname" : "Lato",
									"fontsize" : 12.0,
									"id" : "obj-41",
									"maxclass" : "newobj",
									"numinlets" : 0,
									"numoutlets" : 1,
									"outlettype" : [ "" ],
									"patching_rect" : [ 182.0, 56.0, 30.0, 20.0 ],
									"style" : "",
									"text" : "in 2"
								}

							}
, 							{
								"box" : 								{
									"fontname" : "Lato",
									"fontsize" : 12.0,
									"id" : "obj-42",
									"maxclass" : "newobj",
									"numinlets" : 0,
									"numoutlets" : 1,
									"outlettype" : [ "" ],
									"patching_rect" : [ 32.0, 56.0, 30.0, 20.0 ],
									"style" : "",
									"text" : "in 1"
								}

							}
, 							{
								"box" : 								{
									"fontname" : "Lato",
									"fontsize" : 12.0,
									"id" : "obj-37",
									"maxclass" : "newobj",
									"numinlets" : 2,
									"numoutlets" : 2,
									"outlettype" : [ "", "" ],
									"patching_rect" : [ 47.0, 401.0, 139.0, 20.0 ],
									"style" : "",
									"text" : "poltocar"
								}

							}
, 							{
								"box" : 								{
									"fontname" : "Lato",
									"fontsize" : 12.0,
									"id" : "obj-34",
									"linecount" : 3,
									"maxclass" : "comment",
									"numinlets" : 1,
									"numoutlets" : 0,
									"patching_rect" : [ 362.0, 321.0, 103.0, 47.0 ],
									"style" : "",
									"text" : "control the mix of the raw & smoothed"
								}

							}
, 							{
								"box" : 								{
									"fontname" : "Lato",
									"fontsize" : 12.0,
									"id" : "obj-36",
									"maxclass" : "newobj",
									"numinlets" : 0,
									"numoutlets" : 1,
									"outlettype" : [ "" ],
									"patching_rect" : [ 362.0, 381.0, 211.0, 20.0 ],
									"style" : "",
									"text" : "param dampen 0.25 @min 0 @max 1"
								}

							}
, 							{
								"box" : 								{
									"fontname" : "Lato",
									"fontsize" : 12.0,
									"id" : "obj-33",
									"maxclass" : "newobj",
									"numinlets" : 2,
									"numoutlets" : 1,
									"outlettype" : [ "" ],
									"patching_rect" : [ 167.0, 221.0, 32.5, 20.0 ],
									"style" : "",
									"text" : "+"
								}

							}
, 							{
								"box" : 								{
									"fontname" : "Lato",
									"fontsize" : 12.0,
									"id" : "obj-32",
									"maxclass" : "newobj",
									"numinlets" : 0,
									"numoutlets" : 1,
									"outlettype" : [ "" ],
									"patching_rect" : [ 362.0, 116.0, 91.0, 20.0 ],
									"style" : "",
									"text" : "param rotate 0"
								}

							}
, 							{
								"box" : 								{
									"fontname" : "Lato",
									"fontsize" : 12.0,
									"id" : "obj-31",
									"maxclass" : "newobj",
									"numinlets" : 1,
									"numoutlets" : 0,
									"patching_rect" : [ 62.0, 521.0, 38.0, 20.0 ],
									"style" : "",
									"text" : "out 1"
								}

							}
, 							{
								"box" : 								{
									"fontname" : "Lato",
									"fontsize" : 12.0,
									"id" : "obj-27",
									"maxclass" : "newobj",
									"numinlets" : 1,
									"numoutlets" : 1,
									"outlettype" : [ "" ],
									"patching_rect" : [ 47.0, 341.0, 26.0, 20.0 ],
									"style" : "",
									"text" : "sin"
								}

							}
, 							{
								"box" : 								{
									"fontname" : "Lato",
									"fontsize" : 12.0,
									"id" : "obj-28",
									"linecount" : 2,
									"maxclass" : "comment",
									"numinlets" : 1,
									"numoutlets" : 0,
									"patching_rect" : [ 362.0, 191.0, 103.0, 47.0 ],
									"style" : "",
									"text" : "control amplitude of feedback signal"
								}

							}
, 							{
								"box" : 								{
									"fontname" : "Lato",
									"fontsize" : 12.0,
									"id" : "obj-29",
									"maxclass" : "newobj",
									"numinlets" : 0,
									"numoutlets" : 1,
									"outlettype" : [ "" ],
									"patching_rect" : [ 362.0, 236.0, 200.0, 20.0 ],
									"style" : "",
									"text" : "param decay 0.97 @min 0 @max 1"
								}

							}
, 							{
								"box" : 								{
									"fontname" : "Lato",
									"fontsize" : 12.0,
									"id" : "obj-30",
									"maxclass" : "newobj",
									"numinlets" : 1,
									"numoutlets" : 1,
									"outlettype" : [ "" ],
									"patching_rect" : [ 47.0, 251.0, 52.0, 20.0 ],
									"style" : "",
									"text" : "* decay"
								}

							}
, 							{
								"box" : 								{
									"fontname" : "Lato",
									"fontsize" : 12.0,
									"id" : "obj-25",
									"maxclass" : "newobj",
									"numinlets" : 2,
									"numoutlets" : 2,
									"outlettype" : [ "", "" ],
									"patching_rect" : [ 47.0, 161.0, 139.0, 20.0 ],
									"style" : "",
									"text" : "cartopol"
								}

							}
, 							{
								"box" : 								{
									"fontname" : "Lato",
									"fontsize" : 12.0,
									"id" : "obj-24",
									"maxclass" : "newobj",
									"numinlets" : 2,
									"numoutlets" : 1,
									"outlettype" : [ "" ],
									"patching_rect" : [ 167.0, 131.0, 78.0, 20.0 ],
									"style" : "",
									"text" : "delay 44100"
								}

							}
, 							{
								"box" : 								{
									"fontname" : "Lato",
									"fontsize" : 12.0,
									"id" : "obj-8",
									"maxclass" : "newobj",
									"numinlets" : 1,
									"numoutlets" : 1,
									"outlettype" : [ "" ],
									"patching_rect" : [ 47.0, 476.0, 67.0, 20.0 ],
									"style" : "",
									"text" : "history x 0"
								}

							}
, 							{
								"box" : 								{
									"fontname" : "Lato",
									"fontsize" : 12.0,
									"id" : "obj-15",
									"maxclass" : "newobj",
									"numinlets" : 3,
									"numoutlets" : 1,
									"outlettype" : [ "" ],
									"patching_rect" : [ 47.0, 446.0, 46.0, 20.0 ],
									"style" : "",
									"text" : "mix"
								}

							}
, 							{
								"box" : 								{
									"fontname" : "Lato",
									"fontsize" : 12.0,
									"id" : "obj-21",
									"maxclass" : "newobj",
									"numinlets" : 2,
									"numoutlets" : 1,
									"outlettype" : [ "" ],
									"patching_rect" : [ 47.0, 131.0, 78.0, 20.0 ],
									"style" : "",
									"text" : "delay 44100"
								}

							}
 ],
						"lines" : [ 							{
								"patchline" : 								{
									"destination" : [ "obj-33", 1 ],
									"disabled" : 0,
									"hidden" : 0,
									"source" : [ "obj-1", 0 ]
								}

							}
, 							{
								"patchline" : 								{
									"destination" : [ "obj-24", 1 ],
									"disabled" : 0,
									"hidden" : 0,
									"source" : [ "obj-13", 0 ]
								}

							}
, 							{
								"patchline" : 								{
									"destination" : [ "obj-27", 0 ],
									"disabled" : 0,
									"hidden" : 0,
									"source" : [ "obj-14", 0 ]
								}

							}
, 							{
								"patchline" : 								{
									"destination" : [ "obj-31", 0 ],
									"disabled" : 0,
									"hidden" : 0,
									"order" : 0,
									"source" : [ "obj-15", 0 ]
								}

							}
, 							{
								"patchline" : 								{
									"destination" : [ "obj-8", 0 ],
									"disabled" : 0,
									"hidden" : 0,
									"midpoints" : [ 56.5, 478.0, 56.5, 478.0 ],
									"order" : 1,
									"source" : [ "obj-15", 0 ]
								}

							}
, 							{
								"patchline" : 								{
									"destination" : [ "obj-25", 0 ],
									"disabled" : 0,
									"hidden" : 0,
									"source" : [ "obj-21", 0 ]
								}

							}
, 							{
								"patchline" : 								{
									"destination" : [ "obj-25", 1 ],
									"disabled" : 0,
									"hidden" : 0,
									"source" : [ "obj-24", 0 ]
								}

							}
, 							{
								"patchline" : 								{
									"destination" : [ "obj-30", 0 ],
									"disabled" : 0,
									"hidden" : 0,
									"source" : [ "obj-25", 0 ]
								}

							}
, 							{
								"patchline" : 								{
									"destination" : [ "obj-33", 0 ],
									"disabled" : 0,
									"hidden" : 0,
									"source" : [ "obj-25", 1 ]
								}

							}
, 							{
								"patchline" : 								{
									"destination" : [ "obj-37", 0 ],
									"disabled" : 0,
									"hidden" : 0,
									"source" : [ "obj-27", 0 ]
								}

							}
, 							{
								"patchline" : 								{
									"destination" : [ "obj-24", 0 ],
									"disabled" : 0,
									"hidden" : 0,
									"midpoints" : [ 176.5, 503.0, 156.5, 503.0, 156.5, 121.0, 176.5, 121.0 ],
									"order" : 1,
									"source" : [ "obj-3", 0 ]
								}

							}
, 							{
								"patchline" : 								{
									"destination" : [ "obj-4", 1 ],
									"disabled" : 0,
									"hidden" : 0,
									"midpoints" : [ 176.5, 505.0, 245.25, 505.0, 245.25, 436.0, 190.0, 436.0 ],
									"order" : 0,
									"source" : [ "obj-3", 0 ]
								}

							}
, 							{
								"patchline" : 								{
									"destination" : [ "obj-14", 0 ],
									"disabled" : 0,
									"hidden" : 0,
									"source" : [ "obj-30", 0 ]
								}

							}
, 							{
								"patchline" : 								{
									"destination" : [ "obj-1", 0 ],
									"disabled" : 0,
									"hidden" : 0,
									"source" : [ "obj-32", 0 ]
								}

							}
, 							{
								"patchline" : 								{
									"destination" : [ "obj-37", 1 ],
									"disabled" : 0,
									"hidden" : 0,
									"source" : [ "obj-33", 0 ]
								}

							}
, 							{
								"patchline" : 								{
									"destination" : [ "obj-15", 2 ],
									"disabled" : 0,
									"hidden" : 0,
									"order" : 1,
									"source" : [ "obj-36", 0 ]
								}

							}
, 							{
								"patchline" : 								{
									"destination" : [ "obj-4", 2 ],
									"disabled" : 0,
									"hidden" : 0,
									"order" : 0,
									"source" : [ "obj-36", 0 ]
								}

							}
, 							{
								"patchline" : 								{
									"destination" : [ "obj-15", 0 ],
									"disabled" : 0,
									"hidden" : 0,
									"source" : [ "obj-37", 0 ]
								}

							}
, 							{
								"patchline" : 								{
									"destination" : [ "obj-4", 0 ],
									"disabled" : 0,
									"hidden" : 0,
									"source" : [ "obj-37", 1 ]
								}

							}
, 							{
								"patchline" : 								{
									"destination" : [ "obj-2", 0 ],
									"disabled" : 0,
									"hidden" : 0,
									"order" : 0,
									"source" : [ "obj-4", 0 ]
								}

							}
, 							{
								"patchline" : 								{
									"destination" : [ "obj-3", 0 ],
									"disabled" : 0,
									"hidden" : 0,
									"midpoints" : [ 176.5, 478.0, 176.5, 478.0 ],
									"order" : 1,
									"source" : [ "obj-4", 0 ]
								}

							}
, 							{
								"patchline" : 								{
									"destination" : [ "obj-21", 1 ],
									"disabled" : 0,
									"hidden" : 0,
									"source" : [ "obj-41", 0 ]
								}

							}
, 							{
								"patchline" : 								{
									"destination" : [ "obj-21", 0 ],
									"disabled" : 0,
									"hidden" : 0,
									"order" : 1,
									"source" : [ "obj-42", 0 ]
								}

							}
, 							{
								"patchline" : 								{
									"destination" : [ "obj-24", 0 ],
									"disabled" : 0,
									"hidden" : 0,
									"order" : 0,
									"source" : [ "obj-42", 0 ]
								}

							}
, 							{
								"patchline" : 								{
									"destination" : [ "obj-15", 1 ],
									"disabled" : 0,
									"hidden" : 0,
									"midpoints" : [ 56.5, 505.0, 125.25, 505.0, 125.25, 436.0, 70.0, 436.0 ],
									"order" : 0,
									"source" : [ "obj-8", 0 ]
								}

							}
, 							{
								"patchline" : 								{
									"destination" : [ "obj-21", 0 ],
									"disabled" : 0,
									"hidden" : 0,
									"midpoints" : [ 56.5, 505.0, 36.5, 505.0, 36.5, 121.0, 56.5, 121.0 ],
									"order" : 1,
									"source" : [ "obj-8", 0 ]
								}

							}
 ]
					}
,
					"patching_rect" : [ 538.0, 296.0, 259.0, 23.0 ],
					"style" : "",
					"text" : "gen~"
				}

			}
, 			{
				"box" : 				{
					"id" : "obj-13",
					"maxclass" : "ezdac~",
					"numinlets" : 2,
					"numoutlets" : 0,
					"patching_rect" : [ 448.0, 396.0, 45.0, 45.0 ],
					"style" : ""
				}

			}
, 			{
				"box" : 				{
					"comment" : "pitch B",
					"id" : "obj-20",
					"index" : 0,
					"maxclass" : "inlet",
					"numinlets" : 0,
					"numoutlets" : 1,
					"outlettype" : [ "" ],
					"patching_rect" : [ 521.0, 23.0, 30.0, 30.0 ],
					"style" : ""
				}

			}
, 			{
				"box" : 				{
					"fontname" : "Lato",
					"fontsize" : 12.0,
					"id" : "obj-19",
					"maxclass" : "newobj",
					"numinlets" : 1,
					"numoutlets" : 1,
					"outlettype" : [ "signal" ],
					"patcher" : 					{
						"fileversion" : 1,
						"appversion" : 						{
							"major" : 7,
							"minor" : 3,
							"revision" : 3,
							"architecture" : "x86",
							"modernui" : 1
						}
,
						"rect" : [ 25.0, 69.0, 237.0, 360.0 ],
						"bglocked" : 0,
						"openinpresentation" : 0,
						"default_fontsize" : 12.0,
						"default_fontface" : 0,
						"default_fontname" : "Lato",
						"gridonopen" : 1,
						"gridsize" : [ 15.0, 15.0 ],
						"gridsnaponopen" : 1,
						"objectsnaponopen" : 1,
						"statusbarvisible" : 2,
						"toolbarvisible" : 1,
						"lefttoolbarpinned" : 0,
						"toptoolbarpinned" : 0,
						"righttoolbarpinned" : 0,
						"bottomtoolbarpinned" : 0,
						"toolbars_unpinned_last_save" : 0,
						"tallnewobj" : 0,
						"boxanimatetime" : 200,
						"enablehscroll" : 1,
						"enablevscroll" : 1,
						"devicewidth" : 0.0,
						"description" : "",
						"digest" : "",
						"tags" : "",
						"style" : "",
						"subpatcher_template" : "",
						"boxes" : [ 							{
								"box" : 								{
									"fontname" : "Lato",
									"fontsize" : 12.0,
									"id" : "obj-33",
									"maxclass" : "message",
									"numinlets" : 2,
									"numoutlets" : 1,
									"outlettype" : [ "" ],
									"patching_rect" : [ 45.0, 180.0, 41.0, 18.0 ],
									"style" : "",
									"text" : "$1 50"
								}

							}
, 							{
								"box" : 								{
									"fontname" : "Lato",
									"fontsize" : 12.0,
									"format" : 6,
									"id" : "obj-32",
									"maxclass" : "flonum",
									"numinlets" : 1,
									"numoutlets" : 2,
									"outlettype" : [ "", "bang" ],
									"parameter_enable" : 0,
									"patching_rect" : [ 45.0, 150.0, 93.0, 20.0 ],
									"style" : ""
								}

							}
, 							{
								"box" : 								{
									"fontname" : "Lato",
									"fontsize" : 12.0,
									"id" : "obj-26",
									"maxclass" : "newobj",
									"numinlets" : 2,
									"numoutlets" : 1,
									"outlettype" : [ "float" ],
									"patching_rect" : [ 45.0, 120.0, 59.0, 20.0 ],
									"style" : "",
									"text" : "!/ 44100."
								}

							}
, 							{
								"box" : 								{
									"fontname" : "Lato",
									"fontsize" : 12.0,
									"id" : "obj-25",
									"maxclass" : "newobj",
									"numinlets" : 1,
									"numoutlets" : 4,
									"outlettype" : [ "int", "float", "int", "int" ],
									"patching_rect" : [ 90.0, 90.0, 64.0, 20.0 ],
									"style" : "",
									"text" : "dspstate~"
								}

							}
, 							{
								"box" : 								{
									"fontname" : "Lato",
									"fontsize" : 12.0,
									"id" : "obj-13",
									"maxclass" : "newobj",
									"numinlets" : 1,
									"numoutlets" : 1,
									"outlettype" : [ "" ],
									"patching_rect" : [ 45.0, 90.0, 35.0, 20.0 ],
									"style" : "",
									"text" : "mtof"
								}

							}
, 							{
								"box" : 								{
									"fontname" : "Lato",
									"fontsize" : 12.0,
									"id" : "obj-27",
									"maxclass" : "newobj",
									"numinlets" : 2,
									"numoutlets" : 2,
									"outlettype" : [ "signal", "bang" ],
									"patching_rect" : [ 45.0, 210.0, 37.0, 20.0 ],
									"style" : "",
									"text" : "line~"
								}

							}
, 							{
								"box" : 								{
									"comment" : "",
									"id" : "obj-38",
									"index" : 1,
									"maxclass" : "inlet",
									"numinlets" : 0,
									"numoutlets" : 1,
									"outlettype" : [ "" ],
									"patching_rect" : [ 45.0, 30.0, 25.0, 25.0 ],
									"style" : ""
								}

							}
, 							{
								"box" : 								{
									"comment" : "",
									"id" : "obj-39",
									"index" : 1,
									"maxclass" : "outlet",
									"numinlets" : 1,
									"numoutlets" : 0,
									"patching_rect" : [ 45.0, 290.0, 25.0, 25.0 ],
									"style" : ""
								}

							}
 ],
						"lines" : [ 							{
								"patchline" : 								{
									"destination" : [ "obj-26", 0 ],
									"disabled" : 0,
									"hidden" : 0,
									"source" : [ "obj-13", 0 ]
								}

							}
, 							{
								"patchline" : 								{
									"destination" : [ "obj-26", 1 ],
									"disabled" : 0,
									"hidden" : 0,
									"source" : [ "obj-25", 1 ]
								}

							}
, 							{
								"patchline" : 								{
									"destination" : [ "obj-32", 0 ],
									"disabled" : 0,
									"hidden" : 0,
									"source" : [ "obj-26", 0 ]
								}

							}
, 							{
								"patchline" : 								{
									"destination" : [ "obj-39", 0 ],
									"disabled" : 0,
									"hidden" : 0,
									"source" : [ "obj-27", 0 ]
								}

							}
, 							{
								"patchline" : 								{
									"destination" : [ "obj-33", 0 ],
									"disabled" : 0,
									"hidden" : 0,
									"source" : [ "obj-32", 0 ]
								}

							}
, 							{
								"patchline" : 								{
									"destination" : [ "obj-27", 0 ],
									"disabled" : 0,
									"hidden" : 0,
									"source" : [ "obj-33", 0 ]
								}

							}
, 							{
								"patchline" : 								{
									"destination" : [ "obj-13", 0 ],
									"disabled" : 0,
									"hidden" : 0,
									"source" : [ "obj-38", 0 ]
								}

							}
 ]
					}
,
					"patching_rect" : [ 681.5, 237.0, 85.0, 23.0 ],
					"saved_object_attributes" : 					{
						"description" : "",
						"digest" : "",
						"fontname" : "Lato",
						"globalpatchername" : "",
						"style" : "",
						"tags" : ""
					}
,
					"style" : "",
					"text" : "p midi2period"
				}

			}
, 			{
				"box" : 				{
					"fontname" : "Lato",
					"fontsize" : 12.0,
					"id" : "obj-40",
					"maxclass" : "newobj",
					"numinlets" : 1,
					"numoutlets" : 1,
					"outlettype" : [ "signal" ],
					"patcher" : 					{
						"fileversion" : 1,
						"appversion" : 						{
							"major" : 7,
							"minor" : 3,
							"revision" : 3,
							"architecture" : "x86",
							"modernui" : 1
						}
,
						"rect" : [ 34.0, 79.0, 237.0, 360.0 ],
						"bglocked" : 0,
						"openinpresentation" : 0,
						"default_fontsize" : 12.0,
						"default_fontface" : 0,
						"default_fontname" : "Lato",
						"gridonopen" : 1,
						"gridsize" : [ 15.0, 15.0 ],
						"gridsnaponopen" : 1,
						"objectsnaponopen" : 1,
						"statusbarvisible" : 2,
						"toolbarvisible" : 1,
						"lefttoolbarpinned" : 0,
						"toptoolbarpinned" : 0,
						"righttoolbarpinned" : 0,
						"bottomtoolbarpinned" : 0,
						"toolbars_unpinned_last_save" : 0,
						"tallnewobj" : 0,
						"boxanimatetime" : 200,
						"enablehscroll" : 1,
						"enablevscroll" : 1,
						"devicewidth" : 0.0,
						"description" : "",
						"digest" : "",
						"tags" : "",
						"style" : "",
						"subpatcher_template" : "",
						"boxes" : [ 							{
								"box" : 								{
									"fontname" : "Lato",
									"fontsize" : 12.0,
									"id" : "obj-33",
									"maxclass" : "message",
									"numinlets" : 2,
									"numoutlets" : 1,
									"outlettype" : [ "" ],
									"patching_rect" : [ 45.0, 180.0, 41.0, 23.0 ],
									"style" : "",
									"text" : "$1 50"
								}

							}
, 							{
								"box" : 								{
									"fontname" : "Lato",
									"fontsize" : 12.0,
									"format" : 6,
									"id" : "obj-32",
									"maxclass" : "flonum",
									"numinlets" : 1,
									"numoutlets" : 2,
									"outlettype" : [ "", "bang" ],
									"parameter_enable" : 0,
									"patching_rect" : [ 45.0, 150.0, 93.0, 23.0 ],
									"style" : ""
								}

							}
, 							{
								"box" : 								{
									"fontname" : "Lato",
									"fontsize" : 12.0,
									"id" : "obj-26",
									"maxclass" : "newobj",
									"numinlets" : 2,
									"numoutlets" : 1,
									"outlettype" : [ "float" ],
									"patching_rect" : [ 45.0, 120.0, 59.0, 23.0 ],
									"style" : "",
									"text" : "!/ 44100."
								}

							}
, 							{
								"box" : 								{
									"fontname" : "Lato",
									"fontsize" : 12.0,
									"id" : "obj-25",
									"maxclass" : "newobj",
									"numinlets" : 1,
									"numoutlets" : 4,
									"outlettype" : [ "int", "float", "int", "int" ],
									"patching_rect" : [ 90.0, 90.0, 64.0, 23.0 ],
									"style" : "",
									"text" : "dspstate~"
								}

							}
, 							{
								"box" : 								{
									"fontname" : "Lato",
									"fontsize" : 12.0,
									"id" : "obj-13",
									"maxclass" : "newobj",
									"numinlets" : 1,
									"numoutlets" : 1,
									"outlettype" : [ "" ],
									"patching_rect" : [ 45.0, 90.0, 35.0, 23.0 ],
									"style" : "",
									"text" : "mtof"
								}

							}
, 							{
								"box" : 								{
									"fontname" : "Lato",
									"fontsize" : 12.0,
									"id" : "obj-27",
									"maxclass" : "newobj",
									"numinlets" : 2,
									"numoutlets" : 2,
									"outlettype" : [ "signal", "bang" ],
									"patching_rect" : [ 45.0, 210.0, 37.0, 23.0 ],
									"style" : "",
									"text" : "line~"
								}

							}
, 							{
								"box" : 								{
									"comment" : "",
									"id" : "obj-38",
									"index" : 1,
									"maxclass" : "inlet",
									"numinlets" : 0,
									"numoutlets" : 1,
									"outlettype" : [ "" ],
									"patching_rect" : [ 45.0, 30.0, 25.0, 25.0 ],
									"style" : ""
								}

							}
, 							{
								"box" : 								{
									"comment" : "",
									"id" : "obj-39",
									"index" : 1,
									"maxclass" : "outlet",
									"numinlets" : 1,
									"numoutlets" : 0,
									"patching_rect" : [ 45.0, 290.0, 25.0, 25.0 ],
									"style" : ""
								}

							}
 ],
						"lines" : [ 							{
								"patchline" : 								{
									"destination" : [ "obj-26", 0 ],
									"disabled" : 0,
									"hidden" : 0,
									"source" : [ "obj-13", 0 ]
								}

							}
, 							{
								"patchline" : 								{
									"destination" : [ "obj-26", 1 ],
									"disabled" : 0,
									"hidden" : 0,
									"source" : [ "obj-25", 1 ]
								}

							}
, 							{
								"patchline" : 								{
									"destination" : [ "obj-32", 0 ],
									"disabled" : 0,
									"hidden" : 0,
									"source" : [ "obj-26", 0 ]
								}

							}
, 							{
								"patchline" : 								{
									"destination" : [ "obj-39", 0 ],
									"disabled" : 0,
									"hidden" : 0,
									"source" : [ "obj-27", 0 ]
								}

							}
, 							{
								"patchline" : 								{
									"destination" : [ "obj-33", 0 ],
									"disabled" : 0,
									"hidden" : 0,
									"source" : [ "obj-32", 0 ]
								}

							}
, 							{
								"patchline" : 								{
									"destination" : [ "obj-27", 0 ],
									"disabled" : 0,
									"hidden" : 0,
									"source" : [ "obj-33", 0 ]
								}

							}
, 							{
								"patchline" : 								{
									"destination" : [ "obj-13", 0 ],
									"disabled" : 0,
									"hidden" : 0,
									"source" : [ "obj-38", 0 ]
								}

							}
 ]
					}
,
					"patching_rect" : [ 538.0, 237.0, 85.0, 23.0 ],
					"saved_object_attributes" : 					{
						"description" : "",
						"digest" : "",
						"fontname" : "Lato",
						"globalpatchername" : "",
						"style" : "",
						"tags" : ""
					}
,
					"style" : "",
					"text" : "p midi2period"
				}

			}
, 			{
				"box" : 				{
					"fontname" : "Akkurat-Mono",
					"fontsize" : 9.0,
					"id" : "obj-18",
					"maxclass" : "comment",
					"numinlets" : 1,
					"numoutlets" : 0,
					"patching_rect" : [ 191.0, 91.0, 53.0, 15.0 ],
					"presentation" : 1,
					"presentation_rect" : [ 13.8125, 56.523499, 53.0, 15.0 ],
					"style" : "",
					"text" : "pitch b",
					"textcolor" : [ 0.848527, 0.909661, 0.909804, 1.0 ]
				}

			}
, 			{
				"box" : 				{
					"bgcolor" : [ 0.290196, 0.309804, 0.301961, 0.0 ],
					"fontname" : "Akkurat-Mono",
					"fontsize" : 10.0,
					"format" : 6,
					"id" : "obj-17",
					"maxclass" : "flonum",
					"numinlets" : 1,
					"numoutlets" : 2,
					"outlettype" : [ "", "bang" ],
					"parameter_enable" : 0,
					"patching_rect" : [ 538.0, 154.5, 96.0, 18.0 ],
					"presentation" : 1,
					"presentation_rect" : [ 59.8125, 56.523499, 53.0, 18.0 ],
					"style" : "",
					"textcolor" : [ 0.848527, 0.909661, 0.909804, 1.0 ],
					"tricolor" : [ 0.490196, 0.498039, 0.517647, 0.24 ]
				}

			}
, 			{
				"box" : 				{
					"comment" : "IN (FX)",
					"id" : "obj-15",
					"index" : 0,
					"maxclass" : "inlet",
					"numinlets" : 0,
					"numoutlets" : 1,
					"outlettype" : [ "" ],
					"patching_rect" : [ 12.0, 47.0, 30.0, 30.0 ],
					"style" : ""
				}

			}
, 			{
				"box" : 				{
					"comment" : "MIDI - PERMUT8",
					"id" : "obj-12",
					"index" : 0,
					"maxclass" : "inlet",
					"numinlets" : 0,
					"numoutlets" : 1,
					"outlettype" : [ "" ],
					"patching_rect" : [ 709.0, 27.0, 30.0, 30.0 ],
					"style" : ""
				}

			}
, 			{
				"box" : 				{
					"comment" : "etch L",
					"id" : "obj-10",
					"index" : 0,
					"maxclass" : "outlet",
					"numinlets" : 1,
					"numoutlets" : 0,
					"patching_rect" : [ 332.0, 539.0, 30.0, 30.0 ],
					"style" : ""
				}

			}
, 			{
				"box" : 				{
					"comment" : "etch R",
					"id" : "obj-11",
					"index" : 0,
					"maxclass" : "outlet",
					"numinlets" : 1,
					"numoutlets" : 0,
					"patching_rect" : [ 368.5, 539.0, 30.0, 30.0 ],
					"style" : ""
				}

			}
, 			{
				"box" : 				{
					"id" : "obj-5",
					"maxclass" : "live.line",
					"numinlets" : 1,
					"numoutlets" : 0,
					"patching_rect" : [ 179.0, 178.0, 5.0, 100.0 ],
					"presentation" : 1,
					"presentation_rect" : [ 100.0, 38.523499, 5.0, 92.5 ]
				}

			}
, 			{
				"box" : 				{
					"coldcolor" : [ 0.32549, 0.345098, 0.372549, 0.53 ],
					"fontname" : "Akkurat Pro Regular",
					"id" : "obj-1",
					"maxclass" : "live.gain~",
					"numinlets" : 2,
					"numoutlets" : 5,
					"orientation" : 1,
					"outlettype" : [ "signal", "signal", "", "float", "list" ],
					"parameter_enable" : 1,
					"patching_rect" : [ 264.5, 306.0, 111.0, 28.0 ],
					"presentation" : 1,
					"presentation_rect" : [ 116.395996, 51.523499, 127.0, 28.0 ],
					"saved_attribute_attributes" : 					{
						"valueof" : 						{
							"parameter_longname" : "live.gain~[4]",
							"parameter_shortname" : "live.gain~",
							"parameter_type" : 0,
							"parameter_mmin" : -70.0,
							"parameter_mmax" : 6.0,
							"parameter_initial_enable" : 1,
							"parameter_initial" : [ -70 ],
							"parameter_unitstyle" : 4
						}

					}
,
					"showname" : 0,
					"shownumber" : 0,
					"tribordercolor" : [ 0.223529, 0.254902, 0.294118, 0.54 ],
					"tricolor" : [ 0.223529, 0.254902, 0.294118, 0.7 ],
					"trioncolor" : [ 0.221674, 0.25681, 0.29304, 1.0 ],
					"varname" : "live.gain~[1]",
					"warmcolor" : [ 0.203621, 0.22809, 0.23041, 1.0 ]
				}

			}
, 			{
				"box" : 				{
					"comment" : "rotate",
					"id" : "obj-9",
					"index" : 0,
					"maxclass" : "inlet",
					"numinlets" : 0,
					"numoutlets" : 1,
					"outlettype" : [ "" ],
					"patching_rect" : [ 658.0, 27.0, 30.0, 30.0 ],
					"style" : ""
				}

			}
, 			{
				"box" : 				{
					"comment" : "perm R",
					"id" : "obj-8",
					"index" : 0,
					"maxclass" : "outlet",
					"numinlets" : 1,
					"numoutlets" : 0,
					"patching_rect" : [ 279.0, 545.0, 30.0, 30.0 ],
					"style" : ""
				}

			}
, 			{
				"box" : 				{
					"comment" : "decay 0-1",
					"id" : "obj-7",
					"index" : 0,
					"maxclass" : "inlet",
					"numinlets" : 0,
					"numoutlets" : 1,
					"outlettype" : [ "" ],
					"patching_rect" : [ 613.0, 27.0, 30.0, 30.0 ],
					"style" : ""
				}

			}
, 			{
				"box" : 				{
					"comment" : "damp 0-1",
					"id" : "obj-6",
					"index" : 0,
					"maxclass" : "inlet",
					"numinlets" : 0,
					"numoutlets" : 1,
					"outlettype" : [ "" ],
					"patching_rect" : [ 571.0, 27.0, 30.0, 30.0 ],
					"style" : ""
				}

			}
, 			{
				"box" : 				{
					"comment" : "pitch",
					"id" : "obj-4",
					"index" : 0,
					"maxclass" : "inlet",
					"numinlets" : 0,
					"numoutlets" : 1,
					"outlettype" : [ "" ],
					"patching_rect" : [ 473.0, 23.0, 30.0, 30.0 ],
					"style" : ""
				}

			}
, 			{
				"box" : 				{
					"comment" : "BANG",
					"id" : "obj-3",
					"index" : 0,
					"maxclass" : "inlet",
					"numinlets" : 0,
					"numoutlets" : 1,
					"outlettype" : [ "" ],
					"patching_rect" : [ 73.0, 76.0, 30.0, 30.0 ],
					"style" : ""
				}

			}
, 			{
				"box" : 				{
					"comment" : "perm L",
					"id" : "obj-2",
					"index" : 0,
					"maxclass" : "outlet",
					"numinlets" : 1,
					"numoutlets" : 0,
					"patching_rect" : [ 233.0, 545.0, 30.0, 30.0 ],
					"style" : ""
				}

			}
, 			{
				"box" : 				{
					"fontname" : "Lato",
					"fontsize" : 12.0,
					"id" : "obj-356",
					"maxclass" : "newobj",
					"numinlets" : 1,
					"numoutlets" : 1,
					"outlettype" : [ "signal" ],
					"patcher" : 					{
						"fileversion" : 1,
						"appversion" : 						{
							"major" : 7,
							"minor" : 3,
							"revision" : 3,
							"architecture" : "x86",
							"modernui" : 1
						}
,
						"rect" : [ 38.0, 79.0, 189.0, 349.0 ],
						"bglocked" : 0,
						"openinpresentation" : 0,
						"default_fontsize" : 12.0,
						"default_fontface" : 0,
						"default_fontname" : "Lato",
						"gridonopen" : 1,
						"gridsize" : [ 15.0, 15.0 ],
						"gridsnaponopen" : 1,
						"objectsnaponopen" : 1,
						"statusbarvisible" : 2,
						"toolbarvisible" : 1,
						"lefttoolbarpinned" : 0,
						"toptoolbarpinned" : 0,
						"righttoolbarpinned" : 0,
						"bottomtoolbarpinned" : 0,
						"toolbars_unpinned_last_save" : 0,
						"tallnewobj" : 0,
						"boxanimatetime" : 200,
						"enablehscroll" : 1,
						"enablevscroll" : 1,
						"devicewidth" : 0.0,
						"description" : "",
						"digest" : "",
						"tags" : "",
						"style" : "",
						"subpatcher_template" : "",
						"boxes" : [ 							{
								"box" : 								{
									"fontname" : "Lato",
									"fontsize" : 12.0,
									"id" : "obj-17",
									"maxclass" : "message",
									"numinlets" : 2,
									"numoutlets" : 1,
									"outlettype" : [ "" ],
									"patching_rect" : [ 45.0, 90.0, 48.0, 23.0 ],
									"style" : "",
									"text" : "1, 0 10"
								}

							}
, 							{
								"box" : 								{
									"fontname" : "Lato",
									"fontsize" : 12.0,
									"id" : "obj-15",
									"maxclass" : "newobj",
									"numinlets" : 1,
									"numoutlets" : 1,
									"outlettype" : [ "signal" ],
									"patching_rect" : [ 90.0, 165.0, 47.0, 23.0 ],
									"style" : "",
									"text" : "noise~"
								}

							}
, 							{
								"box" : 								{
									"fontname" : "Lato",
									"fontsize" : 12.0,
									"id" : "obj-14",
									"maxclass" : "newobj",
									"numinlets" : 2,
									"numoutlets" : 2,
									"outlettype" : [ "signal", "bang" ],
									"patching_rect" : [ 45.0, 165.0, 37.0, 23.0 ],
									"style" : "",
									"text" : "line~"
								}

							}
, 							{
								"box" : 								{
									"fontname" : "Lato",
									"fontsize" : 12.0,
									"id" : "obj-12",
									"maxclass" : "newobj",
									"numinlets" : 2,
									"numoutlets" : 1,
									"outlettype" : [ "signal" ],
									"patching_rect" : [ 45.0, 195.0, 36.0, 23.0 ],
									"style" : "",
									"text" : "*~ 0."
								}

							}
, 							{
								"box" : 								{
									"comment" : "",
									"id" : "obj-41",
									"index" : 1,
									"maxclass" : "inlet",
									"numinlets" : 0,
									"numoutlets" : 1,
									"outlettype" : [ "bang" ],
									"patching_rect" : [ 45.0, 30.0, 25.0, 25.0 ],
									"style" : ""
								}

							}
, 							{
								"box" : 								{
									"comment" : "",
									"id" : "obj-42",
									"index" : 1,
									"maxclass" : "outlet",
									"numinlets" : 1,
									"numoutlets" : 0,
									"patching_rect" : [ 45.0, 275.0, 25.0, 25.0 ],
									"style" : ""
								}

							}
 ],
						"lines" : [ 							{
								"patchline" : 								{
									"destination" : [ "obj-42", 0 ],
									"disabled" : 0,
									"hidden" : 0,
									"source" : [ "obj-12", 0 ]
								}

							}
, 							{
								"patchline" : 								{
									"destination" : [ "obj-12", 0 ],
									"disabled" : 0,
									"hidden" : 0,
									"source" : [ "obj-14", 0 ]
								}

							}
, 							{
								"patchline" : 								{
									"destination" : [ "obj-12", 1 ],
									"disabled" : 0,
									"hidden" : 0,
									"source" : [ "obj-15", 0 ]
								}

							}
, 							{
								"patchline" : 								{
									"destination" : [ "obj-14", 0 ],
									"disabled" : 0,
									"hidden" : 0,
									"source" : [ "obj-17", 0 ]
								}

							}
, 							{
								"patchline" : 								{
									"destination" : [ "obj-17", 0 ],
									"disabled" : 0,
									"hidden" : 0,
									"source" : [ "obj-41", 0 ]
								}

							}
 ]
					}
,
					"patching_rect" : [ 73.0, 193.0, 63.0, 23.0 ],
					"saved_object_attributes" : 					{
						"description" : "",
						"digest" : "",
						"fontname" : "Lato",
						"globalpatchername" : "",
						"style" : "",
						"tags" : ""
					}
,
					"style" : "",
					"text" : "p impulse"
				}

			}
, 			{
				"box" : 				{
					"bgcolor" : [ 0.290196, 0.309804, 0.301961, 0.01 ],
					"blinkcolor" : [ 0.819646, 0.859641, 0.834657, 1.0 ],
					"id" : "obj-355",
					"maxclass" : "button",
					"numinlets" : 1,
					"numoutlets" : 1,
					"outlettype" : [ "bang" ],
					"outlinecolor" : [ 0.847059, 0.909804, 0.909804, 0.0 ],
					"patching_rect" : [ 73.0, 130.0, 26.0, 26.0 ],
					"presentation" : 1,
					"presentation_rect" : [ 64.083252, 10.148499, 15.5, 15.5 ],
					"style" : ""
				}

			}
, 			{
				"box" : 				{
					"autosave" : 1,
					"bgcolor" : [ 0.152941, 0.290196, 0.32549, 0.27 ],
					"bgmode" : 0,
					"border" : 0,
					"clickthrough" : 0,
					"color" : [ 0.490196, 0.498039, 0.517647, 0.0 ],
					"fontname" : "Akkurat-Mono",
					"fontsize" : 9.0,
					"id" : "obj-263",
					"maxclass" : "newobj",
					"numinlets" : 2,
					"numoutlets" : 8,
					"offset" : [ 0.0, 0.0 ],
					"outlettype" : [ "signal", "signal", "", "list", "int", "", "", "" ],
					"patching_rect" : [ 110.638794, 273.0, 100.0, 17.0 ],
					"presentation" : 1,
					"presentation_rect" : [ 116.395996, 80.523499, 100.0, 17.0 ],
					"save" : [ "#N", "vst~", "loaduniqueid", 0, "Permut8", ";" ],
					"saved_attribute_attributes" : 					{
						"valueof" : 						{
							"parameter_invisible" : 1,
							"parameter_longname" : "vst~[13]",
							"parameter_shortname" : "vst~",
							"parameter_type" : 3
						}

					}
,
					"saved_object_attributes" : 					{
						"annotation_name" : "",
						"parameter_enable" : 1
					}
,
					"snapshot" : 					{
						"filetype" : "C74Snapshot",
						"version" : 2,
						"minorversion" : 0,
						"name" : "snapshotlist",
						"origin" : "vst~",
						"type" : "list",
						"subtype" : "Undefined",
						"embed" : 1,
						"snapshot" : 						{
							"pluginname" : "Permut8.vst",
							"plugindisplayname" : "Permut8",
							"pluginsavedname" : "Permut8",
							"pluginsaveduniqueid" : 0,
							"version" : 1,
							"isbank" : 0,
							"isbase64" : 1,
							"blob" : "151.CMlaKA....fQPMDZ....A3TcPIG...P.....drUPvzEHAUGcuABQx8lakA....................vV1pEZ4n....PP0Q2afPjbu4VYAHEtd7C...3O5N2o9rppp7Sr8A1O.........9C...3O...f+zLyL0C..............9ywFazOERHg9....9C...3OmZpI+."
						}
,
						"snapshotlist" : 						{
							"current_snapshot" : 0,
							"entries" : [ 								{
									"filetype" : "C74Snapshot",
									"version" : 2,
									"minorversion" : 0,
									"name" : "Permut8",
									"origin" : "Permut8.vst",
									"type" : "VST",
									"subtype" : "MidiEffect",
									"embed" : 0,
									"snapshot" : 									{
										"pluginname" : "Permut8.vst",
										"plugindisplayname" : "Permut8",
										"pluginsavedname" : "Permut8",
										"pluginsaveduniqueid" : 0,
										"version" : 1,
										"isbank" : 0,
										"isbase64" : 1,
										"blob" : "151.CMlaKA....fQPMDZ....A3TcPIG...P.....drUPvzEHAUGcuABQx8lakA....................vV1pEZ4n....PP0Q2afPjbu4VYAHEtd7C...3O5N2o9rppp7Sr8A1O.........9C...3O...f+zLyL0C..............9ywFazOERHg9....9C...3OmZpI+."
									}
,
									"fileref" : 									{
										"name" : "Permut8",
										"filename" : "Permut8.maxsnap",
										"filepath" : "~/Documents/Max 7/Snapshots",
										"filepos" : -1,
										"snapshotfileid" : "bc1d7351d60b61137f92811e8dad9cb8"
									}

								}
 ]
						}

					}
,
					"style" : "",
					"text" : "vst~ Permut8",
					"textcolor" : [ 0.243137, 0.388235, 0.372549, 0.51 ],
					"varname" : "vst~[13]",
					"viewvisibility" : 0
				}

			}
, 			{
				"box" : 				{
					"fontname" : "Lato",
					"fontsize" : 12.0,
					"id" : "obj-139",
					"maxclass" : "message",
					"numinlets" : 2,
					"numoutlets" : 1,
					"outlettype" : [ "" ],
					"patching_rect" : [ 251.5, 152.0, 59.0, 23.0 ],
					"style" : "",
					"text" : "rotate $1"
				}

			}
, 			{
				"box" : 				{
					"fontname" : "Lato",
					"fontsize" : 12.0,
					"id" : "obj-140",
					"maxclass" : "message",
					"numinlets" : 2,
					"numoutlets" : 1,
					"outlettype" : [ "" ],
					"patching_rect" : [ 411.5, 152.0, 61.0, 23.0 ],
					"style" : "",
					"text" : "decay $1"
				}

			}
, 			{
				"box" : 				{
					"fontname" : "Lato",
					"fontsize" : 12.0,
					"id" : "obj-141",
					"linecount" : 2,
					"maxclass" : "message",
					"numinlets" : 2,
					"numoutlets" : 1,
					"outlettype" : [ "" ],
					"patching_rect" : [ 332.0, 145.0, 66.5, 37.0 ],
					"style" : "",
					"text" : "dampen $1"
				}

			}
, 			{
				"box" : 				{
					"bgcolor" : [ 0.184314, 0.262745, 0.258824, 0.0 ],
					"fontname" : "Akkurat-Mono",
					"fontsize" : 9.0,
					"id" : "obj-121",
					"maxclass" : "comment",
					"numinlets" : 1,
					"numoutlets" : 0,
					"patching_rect" : [ 360.333374, 76.0, 34.0, 15.0 ],
					"presentation" : 1,
					"presentation_rect" : [ 13.8125, 10.148499, 44.0, 15.0 ],
					"style" : "",
					"text" : "KARP",
					"textcolor" : [ 0.848527, 0.909661, 0.909804, 1.0 ]
				}

			}
, 			{
				"box" : 				{
					"autosave" : 1,
					"bgcolor" : [ 0.152941, 0.290196, 0.32549, 0.27 ],
					"bgmode" : 0,
					"border" : 0,
					"clickthrough" : 0,
					"color" : [ 0.490196, 0.498039, 0.517647, 0.0 ],
					"fontname" : "Akkurat-Mono",
					"fontsize" : 9.0,
					"id" : "obj-122",
					"maxclass" : "newobj",
					"numinlets" : 2,
					"numoutlets" : 8,
					"offset" : [ 0.0, 0.0 ],
					"outlettype" : [ "signal", "signal", "", "list", "int", "", "", "" ],
					"patching_rect" : [ 216.5, 273.0, 107.0, 17.0 ],
					"presentation" : 1,
					"presentation_rect" : [ 116.395996, 38.523499, 66.0, 17.0 ],
					"save" : [ "#N", "vst~", "loaduniqueid", 0, "Etch", ";" ],
					"saved_attribute_attributes" : 					{
						"valueof" : 						{
							"parameter_invisible" : 1,
							"parameter_longname" : "vst~[6]",
							"parameter_shortname" : "vst~",
							"parameter_type" : 3
						}

					}
,
					"saved_object_attributes" : 					{
						"annotation_name" : "",
						"parameter_enable" : 1
					}
,
					"snapshot" : 					{
						"filetype" : "C74Snapshot",
						"version" : 2,
						"minorversion" : 0,
						"name" : "snapshotlist",
						"origin" : "vst~",
						"type" : "list",
						"subtype" : "Undefined",
						"embed" : 1,
						"snapshot" : 						{
							"pluginname" : "Etch.vst",
							"plugindisplayname" : "Etch",
							"pluginsavedname" : "Etch",
							"pluginsaveduniqueid" : 0,
							"version" : 1,
							"isbank" : 0,
							"isbase64" : 1,
							"blob" : "3372.CMlaKA....fQPMDZ....APWQ3YD...P......TDcigF..................................v.77H2auQGHSQWXzUlUkI2bo8la8HhLtHiHf7jckI2bg0FbrUVOhHiHfvjQO0TRDkzP8HBLh.BToQ2Xn0TRDkzP8HRLh.hQowFckIWLMkDQIMTOhHiHfXTZrQWYxISSIQTRC0iHyHhOJ.BHf.BOBklajklam0TXvAhag0VY8HhPo4FYo41YyIhOJ.BHf.BHf.BH7X0ShoVYiQWPxIWX4Ahag0VY8HBRuMGcPElbg0VYzUlbyIBHi8VctQWOhXiLh3iBf.BHf.BHf.BHf.BH7XkUgwVckABc4AWY8HhYr8VXzIBH1EFa0UVOh.iK0HBHu3iBf.BHf.BHf.BHf.BH7XkUgwVckABc4AWY8HhYr8VXzIBH1EFa0UVOh.iK0HBHu3iBf.BHf.BHf.BHf.BH7XkUgwVckABc4AWY8HhYr8VXzIBH1EFa0UVOh.iK0HBHu3iBf.BHf.BHf.BHf.BH7XkUgwVckABc4AWY8HhYr8VXzIBH1EFa0UVOhDiHf7hOJ.BHf.BHf.BHf.BHfviUVEFa0UFHzkGbk0iHlw1agQmHfXWXrUWY8HRLh.xK9n.Hf.BHf.BHf.BHf.BOVYUXrUWYfPWdvUVOhXFauEFch.hcgwVck0iHv3RMh.xK9n.Hf.BHf.BHf.BHf.BOVYUXrUWYfPWdvUVOhXFauEFch.hcgwVck0iHv3RMh.xK9n.Hf.BHf.BHf.BHf.BOVYUXrUWYfPWdvUVOhXFauEFch.hcgwVck0iHv3RMh.xK9n.Hf.BHf.BHf.BHf.BOVYUXrUWYfPWdvUVOhXFauEFch.hcgwVck0iHv3RMh.xK9n.Hf.BHf.BHf.BHf.BOVYUXrUWYfPWdvUVOhXFauEFch.hcgwVck0iHwHBHu3iBf.BHf.BHf.BHf.BH7XkUgwVckABc4AWY8HhYr8VXzIBH1EFa0UVOhDiHf7hOJ.BHf.BHf.BHf.BHfviUVEFa0UFHzkGbk0iHlw1agQmHfXWXrUWY8HBLtTiHf7hOJ.BHf.BHf.BHf.BHfviUVEFa0UFHzkGbk0iHlw1agQmHfXWXrUWY8HBLh.xK9n.Hf.BHf.BHf.BHf.BOVYUXrUWYfPWdvUVOhXFauEFch.hcgwVck0iHvHBHu3iBf.BHf.BHf.BHf.BH7XkUgwVckABc4AWY8HhYr8VXzIBH1EFa0UVOh.iK0HBHu3iBf.BHf.BHf.BHf.BH7XkUgwVckABc4AWY8HhYr8VXzIBH1EFa0UVOh.iKwHBHu3iBf.BHf.BHf.BHf.BH7XkUgwVckABc4AWY8HhYr8VXzIBH1EFa0UVOh.iHf7hOJ.BHf.BHf.BHf.BHfviUVEFa0UFHzkGbk0iHlw1agQmHfXWXrUWY8HRLh.xK9n.Hf.BHf.BHf.BHf.BOVYUXrUWYfPWdvUVOhXFauEFch.hcgwVck0iHv3RMh.xK9n.Hf.BHf.BHf.BHf.BOVYUXrUWYfPWdvUVOhXFauEFch.hcgwVck0iHv3RMh.xK9n.Hf.BHf.BHf.BHf.BOVYUXrUWYfPWdvUVOhXFauEFch.hcgwVck0iHwHBHu3iBf.BHf.BHf.BHf.BH7XkUgwVckABc4AWY8HhYr8VXzIBH1EFa0UVOh.iHf7hOJ.BHf.BHf.BHf.BHfviUVEFa0UFHzkGbk0iHlw1agQmHfXWXrUWY8HRLh.xK9n.Hf.BHf.BHf.BHf.BOVYUXrUWYfPWdvUVOhXFauEFch.hcgwVck0iHv3RMh.xK9n.Hf.BHf.BHf.BHf.BOVYUXrUWYfPWdvUVOhXFauEFch.hcgwVck0iHv3RMh.xK9n.Hf.BHf.BHf.BHf.BOVYUXrUWYfPWdvUVOhXFauEFch.hcgwVck0iHv3RMh.xK9n.Hf.BHf.BHf.BHf.BOVYUXrUWYfPWdvUVOhXFauEFch.hcgwVck0iHvHBHu3iBf.BHf.BHf.BHf.BH7XkUgwVckABc4AWY8HhYr8VXzIBH1EFa0UVOhDiHf7hOJ.BHf.BHf.BHf.BHfviUVEFa0UFHzkGbk0iHlw1agQmHfXWXrUWY8HBLh.xK9n.Hf.BHf.BHf.BHf.BOVYUXrUWYfPWdvUVOhXFauEFch.hcgwVck0iHvHBHu3iBf.BHf.BHf.BHf.BH7XkUgwVckABc4AWY8HhYr8VXzIBH1EFa0UVOh.iHf7hOJ.BHf.BHf.BHf.BHfviUVEFa0UFHzkGbk0iHlw1agQmHfXWXrUWY8HRLh.xK9n.Hf.BHf.BHf.BHf.BOVYUXrUWYfPWdvUVOhXFauEFch.hcgwVck0iHvHBHu3iBf.BHf.BHf.BHf.BH7XkUgwVckABc4AWY8HhYr8VXzIBH1EFa0UVOh.iHf7hOJ.BHf.BHf.BHf.BHfviUVEFa0UFHzkGbk0iHlw1agQmHfXWXrUWY8HRLh.xK9n.Hf.BHf.BHf.BHf.BOVYUXrUWYfPWdvUVOhXFauEFch.hcgwVck0iHv3RN3HBHu3iBf.BHf.BHf.BHf.BH7XkUgwVckABc4AWY8HhYr8VXzIBH1EFa0UVOhDiHf7hOJ.BHf.BHf.BHf.BHfviUVEFa0UFHzkGbk0iHlw1agQmHfXWXrUWY8HBLtXCLxHSMwHBHu3iBf.BHf.BHf.BHf.BH7XkUgwVckABc4AWY8HhYr8VXzIBH1EFa0UVOh.iK1.iLxTSLh.xK9n.Hf.BHf.BHf.BHf.BOVYUXrUWYfPWdvUVOhXFauEFch.hcgwVck0iHv3xMxHBHu3iBf.BHf.BHf.BHf.BH7XkUgwVckABc4AWY8HhYr8VXzIBH1EFa0UVOhDiHf7hOJ.BHf.BHf.BHf.BHfviUVEFa0UFHzkGbk0iHlw1agQmHfXWXrUWY8HBLh.xK9n.Hf.BHf.BHf.BHf.BOVYUXrUWYfPWdvUVOhXFauEFch.hcgwVck0iHvHBHu3iBf.BHf.BHf.BHf.BH7XkUgwVckABc4AWY8HhYr8VXzIBH1EFa0UVOh.iK0HBHu3iBf.BHf.BHf.BHf.BH7XkUgwVckABc4AWY8HhYr8VXzIBH1EFa0UVOhDiHf7hOJ.BHf.BHf.BHf.BHfviUVEFa0UFHzkGbk0iHlw1agQmHfXWXrUWY8HBLh.xK9n.Hf.BHf.BHf.BHf.BOVYUXrUWYfPWdvUVOhXFauEFch.hcgwVck0iHwHBHu3iBf.BHf.BHf.BHf.BH7XkUgwVckABc4AWY8HhYr8VXzIBH1EFa0UVOh.iK1.iLxTSLh.xK9n.Hf.BHf.BHf.BHf.BOVYUXrUWYfPWdvUVOhXFauEFch.hcgwVck0iHv3hMvHiL0DiHf7hOJ.BHf.BHf.BHf.BHfviUVEFa0UFHzkGbk0iHlw1agQmHfXWXrUWY8HBLh.xK9n.Hf.BHf.BHf.BHf.BOVYUXrUWYfPWdvUVOhXFauEFch.hcgwVck0iHv3hM1XiM1biHf7hOJ.BHf.BHf.BHf.BHfviUVEFa0UFHzkGbk0iHlw1agQmHfXWXrUWY8HBLh.xK9n.Hf.BHf.BHf.BHf.BOVYUXrUWYfPWdvUVOhXFauEFch.hcgwVck0iHvHBHu3iBf.BHf.BHf.BHf.BH7XkUgwVckABc4AWY8HhYr8VXzIBH1EFa0UVOh.iK0HBHu3iBf.BHf.BHf.BHf.BH7XkUgwVckABc4AWY8HhYr8VXzIBH1EFa0UVOhDiHf7hOJ.BHf.BHf.BHf.BHfviUVEFa0UFHzkGbk0iHlw1agQmHfXWXrUWY8HBLtbSNybCLwHBHu3iBf.BHf.BHf.BHf.BH7XkUgwVckABc4AWY8HhYr8VXzIBH1EFa0UVOh.iHf7hOJ.BHf.BHf.BHf.BHfviUVEFa0UFHzkGbk0iHlw1agQmHfXWXrUWY8HBLh.xK9n.Hf.BHf.BHf.BHf.BOVYUXrUWYfPWdvUVOhXFauEFch.hcgwVck0iHwHBHu3iBf.BHf.BHf.BHf.BH7XkUgwVckABc4AWY8HhYr8VXzIBH1EFa0UVOh.iHf7hOJ.BHf.BHf.BHf.BHfviUVEFa0UFHzkGbk0iHlw1agQmHfXWXrUWY8HBLh.xK9n.Hf.BHf.BHf.BHf.BOVYUXrUWYfPWdvUVOhXFauEFch.hcgwVck0iHvHBHu3iBf.BHf.BHf.BOuX0ShoVYiQWPxIWX44iBf.BHfvyKBklajklam0TXv4iBf.BHfvSQzMFZPI2aiU1byAhag0VY8HhQrUGdh.hUkIWOhHiKxHBHLklaq8jYlMWYz0iHvHBHCAiUgwVck0iHvHBHCEiUgwVck0iHvHBHu3iBf.BHfviUSQmbo41Yf3VXsUVOhvTXyQGTxU1bkQmSg0VYh.xbzIWZtcVOhPTYlEVcrQmHf7hOJvyKx81az4iB&BXCPGBXCRGRG"
						}
,
						"snapshotlist" : 						{
							"current_snapshot" : 0,
							"entries" : [ 								{
									"filetype" : "C74Snapshot",
									"version" : 2,
									"minorversion" : 0,
									"name" : "Etch.vst",
									"origin" : "Etch.vst",
									"type" : "VST",
									"subtype" : "MidiEffect",
									"embed" : 0,
									"snapshot" : 									{
										"pluginname" : "Etch.vst",
										"plugindisplayname" : "Etch",
										"pluginsavedname" : "Etch",
										"pluginsaveduniqueid" : 0,
										"version" : 1,
										"isbank" : 0,
										"isbase64" : 1,
										"blob" : "3372.CMlaKA....fQPMDZ....APWQ3YD...P......TDcigF..................................v.77H2auQGHSQWXzUlUkI2bo8la8HhLtHiHf7jckI2bg0FbrUVOhHiHfvjQO0TRDkzP8HBLh.BToQ2Xn0TRDkzP8HRLh.hQowFckIWLMkDQIMTOhHiHfXTZrQWYxISSIQTRC0iHyHhOJ.BHf.BOBklajklam0TXvAhag0VY8HhPo4FYo41YyIhOJ.BHf.BHf.BH7X0ShoVYiQWPxIWX4Ahag0VY8HBRuMGcPElbg0VYzUlbyIBHi8VctQWOhXiLh3iBf.BHf.BHf.BHf.BH7XkUgwVckABc4AWY8HhYr8VXzIBH1EFa0UVOh.iK0HBHu3iBf.BHf.BHf.BHf.BH7XkUgwVckABc4AWY8HhYr8VXzIBH1EFa0UVOh.iK0HBHu3iBf.BHf.BHf.BHf.BH7XkUgwVckABc4AWY8HhYr8VXzIBH1EFa0UVOh.iK0HBHu3iBf.BHf.BHf.BHf.BH7XkUgwVckABc4AWY8HhYr8VXzIBH1EFa0UVOhDiHf7hOJ.BHf.BHf.BHf.BHfviUVEFa0UFHzkGbk0iHlw1agQmHfXWXrUWY8HRLh.xK9n.Hf.BHf.BHf.BHf.BOVYUXrUWYfPWdvUVOhXFauEFch.hcgwVck0iHv3RMh.xK9n.Hf.BHf.BHf.BHf.BOVYUXrUWYfPWdvUVOhXFauEFch.hcgwVck0iHv3RMh.xK9n.Hf.BHf.BHf.BHf.BOVYUXrUWYfPWdvUVOhXFauEFch.hcgwVck0iHv3RMh.xK9n.Hf.BHf.BHf.BHf.BOVYUXrUWYfPWdvUVOhXFauEFch.hcgwVck0iHv3RMh.xK9n.Hf.BHf.BHf.BHf.BOVYUXrUWYfPWdvUVOhXFauEFch.hcgwVck0iHwHBHu3iBf.BHf.BHf.BHf.BH7XkUgwVckABc4AWY8HhYr8VXzIBH1EFa0UVOhDiHf7hOJ.BHf.BHf.BHf.BHfviUVEFa0UFHzkGbk0iHlw1agQmHfXWXrUWY8HBLtTiHf7hOJ.BHf.BHf.BHf.BHfviUVEFa0UFHzkGbk0iHlw1agQmHfXWXrUWY8HBLh.xK9n.Hf.BHf.BHf.BHf.BOVYUXrUWYfPWdvUVOhXFauEFch.hcgwVck0iHvHBHu3iBf.BHf.BHf.BHf.BH7XkUgwVckABc4AWY8HhYr8VXzIBH1EFa0UVOh.iK0HBHu3iBf.BHf.BHf.BHf.BH7XkUgwVckABc4AWY8HhYr8VXzIBH1EFa0UVOh.iKwHBHu3iBf.BHf.BHf.BHf.BH7XkUgwVckABc4AWY8HhYr8VXzIBH1EFa0UVOh.iHf7hOJ.BHf.BHf.BHf.BHfviUVEFa0UFHzkGbk0iHlw1agQmHfXWXrUWY8HRLh.xK9n.Hf.BHf.BHf.BHf.BOVYUXrUWYfPWdvUVOhXFauEFch.hcgwVck0iHv3RMh.xK9n.Hf.BHf.BHf.BHf.BOVYUXrUWYfPWdvUVOhXFauEFch.hcgwVck0iHv3RMh.xK9n.Hf.BHf.BHf.BHf.BOVYUXrUWYfPWdvUVOhXFauEFch.hcgwVck0iHwHBHu3iBf.BHf.BHf.BHf.BH7XkUgwVckABc4AWY8HhYr8VXzIBH1EFa0UVOh.iHf7hOJ.BHf.BHf.BHf.BHfviUVEFa0UFHzkGbk0iHlw1agQmHfXWXrUWY8HRLh.xK9n.Hf.BHf.BHf.BHf.BOVYUXrUWYfPWdvUVOhXFauEFch.hcgwVck0iHv3RMh.xK9n.Hf.BHf.BHf.BHf.BOVYUXrUWYfPWdvUVOhXFauEFch.hcgwVck0iHv3RMh.xK9n.Hf.BHf.BHf.BHf.BOVYUXrUWYfPWdvUVOhXFauEFch.hcgwVck0iHv3RMh.xK9n.Hf.BHf.BHf.BHf.BOVYUXrUWYfPWdvUVOhXFauEFch.hcgwVck0iHvHBHu3iBf.BHf.BHf.BHf.BH7XkUgwVckABc4AWY8HhYr8VXzIBH1EFa0UVOhDiHf7hOJ.BHf.BHf.BHf.BHfviUVEFa0UFHzkGbk0iHlw1agQmHfXWXrUWY8HBLh.xK9n.Hf.BHf.BHf.BHf.BOVYUXrUWYfPWdvUVOhXFauEFch.hcgwVck0iHvHBHu3iBf.BHf.BHf.BHf.BH7XkUgwVckABc4AWY8HhYr8VXzIBH1EFa0UVOh.iHf7hOJ.BHf.BHf.BHf.BHfviUVEFa0UFHzkGbk0iHlw1agQmHfXWXrUWY8HRLh.xK9n.Hf.BHf.BHf.BHf.BOVYUXrUWYfPWdvUVOhXFauEFch.hcgwVck0iHvHBHu3iBf.BHf.BHf.BHf.BH7XkUgwVckABc4AWY8HhYr8VXzIBH1EFa0UVOh.iHf7hOJ.BHf.BHf.BHf.BHfviUVEFa0UFHzkGbk0iHlw1agQmHfXWXrUWY8HRLh.xK9n.Hf.BHf.BHf.BHf.BOVYUXrUWYfPWdvUVOhXFauEFch.hcgwVck0iHv3RN3HBHu3iBf.BHf.BHf.BHf.BH7XkUgwVckABc4AWY8HhYr8VXzIBH1EFa0UVOhDiHf7hOJ.BHf.BHf.BHf.BHfviUVEFa0UFHzkGbk0iHlw1agQmHfXWXrUWY8HBLtXCLxHSMwHBHu3iBf.BHf.BHf.BHf.BH7XkUgwVckABc4AWY8HhYr8VXzIBH1EFa0UVOh.iK1.iLxTSLh.xK9n.Hf.BHf.BHf.BHf.BOVYUXrUWYfPWdvUVOhXFauEFch.hcgwVck0iHv3xMxHBHu3iBf.BHf.BHf.BHf.BH7XkUgwVckABc4AWY8HhYr8VXzIBH1EFa0UVOhDiHf7hOJ.BHf.BHf.BHf.BHfviUVEFa0UFHzkGbk0iHlw1agQmHfXWXrUWY8HBLh.xK9n.Hf.BHf.BHf.BHf.BOVYUXrUWYfPWdvUVOhXFauEFch.hcgwVck0iHvHBHu3iBf.BHf.BHf.BHf.BH7XkUgwVckABc4AWY8HhYr8VXzIBH1EFa0UVOh.iK0HBHu3iBf.BHf.BHf.BHf.BH7XkUgwVckABc4AWY8HhYr8VXzIBH1EFa0UVOhDiHf7hOJ.BHf.BHf.BHf.BHfviUVEFa0UFHzkGbk0iHlw1agQmHfXWXrUWY8HBLh.xK9n.Hf.BHf.BHf.BHf.BOVYUXrUWYfPWdvUVOhXFauEFch.hcgwVck0iHwHBHu3iBf.BHf.BHf.BHf.BH7XkUgwVckABc4AWY8HhYr8VXzIBH1EFa0UVOh.iK1.iLxTSLh.xK9n.Hf.BHf.BHf.BHf.BOVYUXrUWYfPWdvUVOhXFauEFch.hcgwVck0iHv3hMvHiL0DiHf7hOJ.BHf.BHf.BHf.BHfviUVEFa0UFHzkGbk0iHlw1agQmHfXWXrUWY8HBLh.xK9n.Hf.BHf.BHf.BHf.BOVYUXrUWYfPWdvUVOhXFauEFch.hcgwVck0iHv3hM1XiM1biHf7hOJ.BHf.BHf.BHf.BHfviUVEFa0UFHzkGbk0iHlw1agQmHfXWXrUWY8HBLh.xK9n.Hf.BHf.BHf.BHf.BOVYUXrUWYfPWdvUVOhXFauEFch.hcgwVck0iHvHBHu3iBf.BHf.BHf.BHf.BH7XkUgwVckABc4AWY8HhYr8VXzIBH1EFa0UVOh.iK0HBHu3iBf.BHf.BHf.BHf.BH7XkUgwVckABc4AWY8HhYr8VXzIBH1EFa0UVOhDiHf7hOJ.BHf.BHf.BHf.BHfviUVEFa0UFHzkGbk0iHlw1agQmHfXWXrUWY8HBLtbSNybCLwHBHu3iBf.BHf.BHf.BHf.BH7XkUgwVckABc4AWY8HhYr8VXzIBH1EFa0UVOh.iHf7hOJ.BHf.BHf.BHf.BHfviUVEFa0UFHzkGbk0iHlw1agQmHfXWXrUWY8HBLh.xK9n.Hf.BHf.BHf.BHf.BOVYUXrUWYfPWdvUVOhXFauEFch.hcgwVck0iHwHBHu3iBf.BHf.BHf.BHf.BH7XkUgwVckABc4AWY8HhYr8VXzIBH1EFa0UVOh.iHf7hOJ.BHf.BHf.BHf.BHfviUVEFa0UFHzkGbk0iHlw1agQmHfXWXrUWY8HBLh.xK9n.Hf.BHf.BHf.BHf.BOVYUXrUWYfPWdvUVOhXFauEFch.hcgwVck0iHvHBHu3iBf.BHf.BHf.BOuX0ShoVYiQWPxIWX44iBf.BHfvyKBklajklam0TXv4iBf.BHfvSQzMFZPI2aiU1byAhag0VY8HhQrUGdh.hUkIWOhHiKxHBHLklaq8jYlMWYz0iHvHBHCAiUgwVck0iHvHBHCEiUgwVck0iHvHBHu3iBf.BHfviUSQmbo41Yf3VXsUVOhvTXyQGTxU1bkQmSg0VYh.xbzIWZtcVOhPTYlEVcrQmHf7hOJvyKx81az4iB&BXCPGBXCRGRG"
									}
,
									"fileref" : 									{
										"name" : "Etch.vst",
										"filename" : "Etch.vst.maxsnap",
										"filepath" : "~/Documents/Max 7/Snapshots",
										"filepos" : -1,
										"snapshotfileid" : "eceb34beb3670cf69ba0d36e91d801e0"
									}

								}
 ]
						}

					}
,
					"style" : "",
					"text" : "vst~ Etch",
					"textcolor" : [ 0.243137, 0.388235, 0.372549, 0.51 ],
					"varname" : "vst~[6]",
					"viewvisibility" : 0
				}

			}
, 			{
				"box" : 				{
					"fontname" : "Akkurat-Mono",
					"fontsize" : 9.0,
					"id" : "obj-128",
					"maxclass" : "comment",
					"numinlets" : 1,
					"numoutlets" : 0,
					"patching_rect" : [ 176.0, 130.0, 50.0, 15.0 ],
					"presentation" : 1,
					"presentation_rect" : [ 13.8125, 113.023499, 50.0, 15.0 ],
					"style" : "",
					"text" : "decay",
					"textcolor" : [ 0.848527, 0.909661, 0.909804, 1.0 ]
				}

			}
, 			{
				"box" : 				{
					"fontname" : "Akkurat-Mono",
					"fontsize" : 9.0,
					"id" : "obj-129",
					"maxclass" : "comment",
					"numinlets" : 1,
					"numoutlets" : 0,
					"patching_rect" : [ 176.0, 110.5, 46.0, 15.0 ],
					"presentation" : 1,
					"presentation_rect" : [ 13.8125, 94.523499, 46.0, 15.0 ],
					"style" : "",
					"text" : "damp",
					"textcolor" : [ 0.848527, 0.909661, 0.909804, 1.0 ]
				}

			}
, 			{
				"box" : 				{
					"fontname" : "Akkurat-Mono",
					"fontsize" : 9.0,
					"id" : "obj-130",
					"maxclass" : "comment",
					"numinlets" : 1,
					"numoutlets" : 0,
					"patching_rect" : [ 176.0, 93.0, 50.0, 15.0 ],
					"presentation" : 1,
					"presentation_rect" : [ 13.8125, 76.023499, 50.0, 15.0 ],
					"style" : "",
					"text" : "rot",
					"textcolor" : [ 0.848527, 0.909661, 0.909804, 1.0 ]
				}

			}
, 			{
				"box" : 				{
					"fontname" : "Akkurat-Mono",
					"fontsize" : 9.0,
					"id" : "obj-131",
					"maxclass" : "comment",
					"numinlets" : 1,
					"numoutlets" : 0,
					"patching_rect" : [ 176.0, 76.0, 53.0, 15.0 ],
					"presentation" : 1,
					"presentation_rect" : [ 13.8125, 38.523499, 53.0, 15.0 ],
					"style" : "",
					"text" : "pitch a",
					"textcolor" : [ 0.848527, 0.909661, 0.909804, 1.0 ]
				}

			}
, 			{
				"box" : 				{
					"bgcolor" : [ 0.290196, 0.309804, 0.301961, 0.0 ],
					"fontname" : "Akkurat-Mono",
					"fontsize" : 10.0,
					"format" : 6,
					"id" : "obj-132",
					"maxclass" : "flonum",
					"numinlets" : 1,
					"numoutlets" : 2,
					"outlettype" : [ "", "bang" ],
					"parameter_enable" : 0,
					"patching_rect" : [ 336.5, 42.0, 96.0, 18.0 ],
					"presentation" : 1,
					"presentation_rect" : [ 59.8125, 39.023499, 53.0, 18.0 ],
					"style" : "",
					"textcolor" : [ 0.848527, 0.909661, 0.909804, 1.0 ],
					"tricolor" : [ 0.490196, 0.498039, 0.517647, 0.24 ]
				}

			}
, 			{
				"box" : 				{
					"coldcolor" : [ 0.32549, 0.345098, 0.372549, 0.53 ],
					"fontsize" : 13.0,
					"id" : "obj-133",
					"maxclass" : "live.gain~",
					"numinlets" : 2,
					"numoutlets" : 5,
					"orientation" : 1,
					"outlettype" : [ "signal", "signal", "", "float", "list" ],
					"parameter_enable" : 1,
					"patching_rect" : [ 110.638794, 306.0, 139.0, 28.0 ],
					"presentation" : 1,
					"presentation_rect" : [ 116.395996, 94.023499, 127.0, 28.0 ],
					"saved_attribute_attributes" : 					{
						"valueof" : 						{
							"parameter_longname" : "live.gain~[3]",
							"parameter_shortname" : "live.gain~",
							"parameter_type" : 0,
							"parameter_mmin" : -70.0,
							"parameter_mmax" : 6.0,
							"parameter_initial_enable" : 1,
							"parameter_initial" : [ -70 ],
							"parameter_unitstyle" : 4
						}

					}
,
					"showname" : 0,
					"shownumber" : 0,
					"tribordercolor" : [ 0.223529, 0.254902, 0.294118, 0.54 ],
					"tricolor" : [ 0.223529, 0.254902, 0.294118, 0.7 ],
					"trioncolor" : [ 0.221674, 0.25681, 0.29304, 1.0 ],
					"varname" : "live.gain~[3]",
					"warmcolor" : [ 0.203621, 0.22809, 0.23041, 1.0 ]
				}

			}
, 			{
				"box" : 				{
					"bgcolor" : [ 0.290196, 0.309804, 0.301961, 0.0 ],
					"fontname" : "Akkurat-Mono",
					"fontsize" : 10.0,
					"format" : 6,
					"id" : "obj-134",
					"maxclass" : "flonum",
					"numinlets" : 1,
					"numoutlets" : 2,
					"outlettype" : [ "", "bang" ],
					"parameter_enable" : 0,
					"patching_rect" : [ 257.0, 118.0, 54.0, 18.0 ],
					"presentation" : 1,
					"presentation_rect" : [ 59.8125, 75.523499, 54.0, 18.0 ],
					"style" : "",
					"textcolor" : [ 0.848527, 0.909661, 0.909804, 1.0 ],
					"tricolor" : [ 0.490196, 0.498039, 0.517647, 0.24 ]
				}

			}
, 			{
				"box" : 				{
					"bgcolor" : [ 0.290196, 0.309804, 0.301961, 0.0 ],
					"fontname" : "Akkurat-Mono",
					"fontsize" : 10.0,
					"format" : 6,
					"id" : "obj-135",
					"maxclass" : "flonum",
					"maximum" : 1.0,
					"minimum" : 0.0,
					"numinlets" : 1,
					"numoutlets" : 2,
					"outlettype" : [ "", "bang" ],
					"parameter_enable" : 0,
					"patching_rect" : [ 407.0, 118.0, 54.0, 18.0 ],
					"presentation" : 1,
					"presentation_rect" : [ 59.8125, 113.023499, 54.0, 18.0 ],
					"style" : "",
					"textcolor" : [ 0.848527, 0.909661, 0.909804, 1.0 ],
					"tricolor" : [ 0.490196, 0.498039, 0.517647, 0.24 ]
				}

			}
, 			{
				"box" : 				{
					"bgcolor" : [ 0.290196, 0.309804, 0.301961, 0.0 ],
					"fontname" : "Akkurat-Mono",
					"fontsize" : 10.0,
					"format" : 6,
					"id" : "obj-137",
					"maxclass" : "flonum",
					"maximum" : 1.0,
					"minimum" : 0.0,
					"numinlets" : 1,
					"numoutlets" : 2,
					"outlettype" : [ "", "bang" ],
					"parameter_enable" : 0,
					"patching_rect" : [ 332.0, 118.0, 56.0, 18.0 ],
					"presentation" : 1,
					"presentation_rect" : [ 59.8125, 94.523499, 54.0, 18.0 ],
					"style" : "",
					"textcolor" : [ 0.848527, 0.909661, 0.909804, 1.0 ],
					"tricolor" : [ 0.490196, 0.498039, 0.517647, 0.24 ]
				}

			}
, 			{
				"box" : 				{
					"angle" : 270.0,
					"bgcolor" : [ 0.290196, 0.309804, 0.301961, 0.0 ],
					"border" : 1,
					"bordercolor" : [ 0.847059, 0.909804, 0.909804, 0.8 ],
					"id" : "obj-16",
					"maxclass" : "panel",
					"mode" : 0,
					"numinlets" : 1,
					"numoutlets" : 0,
					"patching_rect" : [ 66.638794, 383.0, 128.0, 128.0 ],
					"presentation" : 1,
					"presentation_rect" : [ 2.638794, 2.523499, 263.0, 136.0 ],
					"proportion" : 0.39,
					"rounded" : 0,
					"style" : ""
				}

			}
 ],
		"lines" : [ 			{
				"patchline" : 				{
					"destination" : [ "obj-10", 0 ],
					"disabled" : 0,
					"hidden" : 0,
					"order" : 1,
					"source" : [ "obj-1", 0 ]
				}

			}
, 			{
				"patchline" : 				{
					"destination" : [ "obj-11", 0 ],
					"disabled" : 0,
					"hidden" : 0,
					"order" : 1,
					"source" : [ "obj-1", 1 ]
				}

			}
, 			{
				"patchline" : 				{
					"destination" : [ "obj-13", 1 ],
					"disabled" : 0,
					"hidden" : 0,
					"order" : 0,
					"source" : [ "obj-1", 1 ]
				}

			}
, 			{
				"patchline" : 				{
					"destination" : [ "obj-13", 0 ],
					"disabled" : 0,
					"hidden" : 0,
					"order" : 0,
					"source" : [ "obj-1", 0 ]
				}

			}
, 			{
				"patchline" : 				{
					"destination" : [ "obj-263", 0 ],
					"disabled" : 0,
					"hidden" : 0,
					"source" : [ "obj-12", 0 ]
				}

			}
, 			{
				"patchline" : 				{
					"destination" : [ "obj-1", 1 ],
					"disabled" : 0,
					"hidden" : 0,
					"source" : [ "obj-122", 1 ]
				}

			}
, 			{
				"patchline" : 				{
					"destination" : [ "obj-1", 0 ],
					"disabled" : 0,
					"hidden" : 0,
					"source" : [ "obj-122", 0 ]
				}

			}
, 			{
				"patchline" : 				{
					"destination" : [ "obj-40", 0 ],
					"disabled" : 0,
					"hidden" : 0,
					"source" : [ "obj-132", 0 ]
				}

			}
, 			{
				"patchline" : 				{
					"destination" : [ "obj-2", 0 ],
					"disabled" : 0,
					"hidden" : 0,
					"source" : [ "obj-133", 0 ]
				}

			}
, 			{
				"patchline" : 				{
					"destination" : [ "obj-8", 0 ],
					"disabled" : 0,
					"hidden" : 0,
					"source" : [ "obj-133", 1 ]
				}

			}
, 			{
				"patchline" : 				{
					"destination" : [ "obj-139", 0 ],
					"disabled" : 0,
					"hidden" : 0,
					"source" : [ "obj-134", 0 ]
				}

			}
, 			{
				"patchline" : 				{
					"destination" : [ "obj-140", 0 ],
					"disabled" : 0,
					"hidden" : 0,
					"source" : [ "obj-135", 0 ]
				}

			}
, 			{
				"patchline" : 				{
					"destination" : [ "obj-141", 0 ],
					"disabled" : 0,
					"hidden" : 0,
					"source" : [ "obj-137", 0 ]
				}

			}
, 			{
				"patchline" : 				{
					"destination" : [ "obj-21", 0 ],
					"disabled" : 0,
					"hidden" : 0,
					"source" : [ "obj-139", 0 ]
				}

			}
, 			{
				"patchline" : 				{
					"destination" : [ "obj-21", 0 ],
					"disabled" : 0,
					"hidden" : 0,
					"source" : [ "obj-140", 0 ]
				}

			}
, 			{
				"patchline" : 				{
					"destination" : [ "obj-21", 0 ],
					"disabled" : 0,
					"hidden" : 0,
					"source" : [ "obj-141", 0 ]
				}

			}
, 			{
				"patchline" : 				{
					"destination" : [ "obj-21", 0 ],
					"disabled" : 0,
					"hidden" : 0,
					"source" : [ "obj-15", 0 ]
				}

			}
, 			{
				"patchline" : 				{
					"destination" : [ "obj-19", 0 ],
					"disabled" : 0,
					"hidden" : 0,
					"source" : [ "obj-17", 0 ]
				}

			}
, 			{
				"patchline" : 				{
					"destination" : [ "obj-21", 2 ],
					"disabled" : 0,
					"hidden" : 0,
					"source" : [ "obj-19", 0 ]
				}

			}
, 			{
				"patchline" : 				{
					"destination" : [ "obj-17", 0 ],
					"disabled" : 0,
					"hidden" : 0,
					"source" : [ "obj-20", 0 ]
				}

			}
, 			{
				"patchline" : 				{
					"destination" : [ "obj-122", 1 ],
					"disabled" : 0,
					"hidden" : 0,
					"order" : 0,
					"source" : [ "obj-21", 1 ]
				}

			}
, 			{
				"patchline" : 				{
					"destination" : [ "obj-122", 0 ],
					"disabled" : 0,
					"hidden" : 0,
					"order" : 0,
					"source" : [ "obj-21", 0 ]
				}

			}
, 			{
				"patchline" : 				{
					"destination" : [ "obj-263", 1 ],
					"disabled" : 0,
					"hidden" : 0,
					"order" : 1,
					"source" : [ "obj-21", 1 ]
				}

			}
, 			{
				"patchline" : 				{
					"destination" : [ "obj-263", 0 ],
					"disabled" : 0,
					"hidden" : 0,
					"order" : 1,
					"source" : [ "obj-21", 0 ]
				}

			}
, 			{
				"patchline" : 				{
					"destination" : [ "obj-133", 1 ],
					"disabled" : 0,
					"hidden" : 0,
					"source" : [ "obj-263", 1 ]
				}

			}
, 			{
				"patchline" : 				{
					"destination" : [ "obj-133", 0 ],
					"disabled" : 0,
					"hidden" : 0,
					"source" : [ "obj-263", 0 ]
				}

			}
, 			{
				"patchline" : 				{
					"destination" : [ "obj-355", 0 ],
					"disabled" : 0,
					"hidden" : 0,
					"source" : [ "obj-3", 0 ]
				}

			}
, 			{
				"patchline" : 				{
					"destination" : [ "obj-356", 0 ],
					"disabled" : 0,
					"hidden" : 0,
					"source" : [ "obj-355", 0 ]
				}

			}
, 			{
				"patchline" : 				{
					"destination" : [ "obj-21", 0 ],
					"disabled" : 0,
					"hidden" : 0,
					"source" : [ "obj-356", 0 ]
				}

			}
, 			{
				"patchline" : 				{
					"destination" : [ "obj-132", 0 ],
					"disabled" : 0,
					"hidden" : 0,
					"source" : [ "obj-4", 0 ]
				}

			}
, 			{
				"patchline" : 				{
					"destination" : [ "obj-21", 1 ],
					"disabled" : 0,
					"hidden" : 0,
					"source" : [ "obj-40", 0 ]
				}

			}
, 			{
				"patchline" : 				{
					"destination" : [ "obj-137", 0 ],
					"disabled" : 0,
					"hidden" : 0,
					"source" : [ "obj-6", 0 ]
				}

			}
, 			{
				"patchline" : 				{
					"destination" : [ "obj-135", 0 ],
					"disabled" : 0,
					"hidden" : 0,
					"source" : [ "obj-7", 0 ]
				}

			}
, 			{
				"patchline" : 				{
					"destination" : [ "obj-134", 0 ],
					"disabled" : 0,
					"hidden" : 0,
					"source" : [ "obj-9", 0 ]
				}

			}
 ],
		"parameters" : 		{
			"obj-122" : [ "vst~[6]", "vst~", 0 ],
			"obj-1" : [ "live.gain~[4]", "live.gain~", 0 ],
			"obj-263" : [ "vst~[13]", "vst~", 0 ],
			"obj-133" : [ "live.gain~[3]", "live.gain~", 0 ]
		}
,
		"dependency_cache" : [ 			{
				"name" : "Etch.vst.maxsnap",
				"bootpath" : "~/Documents/Max 7/Snapshots",
				"type" : "mx@s",
				"implicit" : 1
			}
, 			{
				"name" : "Permut8.maxsnap",
				"bootpath" : "~/Documents/Max 7/Snapshots",
				"type" : "mx@s",
				"implicit" : 1
			}
 ],
		"autosave" : 0,
		"styles" : [ 			{
				"name" : "AudioStatus_Menu",
				"default" : 				{
					"bgfillcolor" : 					{
						"type" : "color",
						"color" : [ 0.294118, 0.313726, 0.337255, 1 ],
						"color1" : [ 0.454902, 0.462745, 0.482353, 0.0 ],
						"color2" : [ 0.290196, 0.309804, 0.301961, 1.0 ],
						"angle" : 270.0,
						"proportion" : 0.39,
						"autogradient" : 0
					}

				}
,
				"parentstyle" : "",
				"multi" : 0
			}
, 			{
				"name" : "multisliderBlue&Yellow",
				"default" : 				{
					"color" : [ 0.960784, 0.867826, 0.084811, 1.0 ],
					"bgcolor" : [ 0.317647, 0.654902, 0.976471, 0.79 ]
				}
,
				"parentstyle" : "",
				"multi" : 0
			}
, 			{
				"name" : "newobjBlue-1",
				"default" : 				{
					"accentcolor" : [ 0.317647, 0.654902, 0.976471, 1.0 ]
				}
,
				"parentstyle" : "",
				"multi" : 0
			}
, 			{
				"name" : "newobjGold-1",
				"default" : 				{
					"accentcolor" : [ 0.764706, 0.592157, 0.101961, 1.0 ]
				}
,
				"parentstyle" : "",
				"multi" : 0
			}
, 			{
				"name" : "newobjGreen-1",
				"default" : 				{
					"accentcolor" : [ 0.0, 0.533333, 0.168627, 1.0 ]
				}
,
				"parentstyle" : "",
				"multi" : 0
			}
, 			{
				"name" : "newobjRed-1",
				"default" : 				{
					"accentcolor" : [ 0.784314, 0.145098, 0.023529, 1.0 ]
				}
,
				"parentstyle" : "",
				"multi" : 0
			}
, 			{
				"name" : "newobjYellow-1",
				"default" : 				{
					"fontsize" : [ 12.059008 ],
					"accentcolor" : [ 0.82517, 0.78181, 0.059545, 1.0 ]
				}
,
				"parentstyle" : "",
				"multi" : 0
			}
, 			{
				"name" : "numberGold-1",
				"default" : 				{
					"accentcolor" : [ 0.764706, 0.592157, 0.101961, 1.0 ]
				}
,
				"parentstyle" : "",
				"multi" : 0
			}
 ]
	}

}
