{
	"patcher" : 	{
		"fileversion" : 1,
		"appversion" : 		{
			"major" : 7,
			"minor" : 2,
			"revision" : 4,
			"architecture" : "x64",
			"modernui" : 1
		}
,
		"rect" : [ 59.0, 104.0, 647.0, 480.0 ],
		"bgcolor" : [ 0.0, 0.0, 0.0, 1.0 ],
		"editing_bgcolor" : [ 0.0, 0.0, 0.0, 1.0 ],
		"bglocked" : 0,
		"openinpresentation" : 0,
		"default_fontsize" : 12.0,
		"default_fontface" : 0,
		"default_fontname" : "Arial",
		"gridonopen" : 1,
		"gridsize" : [ 15.0, 15.0 ],
		"gridsnaponopen" : 1,
		"objectsnaponopen" : 1,
		"statusbarvisible" : 2,
		"toolbarvisible" : 1,
		"lefttoolbarpinned" : 0,
		"toptoolbarpinned" : 0,
		"righttoolbarpinned" : 0,
		"bottomtoolbarpinned" : 0,
		"toolbars_unpinned_last_save" : 0,
		"tallnewobj" : 0,
		"boxanimatetime" : 200,
		"enablehscroll" : 1,
		"enablevscroll" : 1,
		"devicewidth" : 0.0,
		"description" : "",
		"digest" : "",
		"tags" : "",
		"style" : "",
		"subpatcher_template" : "",
		"boxes" : [ 			{
				"box" : 				{
					"activedialcolor" : [ 0.848527, 0.909661, 0.909804, 1.0 ],
					"activeneedlecolor" : [ 0.848527, 0.909661, 0.909804, 1.0 ],
					"annotation" : "Adjusts the pitch of the respective stage.",
					"appearance" : 2,
					"fontface" : 0,
					"fontname" : "Akkurat Light Pro Regular",
					"id" : "obj-43",
					"maxclass" : "live.dial",
					"needlecolor" : [ 0.321569, 0.321569, 0.321569, 0.18 ],
					"numinlets" : 1,
					"numoutlets" : 2,
					"outlettype" : [ "", "float" ],
					"panelcolor" : [ 0.85098, 0.870588, 0.890196, 0.0 ],
					"parameter_enable" : 1,
					"patching_rect" : [ 394.0, 2.0, 51.0, 80.0 ],
					"presentation" : 1,
					"presentation_rect" : [ 486.0, 34.0, 51.0, 80.0 ],
					"saved_attribute_attributes" : 					{
						"valueof" : 						{
							"parameter_linknames" : 1,
							"parameter_longname" : "PitchDial8",
							"parameter_shortname" : "Pitch8",
							"parameter_type" : 1,
							"parameter_mmin" : -36.0,
							"parameter_mmax" : 36.0,
							"parameter_initial_enable" : 1,
							"parameter_initial" : [ 0 ],
							"parameter_unitstyle" : 7,
							"parameter_steps" : 73,
							"parameter_speedlim" : 0.0
						}

					}
,
					"showname" : 0,
					"textcolor" : [ 0.848527, 0.909661, 0.909804, 1.0 ],
					"triangle" : 1,
					"tribordercolor" : [ 0.196078, 0.196078, 0.196078, 0.4 ],
					"tricolor" : [ 0.6, 0.6, 0.6, 0.16 ],
					"varname" : "PitchDial8"
				}

			}
, 			{
				"box" : 				{
					"activedialcolor" : [ 0.848527, 0.909661, 0.909804, 1.0 ],
					"activeneedlecolor" : [ 0.848527, 0.909661, 0.909804, 1.0 ],
					"annotation" : "Adjusts the pitch of the respective stage.",
					"appearance" : 2,
					"fontface" : 0,
					"fontname" : "Akkurat Light Pro Regular",
					"id" : "obj-53",
					"maxclass" : "live.dial",
					"needlecolor" : [ 0.321569, 0.321569, 0.321569, 0.18 ],
					"numinlets" : 1,
					"numoutlets" : 2,
					"outlettype" : [ "", "float" ],
					"panelcolor" : [ 0.85098, 0.870588, 0.890196, 0.0 ],
					"parameter_enable" : 1,
					"patching_rect" : [ 338.0, 2.0, 51.0, 80.0 ],
					"presentation" : 1,
					"presentation_rect" : [ 430.0, 34.0, 51.0, 80.0 ],
					"saved_attribute_attributes" : 					{
						"valueof" : 						{
							"parameter_linknames" : 1,
							"parameter_longname" : "PitchDial7",
							"parameter_shortname" : "Pitch7",
							"parameter_type" : 1,
							"parameter_mmin" : -36.0,
							"parameter_mmax" : 36.0,
							"parameter_initial_enable" : 1,
							"parameter_initial" : [ 0 ],
							"parameter_unitstyle" : 7,
							"parameter_steps" : 73,
							"parameter_speedlim" : 0.0
						}

					}
,
					"showname" : 0,
					"textcolor" : [ 0.848527, 0.909661, 0.909804, 1.0 ],
					"triangle" : 1,
					"tribordercolor" : [ 0.196078, 0.196078, 0.196078, 0.4 ],
					"tricolor" : [ 0.6, 0.6, 0.6, 0.16 ],
					"varname" : "PitchDial7"
				}

			}
, 			{
				"box" : 				{
					"activedialcolor" : [ 0.848527, 0.909661, 0.909804, 1.0 ],
					"activeneedlecolor" : [ 0.848527, 0.909661, 0.909804, 1.0 ],
					"annotation" : "Adjusts the pitch of the respective stage.",
					"appearance" : 2,
					"fontface" : 0,
					"fontname" : "Akkurat Light Pro Regular",
					"id" : "obj-54",
					"maxclass" : "live.dial",
					"needlecolor" : [ 0.321569, 0.321569, 0.321569, 0.18 ],
					"numinlets" : 1,
					"numoutlets" : 2,
					"outlettype" : [ "", "float" ],
					"panelcolor" : [ 0.85098, 0.870588, 0.890196, 0.0 ],
					"parameter_enable" : 1,
					"patching_rect" : [ 282.0, 2.0, 51.0, 80.0 ],
					"presentation" : 1,
					"presentation_rect" : [ 374.0, 34.0, 51.0, 80.0 ],
					"saved_attribute_attributes" : 					{
						"valueof" : 						{
							"parameter_linknames" : 1,
							"parameter_longname" : "PitchDial6",
							"parameter_shortname" : "Pitch6",
							"parameter_type" : 1,
							"parameter_mmin" : -36.0,
							"parameter_mmax" : 36.0,
							"parameter_initial_enable" : 1,
							"parameter_initial" : [ 0 ],
							"parameter_unitstyle" : 7,
							"parameter_steps" : 73,
							"parameter_speedlim" : 0.0
						}

					}
,
					"showname" : 0,
					"textcolor" : [ 0.848527, 0.909661, 0.909804, 1.0 ],
					"triangle" : 1,
					"tribordercolor" : [ 0.196078, 0.196078, 0.196078, 0.4 ],
					"tricolor" : [ 0.6, 0.6, 0.6, 0.16 ],
					"varname" : "PitchDial6"
				}

			}
, 			{
				"box" : 				{
					"activedialcolor" : [ 0.848527, 0.909661, 0.909804, 1.0 ],
					"activeneedlecolor" : [ 0.848527, 0.909661, 0.909804, 1.0 ],
					"annotation" : "Adjusts the pitch of the respective stage.",
					"appearance" : 2,
					"fontface" : 0,
					"fontname" : "Akkurat Light Pro Regular",
					"id" : "obj-55",
					"maxclass" : "live.dial",
					"needlecolor" : [ 0.321569, 0.321569, 0.321569, 0.18 ],
					"numinlets" : 1,
					"numoutlets" : 2,
					"outlettype" : [ "", "float" ],
					"panelcolor" : [ 0.85098, 0.870588, 0.890196, 0.0 ],
					"parameter_enable" : 1,
					"patching_rect" : [ 226.0, 2.0, 51.0, 80.0 ],
					"presentation" : 1,
					"presentation_rect" : [ 318.0, 34.0, 51.0, 80.0 ],
					"saved_attribute_attributes" : 					{
						"valueof" : 						{
							"parameter_linknames" : 1,
							"parameter_longname" : "PitchDial5",
							"parameter_shortname" : "Pitch5",
							"parameter_type" : 1,
							"parameter_mmin" : -36.0,
							"parameter_mmax" : 36.0,
							"parameter_initial_enable" : 1,
							"parameter_initial" : [ 0 ],
							"parameter_unitstyle" : 7,
							"parameter_steps" : 73,
							"parameter_speedlim" : 0.0
						}

					}
,
					"showname" : 0,
					"textcolor" : [ 0.848527, 0.909661, 0.909804, 1.0 ],
					"triangle" : 1,
					"tribordercolor" : [ 0.196078, 0.196078, 0.196078, 0.4 ],
					"tricolor" : [ 0.6, 0.6, 0.6, 0.16 ],
					"varname" : "PitchDial5"
				}

			}
, 			{
				"box" : 				{
					"activedialcolor" : [ 0.848527, 0.909661, 0.909804, 1.0 ],
					"activeneedlecolor" : [ 0.848527, 0.909661, 0.909804, 1.0 ],
					"annotation" : "Adjusts the pitch of the respective stage.",
					"appearance" : 2,
					"fontface" : 0,
					"fontname" : "Akkurat Light Pro Regular",
					"id" : "obj-39",
					"maxclass" : "live.dial",
					"needlecolor" : [ 0.321569, 0.321569, 0.321569, 0.18 ],
					"numinlets" : 1,
					"numoutlets" : 2,
					"outlettype" : [ "", "float" ],
					"panelcolor" : [ 0.85098, 0.870588, 0.890196, 0.0 ],
					"parameter_enable" : 1,
					"patching_rect" : [ 170.0, 2.0, 51.0, 80.0 ],
					"presentation" : 1,
					"presentation_rect" : [ 262.0, 34.0, 51.0, 80.0 ],
					"saved_attribute_attributes" : 					{
						"valueof" : 						{
							"parameter_linknames" : 1,
							"parameter_longname" : "PitchDial4",
							"parameter_shortname" : "Pitch4",
							"parameter_type" : 1,
							"parameter_mmin" : -36.0,
							"parameter_mmax" : 36.0,
							"parameter_initial_enable" : 1,
							"parameter_initial" : [ 0 ],
							"parameter_unitstyle" : 7,
							"parameter_steps" : 73,
							"parameter_speedlim" : 0.0
						}

					}
,
					"showname" : 0,
					"textcolor" : [ 0.848527, 0.909661, 0.909804, 1.0 ],
					"triangle" : 1,
					"tribordercolor" : [ 0.196078, 0.196078, 0.196078, 0.4 ],
					"tricolor" : [ 0.6, 0.6, 0.6, 0.16 ],
					"varname" : "PitchDial4"
				}

			}
, 			{
				"box" : 				{
					"activedialcolor" : [ 0.848527, 0.909661, 0.909804, 1.0 ],
					"activeneedlecolor" : [ 0.848527, 0.909661, 0.909804, 1.0 ],
					"annotation" : "Adjusts the pitch of the respective stage.",
					"appearance" : 2,
					"fontface" : 0,
					"fontname" : "Akkurat Light Pro Regular",
					"id" : "obj-3",
					"maxclass" : "live.dial",
					"needlecolor" : [ 0.321569, 0.321569, 0.321569, 0.18 ],
					"numinlets" : 1,
					"numoutlets" : 2,
					"outlettype" : [ "", "float" ],
					"panelcolor" : [ 0.85098, 0.870588, 0.890196, 0.0 ],
					"parameter_enable" : 1,
					"patching_rect" : [ 114.0, 2.0, 51.0, 80.0 ],
					"presentation" : 1,
					"presentation_rect" : [ 206.0, 34.0, 51.0, 80.0 ],
					"saved_attribute_attributes" : 					{
						"valueof" : 						{
							"parameter_linknames" : 1,
							"parameter_longname" : "PitchDial3",
							"parameter_shortname" : "Pitch3",
							"parameter_type" : 1,
							"parameter_mmin" : -36.0,
							"parameter_mmax" : 36.0,
							"parameter_initial_enable" : 1,
							"parameter_initial" : [ 0 ],
							"parameter_unitstyle" : 7,
							"parameter_steps" : 73,
							"parameter_speedlim" : 0.0
						}

					}
,
					"showname" : 0,
					"textcolor" : [ 0.848527, 0.909661, 0.909804, 1.0 ],
					"triangle" : 1,
					"tribordercolor" : [ 0.196078, 0.196078, 0.196078, 0.4 ],
					"tricolor" : [ 0.6, 0.6, 0.6, 0.16 ],
					"varname" : "PitchDial3"
				}

			}
, 			{
				"box" : 				{
					"activedialcolor" : [ 0.848527, 0.909661, 0.909804, 1.0 ],
					"activeneedlecolor" : [ 0.848527, 0.909661, 0.909804, 1.0 ],
					"annotation" : "Adjusts the pitch of the respective stage.",
					"appearance" : 2,
					"fontface" : 0,
					"fontname" : "Akkurat Light Pro Regular",
					"id" : "obj-2",
					"maxclass" : "live.dial",
					"needlecolor" : [ 0.321569, 0.321569, 0.321569, 0.18 ],
					"numinlets" : 1,
					"numoutlets" : 2,
					"outlettype" : [ "", "float" ],
					"panelcolor" : [ 0.85098, 0.870588, 0.890196, 0.0 ],
					"parameter_enable" : 1,
					"patching_rect" : [ 58.0, 2.0, 51.0, 80.0 ],
					"presentation" : 1,
					"presentation_rect" : [ 150.0, 34.0, 51.0, 80.0 ],
					"saved_attribute_attributes" : 					{
						"valueof" : 						{
							"parameter_linknames" : 1,
							"parameter_longname" : "PitchDial2",
							"parameter_shortname" : "Pitch2",
							"parameter_type" : 1,
							"parameter_mmin" : -36.0,
							"parameter_mmax" : 36.0,
							"parameter_initial_enable" : 1,
							"parameter_initial" : [ 0 ],
							"parameter_unitstyle" : 7,
							"parameter_steps" : 73,
							"parameter_speedlim" : 0.0
						}

					}
,
					"showname" : 0,
					"textcolor" : [ 0.848527, 0.909661, 0.909804, 1.0 ],
					"triangle" : 1,
					"tribordercolor" : [ 0.196078, 0.196078, 0.196078, 0.4 ],
					"tricolor" : [ 0.6, 0.6, 0.6, 0.16 ],
					"varname" : "PitchDial2"
				}

			}
, 			{
				"box" : 				{
					"activedialcolor" : [ 0.848527, 0.909661, 0.909804, 1.0 ],
					"activeneedlecolor" : [ 0.848527, 0.909661, 0.909804, 1.0 ],
					"annotation" : "Adjusts the pitch of the respective stage.",
					"appearance" : 2,
					"fontface" : 0,
					"fontname" : "Akkurat Light Pro Regular",
					"id" : "obj-1",
					"maxclass" : "live.dial",
					"needlecolor" : [ 0.321569, 0.321569, 0.321569, 0.18 ],
					"numinlets" : 1,
					"numoutlets" : 2,
					"outlettype" : [ "", "float" ],
					"panelcolor" : [ 0.85098, 0.870588, 0.890196, 0.0 ],
					"parameter_enable" : 1,
					"patching_rect" : [ 2.0, 2.0, 51.0, 80.0 ],
					"presentation" : 1,
					"presentation_rect" : [ 94.0, 34.0, 51.0, 80.0 ],
					"saved_attribute_attributes" : 					{
						"valueof" : 						{
							"parameter_linknames" : 1,
							"parameter_longname" : "PitchDial1",
							"parameter_shortname" : "Pitch1",
							"parameter_type" : 1,
							"parameter_mmin" : -36.0,
							"parameter_mmax" : 36.0,
							"parameter_initial_enable" : 1,
							"parameter_initial" : [ 0 ],
							"parameter_unitstyle" : 7,
							"parameter_steps" : 73,
							"parameter_speedlim" : 0.0
						}

					}
,
					"showname" : 0,
					"textcolor" : [ 0.848527, 0.909661, 0.909804, 1.0 ],
					"triangle" : 1,
					"tribordercolor" : [ 0.196078, 0.196078, 0.196078, 0.4 ],
					"tricolor" : [ 0.6, 0.6, 0.6, 0.16 ],
					"varname" : "PitchDial1"
				}

			}
, 			{
				"box" : 				{
					"fontname" : "Arial Bold",
					"fontsize" : 10.0,
					"hidden" : 1,
					"id" : "obj-80",
					"maxclass" : "newobj",
					"numinlets" : 1,
					"numoutlets" : 2,
					"outlettype" : [ "int", "bang" ],
					"patching_rect" : [ 1083.0, -109.0, 32.5, 20.0 ],
					"style" : "",
					"text" : "t i b"
				}

			}
, 			{
				"box" : 				{
					"fontname" : "Arial Bold",
					"fontsize" : 10.0,
					"hidden" : 1,
					"id" : "obj-81",
					"maxclass" : "newobj",
					"numinlets" : 2,
					"numoutlets" : 1,
					"outlettype" : [ "" ],
					"patching_rect" : [ 1083.0, -65.0, 33.0, 20.0 ],
					"style" : "",
					"text" : "pack"
				}

			}
, 			{
				"box" : 				{
					"fontname" : "Arial Bold",
					"fontsize" : 10.0,
					"hidden" : 1,
					"id" : "obj-82",
					"maxclass" : "newobj",
					"numinlets" : 2,
					"numoutlets" : 3,
					"outlettype" : [ "bang", "bang", "int" ],
					"patching_rect" : [ 1056.0, -129.0, 46.0, 20.0 ],
					"style" : "",
					"text" : "uzi 8"
				}

			}
, 			{
				"box" : 				{
					"fontname" : "Arial Bold",
					"fontsize" : 10.0,
					"hidden" : 1,
					"id" : "obj-83",
					"maxclass" : "newobj",
					"numinlets" : 2,
					"numoutlets" : 1,
					"outlettype" : [ "int" ],
					"patching_rect" : [ 1097.0, -88.0, 67.0, 20.0 ],
					"style" : "",
					"text" : "random 127"
				}

			}
, 			{
				"box" : 				{
					"fontname" : "Arial Bold",
					"fontsize" : 10.0,
					"hidden" : 1,
					"id" : "obj-75",
					"maxclass" : "newobj",
					"numinlets" : 1,
					"numoutlets" : 2,
					"outlettype" : [ "int", "bang" ],
					"patching_rect" : [ 629.0, -109.0, 32.5, 20.0 ],
					"style" : "",
					"text" : "t i b"
				}

			}
, 			{
				"box" : 				{
					"fontname" : "Arial Bold",
					"fontsize" : 10.0,
					"hidden" : 1,
					"id" : "obj-76",
					"maxclass" : "newobj",
					"numinlets" : 2,
					"numoutlets" : 1,
					"outlettype" : [ "" ],
					"patching_rect" : [ 629.0, -65.0, 33.0, 20.0 ],
					"style" : "",
					"text" : "pack"
				}

			}
, 			{
				"box" : 				{
					"fontname" : "Arial Bold",
					"fontsize" : 10.0,
					"hidden" : 1,
					"id" : "obj-77",
					"maxclass" : "newobj",
					"numinlets" : 2,
					"numoutlets" : 3,
					"outlettype" : [ "bang", "bang", "int" ],
					"patching_rect" : [ 602.0, -129.0, 46.0, 20.0 ],
					"style" : "",
					"text" : "uzi 8"
				}

			}
, 			{
				"box" : 				{
					"fontname" : "Arial Bold",
					"fontsize" : 10.0,
					"hidden" : 1,
					"id" : "obj-78",
					"maxclass" : "newobj",
					"numinlets" : 2,
					"numoutlets" : 1,
					"outlettype" : [ "int" ],
					"patching_rect" : [ 643.0, -88.0, 67.0, 20.0 ],
					"style" : "",
					"text" : "random 127"
				}

			}
, 			{
				"box" : 				{
					"fontname" : "Arial",
					"fontsize" : 10.0,
					"hidden" : 1,
					"id" : "obj-73",
					"maxclass" : "newobj",
					"numinlets" : 2,
					"numoutlets" : 1,
					"outlettype" : [ "int" ],
					"patching_rect" : [ 388.0, -201.0, 30.0, 20.0 ],
					"style" : "",
					"text" : "+ 1"
				}

			}
, 			{
				"box" : 				{
					"fontname" : "Arial",
					"fontsize" : 10.0,
					"hidden" : 1,
					"id" : "obj-72",
					"maxclass" : "newobj",
					"numinlets" : 2,
					"numoutlets" : 3,
					"outlettype" : [ "", "", "" ],
					"patching_rect" : [ 388.0, -179.0, 46.0, 20.0 ],
					"style" : "",
					"text" : "gate 3"
				}

			}
, 			{
				"box" : 				{
					"fontname" : "Arial",
					"fontsize" : 10.0,
					"hidden" : 1,
					"id" : "obj-71",
					"maxclass" : "newobj",
					"numinlets" : 2,
					"numoutlets" : 1,
					"outlettype" : [ "int" ],
					"patching_rect" : [ 185.0, -87.0, 30.0, 20.0 ],
					"style" : "",
					"text" : "- 36"
				}

			}
, 			{
				"box" : 				{
					"fontname" : "Arial Bold",
					"fontsize" : 10.0,
					"hidden" : 1,
					"id" : "obj-66",
					"maxclass" : "newobj",
					"numinlets" : 9,
					"numoutlets" : 9,
					"outlettype" : [ "", "", "", "", "", "", "", "", "" ],
					"patching_rect" : [ 1083.0, -43.0, 127.0, 20.0 ],
					"style" : "",
					"text" : "route 1 2 3 4 5 6 7 8"
				}

			}
, 			{
				"box" : 				{
					"fontname" : "Arial Bold",
					"fontsize" : 10.0,
					"hidden" : 1,
					"id" : "obj-65",
					"maxclass" : "newobj",
					"numinlets" : 9,
					"numoutlets" : 9,
					"outlettype" : [ "", "", "", "", "", "", "", "", "" ],
					"patching_rect" : [ 629.0, -44.0, 127.0, 20.0 ],
					"style" : "",
					"text" : "route 1 2 3 4 5 6 7 8"
				}

			}
, 			{
				"box" : 				{
					"fontname" : "Arial",
					"fontsize" : 10.0,
					"hidden" : 1,
					"id" : "obj-44",
					"maxclass" : "newobj",
					"numinlets" : 0,
					"numoutlets" : 1,
					"outlettype" : [ "" ],
					"patching_rect" : [ 415.0, -222.0, 62.0, 20.0 ],
					"style" : "",
					"text" : "r ---random"
				}

			}
, 			{
				"box" : 				{
					"fontname" : "Arial Bold",
					"fontsize" : 10.0,
					"hidden" : 1,
					"id" : "obj-290",
					"maxclass" : "newobj",
					"numinlets" : 1,
					"numoutlets" : 2,
					"outlettype" : [ "int", "bang" ],
					"patching_rect" : [ 171.0, -131.0, 32.5, 20.0 ],
					"style" : "",
					"text" : "t i b"
				}

			}
, 			{
				"box" : 				{
					"fontname" : "Arial Bold",
					"fontsize" : 10.0,
					"hidden" : 1,
					"id" : "obj-286",
					"maxclass" : "newobj",
					"numinlets" : 9,
					"numoutlets" : 9,
					"outlettype" : [ "", "", "", "", "", "", "", "", "" ],
					"patching_rect" : [ 171.0, -44.0, 127.0, 20.0 ],
					"style" : "",
					"text" : "route 1 2 3 4 5 6 7 8"
				}

			}
, 			{
				"box" : 				{
					"fontname" : "Arial Bold",
					"fontsize" : 10.0,
					"hidden" : 1,
					"id" : "obj-285",
					"maxclass" : "newobj",
					"numinlets" : 2,
					"numoutlets" : 1,
					"outlettype" : [ "" ],
					"patching_rect" : [ 171.0, -65.0, 33.0, 20.0 ],
					"style" : "",
					"text" : "pack"
				}

			}
, 			{
				"box" : 				{
					"fontname" : "Arial Bold",
					"fontsize" : 10.0,
					"hidden" : 1,
					"id" : "obj-284",
					"maxclass" : "newobj",
					"numinlets" : 2,
					"numoutlets" : 3,
					"outlettype" : [ "bang", "bang", "int" ],
					"patching_rect" : [ 144.0, -151.0, 46.0, 20.0 ],
					"style" : "",
					"text" : "uzi 8"
				}

			}
, 			{
				"box" : 				{
					"fontname" : "Arial Bold",
					"fontsize" : 10.0,
					"hidden" : 1,
					"id" : "obj-79",
					"maxclass" : "newobj",
					"numinlets" : 2,
					"numoutlets" : 1,
					"outlettype" : [ "int" ],
					"patching_rect" : [ 185.0, -110.0, 61.0, 20.0 ],
					"style" : "",
					"text" : "random 72"
				}

			}
, 			{
				"box" : 				{
					"fontname" : "Arial Bold",
					"fontsize" : 8.0,
					"hidden" : 1,
					"id" : "obj-64",
					"linecount" : 2,
					"maxclass" : "newobj",
					"numinlets" : 1,
					"numoutlets" : 1,
					"outlettype" : [ "" ],
					"patching_rect" : [ 1311.0, 110.0, 44.0, 26.0 ],
					"style" : "",
					"text" : "prepend extra2 8"
				}

			}
, 			{
				"box" : 				{
					"fontname" : "Arial Bold",
					"fontsize" : 8.0,
					"hidden" : 1,
					"id" : "obj-63",
					"linecount" : 2,
					"maxclass" : "newobj",
					"numinlets" : 1,
					"numoutlets" : 1,
					"outlettype" : [ "" ],
					"patching_rect" : [ 1255.0, 110.0, 44.0, 26.0 ],
					"style" : "",
					"text" : "prepend extra2 7"
				}

			}
, 			{
				"box" : 				{
					"fontname" : "Arial Bold",
					"fontsize" : 8.0,
					"hidden" : 1,
					"id" : "obj-62",
					"linecount" : 2,
					"maxclass" : "newobj",
					"numinlets" : 1,
					"numoutlets" : 1,
					"outlettype" : [ "" ],
					"patching_rect" : [ 1199.0, 110.0, 44.0, 26.0 ],
					"style" : "",
					"text" : "prepend extra2 6"
				}

			}
, 			{
				"box" : 				{
					"fontname" : "Arial Bold",
					"fontsize" : 8.0,
					"hidden" : 1,
					"id" : "obj-61",
					"linecount" : 2,
					"maxclass" : "newobj",
					"numinlets" : 1,
					"numoutlets" : 1,
					"outlettype" : [ "" ],
					"patching_rect" : [ 1143.0, 110.0, 44.0, 26.0 ],
					"style" : "",
					"text" : "prepend extra2 5"
				}

			}
, 			{
				"box" : 				{
					"fontname" : "Arial Bold",
					"fontsize" : 8.0,
					"hidden" : 1,
					"id" : "obj-60",
					"linecount" : 2,
					"maxclass" : "newobj",
					"numinlets" : 1,
					"numoutlets" : 1,
					"outlettype" : [ "" ],
					"patching_rect" : [ 1087.0, 110.0, 44.0, 26.0 ],
					"style" : "",
					"text" : "prepend extra2 4"
				}

			}
, 			{
				"box" : 				{
					"fontname" : "Arial Bold",
					"fontsize" : 8.0,
					"hidden" : 1,
					"id" : "obj-59",
					"linecount" : 2,
					"maxclass" : "newobj",
					"numinlets" : 1,
					"numoutlets" : 1,
					"outlettype" : [ "" ],
					"patching_rect" : [ 1031.0, 110.0, 44.0, 26.0 ],
					"style" : "",
					"text" : "prepend extra2 3"
				}

			}
, 			{
				"box" : 				{
					"fontname" : "Arial Bold",
					"fontsize" : 8.0,
					"hidden" : 1,
					"id" : "obj-58",
					"linecount" : 2,
					"maxclass" : "newobj",
					"numinlets" : 1,
					"numoutlets" : 1,
					"outlettype" : [ "" ],
					"patching_rect" : [ 975.0, 110.0, 44.0, 26.0 ],
					"style" : "",
					"text" : "prepend extra2 2"
				}

			}
, 			{
				"box" : 				{
					"fontname" : "Arial Bold",
					"fontsize" : 8.0,
					"hidden" : 1,
					"id" : "obj-57",
					"linecount" : 2,
					"maxclass" : "newobj",
					"numinlets" : 1,
					"numoutlets" : 1,
					"outlettype" : [ "" ],
					"patching_rect" : [ 851.0, 110.0, 49.0, 26.0 ],
					"style" : "",
					"text" : "prepend velocity 8"
				}

			}
, 			{
				"box" : 				{
					"fontname" : "Arial Bold",
					"fontsize" : 8.0,
					"hidden" : 1,
					"id" : "obj-52",
					"linecount" : 2,
					"maxclass" : "newobj",
					"numinlets" : 1,
					"numoutlets" : 1,
					"outlettype" : [ "" ],
					"patching_rect" : [ 795.0, 110.0, 49.0, 26.0 ],
					"style" : "",
					"text" : "prepend velocity 7"
				}

			}
, 			{
				"box" : 				{
					"fontname" : "Arial Bold",
					"fontsize" : 8.0,
					"hidden" : 1,
					"id" : "obj-56",
					"linecount" : 2,
					"maxclass" : "newobj",
					"numinlets" : 1,
					"numoutlets" : 1,
					"outlettype" : [ "" ],
					"patching_rect" : [ 739.0, 110.0, 49.0, 26.0 ],
					"style" : "",
					"text" : "prepend velocity 6"
				}

			}
, 			{
				"box" : 				{
					"fontname" : "Arial Bold",
					"fontsize" : 8.0,
					"hidden" : 1,
					"id" : "obj-50",
					"linecount" : 2,
					"maxclass" : "newobj",
					"numinlets" : 1,
					"numoutlets" : 1,
					"outlettype" : [ "" ],
					"patching_rect" : [ 683.0, 109.0, 49.0, 26.0 ],
					"style" : "",
					"text" : "prepend velocity 5"
				}

			}
, 			{
				"box" : 				{
					"fontname" : "Arial Bold",
					"fontsize" : 8.0,
					"hidden" : 1,
					"id" : "obj-51",
					"linecount" : 2,
					"maxclass" : "newobj",
					"numinlets" : 1,
					"numoutlets" : 1,
					"outlettype" : [ "" ],
					"patching_rect" : [ 627.0, 110.0, 49.0, 26.0 ],
					"style" : "",
					"text" : "prepend velocity 4"
				}

			}
, 			{
				"box" : 				{
					"fontname" : "Arial Bold",
					"fontsize" : 8.0,
					"hidden" : 1,
					"id" : "obj-49",
					"linecount" : 2,
					"maxclass" : "newobj",
					"numinlets" : 1,
					"numoutlets" : 1,
					"outlettype" : [ "" ],
					"patching_rect" : [ 571.0, 110.0, 49.0, 26.0 ],
					"style" : "",
					"text" : "prepend velocity 3"
				}

			}
, 			{
				"box" : 				{
					"fontname" : "Arial Bold",
					"fontsize" : 8.0,
					"hidden" : 1,
					"id" : "obj-48",
					"linecount" : 2,
					"maxclass" : "newobj",
					"numinlets" : 1,
					"numoutlets" : 1,
					"outlettype" : [ "" ],
					"patching_rect" : [ 515.0, 110.0, 49.0, 26.0 ],
					"style" : "",
					"text" : "prepend velocity 2"
				}

			}
, 			{
				"box" : 				{
					"fontname" : "Arial Bold",
					"fontsize" : 8.0,
					"hidden" : 1,
					"id" : "obj-41",
					"maxclass" : "newobj",
					"numinlets" : 2,
					"numoutlets" : 1,
					"outlettype" : [ "int" ],
					"patching_rect" : [ 394.0, 90.0, 31.0, 17.0 ],
					"style" : "",
					"text" : "+ 60"
				}

			}
, 			{
				"box" : 				{
					"fontname" : "Arial Bold",
					"fontsize" : 8.0,
					"hidden" : 1,
					"id" : "obj-42",
					"linecount" : 2,
					"maxclass" : "newobj",
					"numinlets" : 1,
					"numoutlets" : 1,
					"outlettype" : [ "" ],
					"patching_rect" : [ 394.0, 110.0, 43.0, 26.0 ],
					"style" : "",
					"text" : "prepend pitch 8"
				}

			}
, 			{
				"box" : 				{
					"fontname" : "Arial Bold",
					"fontsize" : 8.0,
					"hidden" : 1,
					"id" : "obj-38",
					"maxclass" : "newobj",
					"numinlets" : 2,
					"numoutlets" : 1,
					"outlettype" : [ "int" ],
					"patching_rect" : [ 338.0, 90.0, 31.0, 17.0 ],
					"style" : "",
					"text" : "+ 60"
				}

			}
, 			{
				"box" : 				{
					"fontname" : "Arial Bold",
					"fontsize" : 8.0,
					"hidden" : 1,
					"id" : "obj-40",
					"linecount" : 2,
					"maxclass" : "newobj",
					"numinlets" : 1,
					"numoutlets" : 1,
					"outlettype" : [ "" ],
					"patching_rect" : [ 338.0, 110.0, 43.0, 26.0 ],
					"style" : "",
					"text" : "prepend pitch 7"
				}

			}
, 			{
				"box" : 				{
					"fontname" : "Arial Bold",
					"fontsize" : 8.0,
					"hidden" : 1,
					"id" : "obj-36",
					"maxclass" : "newobj",
					"numinlets" : 2,
					"numoutlets" : 1,
					"outlettype" : [ "int" ],
					"patching_rect" : [ 282.0, 90.0, 31.0, 17.0 ],
					"style" : "",
					"text" : "+ 60"
				}

			}
, 			{
				"box" : 				{
					"fontname" : "Arial Bold",
					"fontsize" : 8.0,
					"hidden" : 1,
					"id" : "obj-37",
					"linecount" : 2,
					"maxclass" : "newobj",
					"numinlets" : 1,
					"numoutlets" : 1,
					"outlettype" : [ "" ],
					"patching_rect" : [ 283.0, 110.0, 43.0, 26.0 ],
					"style" : "",
					"text" : "prepend pitch 6"
				}

			}
, 			{
				"box" : 				{
					"fontname" : "Arial Bold",
					"fontsize" : 8.0,
					"hidden" : 1,
					"id" : "obj-34",
					"maxclass" : "newobj",
					"numinlets" : 2,
					"numoutlets" : 1,
					"outlettype" : [ "int" ],
					"patching_rect" : [ 226.0, 90.0, 31.0, 17.0 ],
					"style" : "",
					"text" : "+ 60"
				}

			}
, 			{
				"box" : 				{
					"fontname" : "Arial Bold",
					"fontsize" : 8.0,
					"hidden" : 1,
					"id" : "obj-35",
					"linecount" : 2,
					"maxclass" : "newobj",
					"numinlets" : 1,
					"numoutlets" : 1,
					"outlettype" : [ "" ],
					"patching_rect" : [ 226.0, 110.0, 43.0, 26.0 ],
					"style" : "",
					"text" : "prepend pitch 5"
				}

			}
, 			{
				"box" : 				{
					"fontname" : "Arial Bold",
					"fontsize" : 8.0,
					"hidden" : 1,
					"id" : "obj-32",
					"maxclass" : "newobj",
					"numinlets" : 2,
					"numoutlets" : 1,
					"outlettype" : [ "int" ],
					"patching_rect" : [ 170.0, 90.0, 31.0, 17.0 ],
					"style" : "",
					"text" : "+ 60"
				}

			}
, 			{
				"box" : 				{
					"fontname" : "Arial Bold",
					"fontsize" : 8.0,
					"hidden" : 1,
					"id" : "obj-33",
					"linecount" : 2,
					"maxclass" : "newobj",
					"numinlets" : 1,
					"numoutlets" : 1,
					"outlettype" : [ "" ],
					"patching_rect" : [ 170.0, 110.0, 43.0, 26.0 ],
					"style" : "",
					"text" : "prepend pitch 4"
				}

			}
, 			{
				"box" : 				{
					"fontname" : "Arial Bold",
					"fontsize" : 8.0,
					"hidden" : 1,
					"id" : "obj-30",
					"maxclass" : "newobj",
					"numinlets" : 2,
					"numoutlets" : 1,
					"outlettype" : [ "int" ],
					"patching_rect" : [ 114.0, 90.0, 31.0, 17.0 ],
					"style" : "",
					"text" : "+ 60"
				}

			}
, 			{
				"box" : 				{
					"fontname" : "Arial Bold",
					"fontsize" : 8.0,
					"hidden" : 1,
					"id" : "obj-31",
					"linecount" : 2,
					"maxclass" : "newobj",
					"numinlets" : 1,
					"numoutlets" : 1,
					"outlettype" : [ "" ],
					"patching_rect" : [ 114.0, 110.0, 43.0, 26.0 ],
					"style" : "",
					"text" : "prepend pitch 3"
				}

			}
, 			{
				"box" : 				{
					"fontname" : "Arial Bold",
					"fontsize" : 8.0,
					"hidden" : 1,
					"id" : "obj-28",
					"maxclass" : "newobj",
					"numinlets" : 2,
					"numoutlets" : 1,
					"outlettype" : [ "int" ],
					"patching_rect" : [ 58.0, 90.0, 31.0, 17.0 ],
					"style" : "",
					"text" : "+ 60"
				}

			}
, 			{
				"box" : 				{
					"fontname" : "Arial Bold",
					"fontsize" : 8.0,
					"hidden" : 1,
					"id" : "obj-29",
					"linecount" : 2,
					"maxclass" : "newobj",
					"numinlets" : 1,
					"numoutlets" : 1,
					"outlettype" : [ "" ],
					"patching_rect" : [ 58.0, 110.0, 43.0, 26.0 ],
					"style" : "",
					"text" : "prepend pitch 2"
				}

			}
, 			{
				"box" : 				{
					"fontname" : "Arial",
					"fontsize" : 12.0,
					"hidden" : 1,
					"id" : "obj-21",
					"maxclass" : "newobj",
					"numinlets" : 1,
					"numoutlets" : 0,
					"patching_rect" : [ 135.0, 299.0, 61.0, 22.0 ],
					"style" : "",
					"text" : "s ---toseq"
				}

			}
, 			{
				"box" : 				{
					"fontname" : "Arial Bold",
					"fontsize" : 8.0,
					"hidden" : 1,
					"id" : "obj-24",
					"linecount" : 2,
					"maxclass" : "newobj",
					"numinlets" : 1,
					"numoutlets" : 1,
					"outlettype" : [ "" ],
					"patching_rect" : [ 919.0, 110.0, 47.0, 26.0 ],
					"style" : "",
					"text" : "prepend extra2 1"
				}

			}
, 			{
				"box" : 				{
					"fontname" : "Arial Bold",
					"fontsize" : 8.0,
					"hidden" : 1,
					"id" : "obj-25",
					"linecount" : 2,
					"maxclass" : "newobj",
					"numinlets" : 1,
					"numoutlets" : 1,
					"outlettype" : [ "" ],
					"patching_rect" : [ 459.0, 110.0, 49.0, 26.0 ],
					"style" : "",
					"text" : "prepend velocity 1"
				}

			}
, 			{
				"box" : 				{
					"fontname" : "Arial Bold",
					"fontsize" : 8.0,
					"hidden" : 1,
					"id" : "obj-26",
					"maxclass" : "newobj",
					"numinlets" : 2,
					"numoutlets" : 1,
					"outlettype" : [ "int" ],
					"patching_rect" : [ 2.0, 90.0, 31.0, 17.0 ],
					"style" : "",
					"text" : "+ 60"
				}

			}
, 			{
				"box" : 				{
					"fontname" : "Arial Bold",
					"fontsize" : 8.0,
					"hidden" : 1,
					"id" : "obj-27",
					"linecount" : 2,
					"maxclass" : "newobj",
					"numinlets" : 1,
					"numoutlets" : 1,
					"outlettype" : [ "" ],
					"patching_rect" : [ 2.0, 110.0, 44.0, 26.0 ],
					"style" : "",
					"text" : "prepend pitch 1"
				}

			}
, 			{
				"box" : 				{
					"fontname" : "Arial",
					"fontsize" : 9.0,
					"hidden" : 1,
					"id" : "obj-23",
					"maxclass" : "message",
					"numinlets" : 2,
					"numoutlets" : 1,
					"outlettype" : [ "" ],
					"patching_rect" : [ 60.0, -177.0, 32.0, 19.0 ],
					"style" : "",
					"text" : "-917."
				}

			}
, 			{
				"box" : 				{
					"fontname" : "Arial",
					"fontsize" : 9.0,
					"hidden" : 1,
					"id" : "obj-177",
					"maxclass" : "message",
					"numinlets" : 2,
					"numoutlets" : 1,
					"outlettype" : [ "" ],
					"patching_rect" : [ 38.0, -129.0, 31.0, 19.0 ],
					"style" : "",
					"text" : "$1 0."
				}

			}
, 			{
				"box" : 				{
					"fontname" : "Arial",
					"fontsize" : 9.0,
					"hidden" : 1,
					"id" : "obj-207",
					"maxclass" : "message",
					"numinlets" : 2,
					"numoutlets" : 1,
					"outlettype" : [ "" ],
					"patching_rect" : [ 38.0, -158.0, 32.0, 19.0 ],
					"style" : "",
					"text" : "-457."
				}

			}
, 			{
				"box" : 				{
					"fontname" : "Arial",
					"fontsize" : 9.0,
					"hidden" : 1,
					"id" : "obj-236",
					"maxclass" : "message",
					"numinlets" : 2,
					"numoutlets" : 1,
					"outlettype" : [ "" ],
					"patching_rect" : [ 17.0, -178.0, 28.0, 19.0 ],
					"style" : "",
					"text" : "0."
				}

			}
, 			{
				"box" : 				{
					"fontname" : "Arial",
					"fontsize" : 9.0,
					"hidden" : 1,
					"id" : "obj-251",
					"maxclass" : "newobj",
					"numinlets" : 4,
					"numoutlets" : 4,
					"outlettype" : [ "bang", "bang", "bang", "" ],
					"patching_rect" : [ 17.0, -202.0, 83.0, 19.0 ],
					"style" : "",
					"text" : "select 0 1 2"
				}

			}
, 			{
				"box" : 				{
					"fontname" : "Arial",
					"fontsize" : 9.0,
					"hidden" : 1,
					"id" : "obj-254",
					"maxclass" : "newobj",
					"numinlets" : 1,
					"numoutlets" : 1,
					"outlettype" : [ "" ],
					"patching_rect" : [ 38.0, -106.0, 69.0, 19.0 ],
					"style" : "",
					"text" : "prepend offset"
				}

			}
, 			{
				"box" : 				{
					"fontname" : "Arial",
					"fontsize" : 9.0,
					"hidden" : 1,
					"id" : "obj-22",
					"maxclass" : "newobj",
					"numinlets" : 0,
					"numoutlets" : 1,
					"outlettype" : [ "" ],
					"patching_rect" : [ 17.0, -227.0, 64.0, 19.0 ],
					"style" : "",
					"text" : "r ---dialswitch"
				}

			}
, 			{
				"box" : 				{
					"fontname" : "Arial",
					"fontsize" : 9.0,
					"hidden" : 1,
					"id" : "obj-20",
					"maxclass" : "newobj",
					"numinlets" : 1,
					"numoutlets" : 2,
					"outlettype" : [ "", "" ],
					"patching_rect" : [ 38.0, -83.0, 55.0, 19.0 ],
					"save" : [ "#N", "thispatcher", ";", "#Q", "end", ";" ],
					"style" : "",
					"text" : "thispatcher"
				}

			}
, 			{
				"box" : 				{
					"activedialcolor" : [ 0.848527, 0.909661, 0.909804, 1.0 ],
					"activeneedlecolor" : [ 0.848527, 0.909661, 0.909804, 1.0 ],
					"annotation" : "Adjusts the value of the \"Aux\" layer for the respective stage. You can assign a CC number for the Aux layer in the advanced options.",
					"appearance" : 2,
					"bordercolor" : [ 0.27451, 0.32549, 0.4, 0.0 ],
					"dialcolor" : [ 0.752941, 0.784314, 0.839216, 0.25 ],
					"fontface" : 0,
					"fontname" : "Akkurat Light Pro Regular",
					"id" : "obj-12",
					"maxclass" : "live.dial",
					"needlecolor" : [ 0.321569, 0.321569, 0.321569, 0.25 ],
					"numinlets" : 1,
					"numoutlets" : 2,
					"outlettype" : [ "", "float" ],
					"panelcolor" : [ 0.85098, 0.870588, 0.890196, 0.0 ],
					"parameter_enable" : 1,
					"patching_rect" : [ 1311.0, 2.0, 50.0, 80.0 ],
					"presentation" : 1,
					"presentation_rect" : [ 1316.0, 2.0, 50.0, 80.0 ],
					"saved_attribute_attributes" : 					{
						"valueof" : 						{
							"parameter_linknames" : 1,
							"parameter_longname" : "AuxDial8",
							"parameter_shortname" : "Aux8",
							"parameter_type" : 1,
							"parameter_initial_enable" : 1,
							"parameter_initial" : [ 0 ],
							"parameter_unitstyle" : 0,
							"parameter_steps" : 128,
							"parameter_speedlim" : 0.0
						}

					}
,
					"showname" : 0,
					"textcolor" : [ 0.848527, 0.909661, 0.909804, 1.0 ],
					"tribordercolor" : [ 0.196078, 0.196078, 0.196078, 0.28 ],
					"tricolor" : [ 0.6, 0.6, 0.6, 0.32 ],
					"varname" : "AuxDial8"
				}

			}
, 			{
				"box" : 				{
					"activedialcolor" : [ 0.848527, 0.909661, 0.909804, 1.0 ],
					"activeneedlecolor" : [ 0.848527, 0.909661, 0.909804, 1.0 ],
					"annotation" : "Adjusts the value of the \"Aux\" layer for the respective stage. You can assign a CC number for the Aux layer in the advanced options.",
					"appearance" : 2,
					"bordercolor" : [ 0.27451, 0.32549, 0.4, 0.0 ],
					"dialcolor" : [ 0.752941, 0.784314, 0.839216, 0.25 ],
					"fontface" : 0,
					"fontname" : "Akkurat Light Pro Regular",
					"id" : "obj-13",
					"maxclass" : "live.dial",
					"needlecolor" : [ 0.321569, 0.321569, 0.321569, 0.25 ],
					"numinlets" : 1,
					"numoutlets" : 2,
					"outlettype" : [ "", "float" ],
					"panelcolor" : [ 0.85098, 0.870588, 0.890196, 0.0 ],
					"parameter_enable" : 1,
					"patching_rect" : [ 1255.0, 2.0, 50.0, 80.0 ],
					"presentation" : 1,
					"presentation_rect" : [ 1260.0, 2.0, 50.0, 80.0 ],
					"saved_attribute_attributes" : 					{
						"valueof" : 						{
							"parameter_linknames" : 1,
							"parameter_longname" : "AuxDial7",
							"parameter_shortname" : "Aux7",
							"parameter_type" : 1,
							"parameter_initial_enable" : 1,
							"parameter_initial" : [ 0 ],
							"parameter_unitstyle" : 0,
							"parameter_steps" : 128,
							"parameter_speedlim" : 0.0
						}

					}
,
					"showname" : 0,
					"textcolor" : [ 0.848527, 0.909661, 0.909804, 1.0 ],
					"tribordercolor" : [ 0.196078, 0.196078, 0.196078, 0.28 ],
					"tricolor" : [ 0.6, 0.6, 0.6, 0.32 ],
					"varname" : "AuxDial7"
				}

			}
, 			{
				"box" : 				{
					"activedialcolor" : [ 0.848527, 0.909661, 0.909804, 1.0 ],
					"activeneedlecolor" : [ 0.848527, 0.909661, 0.909804, 1.0 ],
					"annotation" : "Adjusts the value of the \"Aux\" layer for the respective stage. You can assign a CC number for the Aux layer in the advanced options.",
					"appearance" : 2,
					"bordercolor" : [ 0.27451, 0.32549, 0.4, 0.0 ],
					"dialcolor" : [ 0.752941, 0.784314, 0.839216, 0.25 ],
					"fontface" : 0,
					"fontname" : "Akkurat Light Pro Regular",
					"id" : "obj-14",
					"maxclass" : "live.dial",
					"needlecolor" : [ 0.321569, 0.321569, 0.321569, 0.25 ],
					"numinlets" : 1,
					"numoutlets" : 2,
					"outlettype" : [ "", "float" ],
					"panelcolor" : [ 0.85098, 0.870588, 0.890196, 0.0 ],
					"parameter_enable" : 1,
					"patching_rect" : [ 1199.0, 2.0, 50.0, 80.0 ],
					"presentation" : 1,
					"presentation_rect" : [ 1204.0, 2.0, 50.0, 80.0 ],
					"saved_attribute_attributes" : 					{
						"valueof" : 						{
							"parameter_linknames" : 1,
							"parameter_longname" : "AuxDial6",
							"parameter_shortname" : "Aux6",
							"parameter_type" : 1,
							"parameter_initial_enable" : 1,
							"parameter_initial" : [ 0 ],
							"parameter_unitstyle" : 0,
							"parameter_steps" : 128,
							"parameter_speedlim" : 0.0
						}

					}
,
					"showname" : 0,
					"textcolor" : [ 0.848527, 0.909661, 0.909804, 1.0 ],
					"tribordercolor" : [ 0.196078, 0.196078, 0.196078, 0.28 ],
					"tricolor" : [ 0.6, 0.6, 0.6, 0.32 ],
					"varname" : "AuxDial6"
				}

			}
, 			{
				"box" : 				{
					"activedialcolor" : [ 0.848527, 0.909661, 0.909804, 1.0 ],
					"activeneedlecolor" : [ 0.848527, 0.909661, 0.909804, 1.0 ],
					"annotation" : "Adjusts the value of the \"Aux\" layer for the respective stage. You can assign a CC number for the Aux layer in the advanced options.",
					"appearance" : 2,
					"bordercolor" : [ 0.27451, 0.32549, 0.4, 0.0 ],
					"dialcolor" : [ 0.752941, 0.784314, 0.839216, 0.25 ],
					"fontface" : 0,
					"fontname" : "Akkurat Light Pro Regular",
					"id" : "obj-15",
					"maxclass" : "live.dial",
					"needlecolor" : [ 0.321569, 0.321569, 0.321569, 0.25 ],
					"numinlets" : 1,
					"numoutlets" : 2,
					"outlettype" : [ "", "float" ],
					"panelcolor" : [ 0.85098, 0.870588, 0.890196, 0.0 ],
					"parameter_enable" : 1,
					"patching_rect" : [ 1143.0, 2.0, 50.0, 80.0 ],
					"presentation" : 1,
					"presentation_rect" : [ 1148.0, 2.0, 50.0, 80.0 ],
					"saved_attribute_attributes" : 					{
						"valueof" : 						{
							"parameter_linknames" : 1,
							"parameter_longname" : "AuxDial5",
							"parameter_shortname" : "Aux5",
							"parameter_type" : 1,
							"parameter_initial_enable" : 1,
							"parameter_initial" : [ 0 ],
							"parameter_unitstyle" : 0,
							"parameter_steps" : 128,
							"parameter_speedlim" : 0.0
						}

					}
,
					"showname" : 0,
					"textcolor" : [ 0.848527, 0.909661, 0.909804, 1.0 ],
					"tribordercolor" : [ 0.196078, 0.196078, 0.196078, 0.28 ],
					"tricolor" : [ 0.6, 0.6, 0.6, 0.32 ],
					"varname" : "AuxDial5"
				}

			}
, 			{
				"box" : 				{
					"activedialcolor" : [ 0.848527, 0.909661, 0.909804, 1.0 ],
					"activeneedlecolor" : [ 0.848527, 0.909661, 0.909804, 1.0 ],
					"annotation" : "Adjusts the value of the \"Aux\" layer for the respective stage. You can assign a CC number for the Aux layer in the advanced options.",
					"appearance" : 2,
					"bordercolor" : [ 0.27451, 0.32549, 0.4, 0.0 ],
					"dialcolor" : [ 0.752941, 0.784314, 0.839216, 0.25 ],
					"fontface" : 0,
					"fontname" : "Akkurat Light Pro Regular",
					"id" : "obj-16",
					"maxclass" : "live.dial",
					"needlecolor" : [ 0.321569, 0.321569, 0.321569, 0.25 ],
					"numinlets" : 1,
					"numoutlets" : 2,
					"outlettype" : [ "", "float" ],
					"panelcolor" : [ 0.85098, 0.870588, 0.890196, 0.0 ],
					"parameter_enable" : 1,
					"patching_rect" : [ 1087.0, 2.0, 50.0, 80.0 ],
					"presentation" : 1,
					"presentation_rect" : [ 1092.0, 2.0, 50.0, 80.0 ],
					"saved_attribute_attributes" : 					{
						"valueof" : 						{
							"parameter_linknames" : 1,
							"parameter_longname" : "AuxDial4",
							"parameter_shortname" : "Aux4",
							"parameter_type" : 1,
							"parameter_initial_enable" : 1,
							"parameter_initial" : [ 0 ],
							"parameter_unitstyle" : 0,
							"parameter_steps" : 128,
							"parameter_speedlim" : 0.0
						}

					}
,
					"showname" : 0,
					"textcolor" : [ 0.848527, 0.909661, 0.909804, 1.0 ],
					"tribordercolor" : [ 0.196078, 0.196078, 0.196078, 0.28 ],
					"tricolor" : [ 0.6, 0.6, 0.6, 0.32 ],
					"varname" : "AuxDial4"
				}

			}
, 			{
				"box" : 				{
					"activedialcolor" : [ 0.848527, 0.909661, 0.909804, 1.0 ],
					"activeneedlecolor" : [ 0.848527, 0.909661, 0.909804, 1.0 ],
					"annotation" : "Adjusts the value of the \"Aux\" layer for the respective stage. You can assign a CC number for the Aux layer in the advanced options.",
					"appearance" : 2,
					"bordercolor" : [ 0.27451, 0.32549, 0.4, 0.0 ],
					"dialcolor" : [ 0.752941, 0.784314, 0.839216, 0.25 ],
					"fontface" : 0,
					"fontname" : "Akkurat Light Pro Regular",
					"id" : "obj-17",
					"maxclass" : "live.dial",
					"needlecolor" : [ 0.321569, 0.321569, 0.321569, 0.25 ],
					"numinlets" : 1,
					"numoutlets" : 2,
					"outlettype" : [ "", "float" ],
					"panelcolor" : [ 0.85098, 0.870588, 0.890196, 0.0 ],
					"parameter_enable" : 1,
					"patching_rect" : [ 1031.0, 2.0, 50.0, 80.0 ],
					"presentation" : 1,
					"presentation_rect" : [ 1036.0, 2.0, 50.0, 80.0 ],
					"saved_attribute_attributes" : 					{
						"valueof" : 						{
							"parameter_linknames" : 1,
							"parameter_longname" : "AuxDial3",
							"parameter_shortname" : "Aux3",
							"parameter_type" : 1,
							"parameter_initial_enable" : 1,
							"parameter_initial" : [ 0 ],
							"parameter_unitstyle" : 0,
							"parameter_steps" : 128,
							"parameter_speedlim" : 0.0
						}

					}
,
					"showname" : 0,
					"textcolor" : [ 0.848527, 0.909661, 0.909804, 1.0 ],
					"tribordercolor" : [ 0.196078, 0.196078, 0.196078, 0.28 ],
					"tricolor" : [ 0.6, 0.6, 0.6, 0.32 ],
					"varname" : "AuxDial3"
				}

			}
, 			{
				"box" : 				{
					"activedialcolor" : [ 0.848527, 0.909661, 0.909804, 1.0 ],
					"activeneedlecolor" : [ 0.848527, 0.909661, 0.909804, 1.0 ],
					"annotation" : "Adjusts the value of the \"Aux\" layer for the respective stage. You can assign a CC number for the Aux layer in the advanced options.",
					"appearance" : 2,
					"bordercolor" : [ 0.27451, 0.32549, 0.4, 0.0 ],
					"dialcolor" : [ 0.752941, 0.784314, 0.839216, 0.25 ],
					"fontface" : 0,
					"fontname" : "Akkurat Light Pro Regular",
					"id" : "obj-18",
					"maxclass" : "live.dial",
					"needlecolor" : [ 0.321569, 0.321569, 0.321569, 0.25 ],
					"numinlets" : 1,
					"numoutlets" : 2,
					"outlettype" : [ "", "float" ],
					"panelcolor" : [ 0.85098, 0.870588, 0.890196, 0.0 ],
					"parameter_enable" : 1,
					"patching_rect" : [ 975.0, 2.0, 50.0, 80.0 ],
					"presentation" : 1,
					"presentation_rect" : [ 980.0, 2.0, 50.0, 80.0 ],
					"saved_attribute_attributes" : 					{
						"valueof" : 						{
							"parameter_linknames" : 1,
							"parameter_longname" : "AuxDial2",
							"parameter_shortname" : "Aux2",
							"parameter_type" : 1,
							"parameter_initial_enable" : 1,
							"parameter_initial" : [ 0 ],
							"parameter_unitstyle" : 0,
							"parameter_steps" : 128,
							"parameter_speedlim" : 0.0
						}

					}
,
					"showname" : 0,
					"textcolor" : [ 0.848527, 0.909661, 0.909804, 1.0 ],
					"tribordercolor" : [ 0.196078, 0.196078, 0.196078, 0.28 ],
					"tricolor" : [ 0.6, 0.6, 0.6, 0.32 ],
					"varname" : "AuxDial2"
				}

			}
, 			{
				"box" : 				{
					"activedialcolor" : [ 0.848527, 0.909661, 0.909804, 1.0 ],
					"activeneedlecolor" : [ 0.848527, 0.909661, 0.909804, 1.0 ],
					"annotation" : "Adjusts the value of the \"Aux\" layer for the respective stage. You can assign a CC number for the Aux layer in the advanced options.",
					"appearance" : 2,
					"bordercolor" : [ 0.27451, 0.32549, 0.4, 0.0 ],
					"dialcolor" : [ 0.752941, 0.784314, 0.839216, 0.25 ],
					"fontface" : 0,
					"fontname" : "Akkurat Light Pro Regular",
					"id" : "obj-19",
					"maxclass" : "live.dial",
					"needlecolor" : [ 0.321569, 0.321569, 0.321569, 0.25 ],
					"numinlets" : 1,
					"numoutlets" : 2,
					"outlettype" : [ "", "float" ],
					"panelcolor" : [ 0.85098, 0.870588, 0.890196, 0.0 ],
					"parameter_enable" : 1,
					"patching_rect" : [ 919.0, 2.0, 50.0, 80.0 ],
					"presentation" : 1,
					"presentation_rect" : [ 924.0, 2.0, 50.0, 80.0 ],
					"saved_attribute_attributes" : 					{
						"valueof" : 						{
							"parameter_linknames" : 1,
							"parameter_longname" : "AuxDial1",
							"parameter_shortname" : "Aux1",
							"parameter_type" : 1,
							"parameter_initial_enable" : 1,
							"parameter_initial" : [ 0 ],
							"parameter_unitstyle" : 0,
							"parameter_steps" : 128,
							"parameter_speedlim" : 0.0
						}

					}
,
					"showname" : 0,
					"textcolor" : [ 0.848527, 0.909661, 0.909804, 1.0 ],
					"tribordercolor" : [ 0.196078, 0.196078, 0.196078, 0.28 ],
					"tricolor" : [ 0.6, 0.6, 0.6, 0.32 ],
					"varname" : "AuxDial1"
				}

			}
, 			{
				"box" : 				{
					"activedialcolor" : [ 0.848527, 0.909661, 0.909804, 1.0 ],
					"activeneedlecolor" : [ 0.848527, 0.909661, 0.909804, 1.0 ],
					"annotation" : "Adjusts the velocity of the respective stage.",
					"appearance" : 2,
					"bordercolor" : [ 0.27451, 0.32549, 0.4, 0.0 ],
					"dialcolor" : [ 0.752941, 0.784314, 0.839216, 0.25 ],
					"fontface" : 0,
					"fontname" : "Akkurat Light Pro Regular",
					"id" : "obj-4",
					"maxclass" : "live.dial",
					"needlecolor" : [ 0.321569, 0.321569, 0.321569, 0.25 ],
					"numinlets" : 1,
					"numoutlets" : 2,
					"outlettype" : [ "", "float" ],
					"panelcolor" : [ 0.85098, 0.870588, 0.890196, 0.0 ],
					"parameter_enable" : 1,
					"patching_rect" : [ 851.0, 2.0, 53.0, 80.0 ],
					"presentation" : 1,
					"presentation_rect" : [ 851.0, 2.0, 53.0, 80.0 ],
					"saved_attribute_attributes" : 					{
						"valueof" : 						{
							"parameter_linknames" : 1,
							"parameter_longname" : "VelocityDial8",
							"parameter_shortname" : "Velocity8",
							"parameter_type" : 1,
							"parameter_initial_enable" : 1,
							"parameter_initial" : [ 120 ],
							"parameter_unitstyle" : 0,
							"parameter_steps" : 128,
							"parameter_speedlim" : 0.0
						}

					}
,
					"showname" : 0,
					"textcolor" : [ 0.848527, 0.909661, 0.909804, 1.0 ],
					"tribordercolor" : [ 0.196078, 0.196078, 0.196078, 0.28 ],
					"tricolor" : [ 0.6, 0.6, 0.6, 0.32 ],
					"varname" : "VelocityDial8"
				}

			}
, 			{
				"box" : 				{
					"activedialcolor" : [ 0.848527, 0.909661, 0.909804, 1.0 ],
					"activeneedlecolor" : [ 0.848527, 0.909661, 0.909804, 1.0 ],
					"annotation" : "Adjusts the velocity of the respective stage.",
					"appearance" : 2,
					"bordercolor" : [ 0.27451, 0.32549, 0.4, 0.0 ],
					"dialcolor" : [ 0.752941, 0.784314, 0.839216, 0.25 ],
					"fontface" : 0,
					"fontname" : "Akkurat Light Pro Regular",
					"id" : "obj-5",
					"maxclass" : "live.dial",
					"needlecolor" : [ 0.321569, 0.321569, 0.321569, 0.25 ],
					"numinlets" : 1,
					"numoutlets" : 2,
					"outlettype" : [ "", "float" ],
					"panelcolor" : [ 0.85098, 0.870588, 0.890196, 0.0 ],
					"parameter_enable" : 1,
					"patching_rect" : [ 795.0, 2.0, 53.0, 80.0 ],
					"presentation" : 1,
					"presentation_rect" : [ 795.0, 2.0, 53.0, 80.0 ],
					"saved_attribute_attributes" : 					{
						"valueof" : 						{
							"parameter_linknames" : 1,
							"parameter_longname" : "VelocityDial7",
							"parameter_shortname" : "Velocity7",
							"parameter_type" : 1,
							"parameter_initial_enable" : 1,
							"parameter_initial" : [ 120 ],
							"parameter_unitstyle" : 0,
							"parameter_steps" : 128,
							"parameter_speedlim" : 0.0
						}

					}
,
					"showname" : 0,
					"textcolor" : [ 0.848527, 0.909661, 0.909804, 1.0 ],
					"tribordercolor" : [ 0.196078, 0.196078, 0.196078, 0.28 ],
					"tricolor" : [ 0.6, 0.6, 0.6, 0.32 ],
					"varname" : "VelocityDial7"
				}

			}
, 			{
				"box" : 				{
					"activedialcolor" : [ 0.848527, 0.909661, 0.909804, 1.0 ],
					"activeneedlecolor" : [ 0.848527, 0.909661, 0.909804, 1.0 ],
					"annotation" : "Adjusts the velocity of the respective stage.",
					"appearance" : 2,
					"bordercolor" : [ 0.27451, 0.32549, 0.4, 0.0 ],
					"dialcolor" : [ 0.752941, 0.784314, 0.839216, 0.25 ],
					"fontface" : 0,
					"fontname" : "Akkurat Light Pro Regular",
					"id" : "obj-6",
					"maxclass" : "live.dial",
					"needlecolor" : [ 0.321569, 0.321569, 0.321569, 0.25 ],
					"numinlets" : 1,
					"numoutlets" : 2,
					"outlettype" : [ "", "float" ],
					"panelcolor" : [ 0.85098, 0.870588, 0.890196, 0.0 ],
					"parameter_enable" : 1,
					"patching_rect" : [ 739.0, 2.0, 53.0, 80.0 ],
					"presentation" : 1,
					"presentation_rect" : [ 739.0, 2.0, 53.0, 80.0 ],
					"saved_attribute_attributes" : 					{
						"valueof" : 						{
							"parameter_linknames" : 1,
							"parameter_longname" : "VelocityDial6",
							"parameter_shortname" : "Velocity6",
							"parameter_type" : 1,
							"parameter_initial_enable" : 1,
							"parameter_initial" : [ 120 ],
							"parameter_unitstyle" : 0,
							"parameter_steps" : 128,
							"parameter_speedlim" : 0.0
						}

					}
,
					"showname" : 0,
					"textcolor" : [ 0.848527, 0.909661, 0.909804, 1.0 ],
					"tribordercolor" : [ 0.196078, 0.196078, 0.196078, 0.28 ],
					"tricolor" : [ 0.6, 0.6, 0.6, 0.32 ],
					"varname" : "VelocityDial6"
				}

			}
, 			{
				"box" : 				{
					"activedialcolor" : [ 0.848527, 0.909661, 0.909804, 1.0 ],
					"activeneedlecolor" : [ 0.848527, 0.909661, 0.909804, 1.0 ],
					"annotation" : "Adjusts the velocity of the respective stage.",
					"appearance" : 2,
					"bordercolor" : [ 0.27451, 0.32549, 0.4, 0.0 ],
					"dialcolor" : [ 0.752941, 0.784314, 0.839216, 0.25 ],
					"fontface" : 0,
					"fontname" : "Akkurat Light Pro Regular",
					"id" : "obj-7",
					"maxclass" : "live.dial",
					"needlecolor" : [ 0.321569, 0.321569, 0.321569, 0.25 ],
					"numinlets" : 1,
					"numoutlets" : 2,
					"outlettype" : [ "", "float" ],
					"panelcolor" : [ 0.85098, 0.870588, 0.890196, 0.0 ],
					"parameter_enable" : 1,
					"patching_rect" : [ 683.0, 2.0, 53.0, 80.0 ],
					"presentation" : 1,
					"presentation_rect" : [ 683.0, 2.0, 53.0, 80.0 ],
					"saved_attribute_attributes" : 					{
						"valueof" : 						{
							"parameter_linknames" : 1,
							"parameter_longname" : "VelocityDial5",
							"parameter_shortname" : "Velocity5",
							"parameter_type" : 1,
							"parameter_initial_enable" : 1,
							"parameter_initial" : [ 120 ],
							"parameter_unitstyle" : 0,
							"parameter_steps" : 128,
							"parameter_speedlim" : 0.0
						}

					}
,
					"showname" : 0,
					"textcolor" : [ 0.848527, 0.909661, 0.909804, 1.0 ],
					"tribordercolor" : [ 0.196078, 0.196078, 0.196078, 0.28 ],
					"tricolor" : [ 0.6, 0.6, 0.6, 0.32 ],
					"varname" : "VelocityDial5"
				}

			}
, 			{
				"box" : 				{
					"activedialcolor" : [ 0.848527, 0.909661, 0.909804, 1.0 ],
					"activeneedlecolor" : [ 0.848527, 0.909661, 0.909804, 1.0 ],
					"annotation" : "Adjusts the velocity of the respective stage.",
					"appearance" : 2,
					"bordercolor" : [ 0.27451, 0.32549, 0.4, 0.0 ],
					"dialcolor" : [ 0.752941, 0.784314, 0.839216, 0.25 ],
					"fontface" : 0,
					"fontname" : "Akkurat Light Pro Regular",
					"id" : "obj-8",
					"maxclass" : "live.dial",
					"needlecolor" : [ 0.321569, 0.321569, 0.321569, 0.25 ],
					"numinlets" : 1,
					"numoutlets" : 2,
					"outlettype" : [ "", "float" ],
					"panelcolor" : [ 0.85098, 0.870588, 0.890196, 0.0 ],
					"parameter_enable" : 1,
					"patching_rect" : [ 627.0, 2.0, 53.0, 80.0 ],
					"presentation" : 1,
					"presentation_rect" : [ 627.0, 2.0, 53.0, 80.0 ],
					"saved_attribute_attributes" : 					{
						"valueof" : 						{
							"parameter_linknames" : 1,
							"parameter_longname" : "VelocityDial4",
							"parameter_shortname" : "Velocity4",
							"parameter_type" : 1,
							"parameter_initial_enable" : 1,
							"parameter_initial" : [ 120 ],
							"parameter_unitstyle" : 0,
							"parameter_steps" : 128,
							"parameter_speedlim" : 0.0
						}

					}
,
					"showname" : 0,
					"textcolor" : [ 0.848527, 0.909661, 0.909804, 1.0 ],
					"tribordercolor" : [ 0.196078, 0.196078, 0.196078, 0.28 ],
					"tricolor" : [ 0.6, 0.6, 0.6, 0.32 ],
					"varname" : "VelocityDial4"
				}

			}
, 			{
				"box" : 				{
					"activedialcolor" : [ 0.848527, 0.909661, 0.909804, 1.0 ],
					"activeneedlecolor" : [ 0.848527, 0.909661, 0.909804, 1.0 ],
					"annotation" : "Adjusts the velocity of the respective stage.",
					"appearance" : 2,
					"bordercolor" : [ 0.27451, 0.32549, 0.4, 0.0 ],
					"dialcolor" : [ 0.752941, 0.784314, 0.839216, 0.25 ],
					"fontface" : 0,
					"fontname" : "Akkurat Light Pro Regular",
					"id" : "obj-9",
					"maxclass" : "live.dial",
					"needlecolor" : [ 0.321569, 0.321569, 0.321569, 0.25 ],
					"numinlets" : 1,
					"numoutlets" : 2,
					"outlettype" : [ "", "float" ],
					"panelcolor" : [ 0.85098, 0.870588, 0.890196, 0.0 ],
					"parameter_enable" : 1,
					"patching_rect" : [ 571.0, 2.0, 53.0, 80.0 ],
					"presentation" : 1,
					"presentation_rect" : [ 571.0, 2.0, 53.0, 80.0 ],
					"saved_attribute_attributes" : 					{
						"valueof" : 						{
							"parameter_linknames" : 1,
							"parameter_longname" : "VelocityDial3",
							"parameter_shortname" : "Velocity3",
							"parameter_type" : 1,
							"parameter_initial_enable" : 1,
							"parameter_initial" : [ 120 ],
							"parameter_unitstyle" : 0,
							"parameter_steps" : 128,
							"parameter_speedlim" : 0.0
						}

					}
,
					"showname" : 0,
					"textcolor" : [ 0.848527, 0.909661, 0.909804, 1.0 ],
					"tribordercolor" : [ 0.196078, 0.196078, 0.196078, 0.28 ],
					"tricolor" : [ 0.6, 0.6, 0.6, 0.32 ],
					"varname" : "VelocityDial3"
				}

			}
, 			{
				"box" : 				{
					"activedialcolor" : [ 0.848527, 0.909661, 0.909804, 1.0 ],
					"activeneedlecolor" : [ 0.848527, 0.909661, 0.909804, 1.0 ],
					"annotation" : "Adjusts the velocity of the respective stage.",
					"appearance" : 2,
					"bordercolor" : [ 0.27451, 0.32549, 0.4, 0.0 ],
					"dialcolor" : [ 0.752941, 0.784314, 0.839216, 0.25 ],
					"fontface" : 0,
					"fontname" : "Akkurat Light Pro Regular",
					"id" : "obj-10",
					"maxclass" : "live.dial",
					"needlecolor" : [ 0.321569, 0.321569, 0.321569, 0.25 ],
					"numinlets" : 1,
					"numoutlets" : 2,
					"outlettype" : [ "", "float" ],
					"panelcolor" : [ 0.85098, 0.870588, 0.890196, 0.0 ],
					"parameter_enable" : 1,
					"patching_rect" : [ 515.0, 2.0, 53.0, 80.0 ],
					"presentation" : 1,
					"presentation_rect" : [ 515.0, 2.0, 53.0, 80.0 ],
					"saved_attribute_attributes" : 					{
						"valueof" : 						{
							"parameter_linknames" : 1,
							"parameter_longname" : "VelocityDial2",
							"parameter_shortname" : "Velocity2",
							"parameter_type" : 1,
							"parameter_initial_enable" : 1,
							"parameter_initial" : [ 120 ],
							"parameter_unitstyle" : 0,
							"parameter_steps" : 128,
							"parameter_speedlim" : 0.0
						}

					}
,
					"showname" : 0,
					"textcolor" : [ 0.848527, 0.909661, 0.909804, 1.0 ],
					"tribordercolor" : [ 0.196078, 0.196078, 0.196078, 0.28 ],
					"tricolor" : [ 0.6, 0.6, 0.6, 0.32 ],
					"varname" : "VelocityDial2"
				}

			}
, 			{
				"box" : 				{
					"activedialcolor" : [ 0.848527, 0.909661, 0.909804, 1.0 ],
					"activeneedlecolor" : [ 0.848527, 0.909661, 0.909804, 1.0 ],
					"annotation" : "Adjusts the velocity of the respective stage.",
					"appearance" : 2,
					"bordercolor" : [ 0.27451, 0.32549, 0.4, 0.0 ],
					"dialcolor" : [ 0.752941, 0.784314, 0.839216, 0.25 ],
					"fontface" : 0,
					"fontname" : "Akkurat Light Pro Regular",
					"id" : "obj-11",
					"maxclass" : "live.dial",
					"needlecolor" : [ 0.321569, 0.321569, 0.321569, 0.25 ],
					"numinlets" : 1,
					"numoutlets" : 2,
					"outlettype" : [ "", "float" ],
					"panelcolor" : [ 0.85098, 0.870588, 0.890196, 0.0 ],
					"parameter_enable" : 1,
					"patching_rect" : [ 459.0, 2.0, 53.0, 80.0 ],
					"presentation" : 1,
					"presentation_rect" : [ 459.0, 2.0, 53.0, 80.0 ],
					"saved_attribute_attributes" : 					{
						"valueof" : 						{
							"parameter_linknames" : 1,
							"parameter_longname" : "VelocityDial1",
							"parameter_shortname" : "Velocity1",
							"parameter_type" : 1,
							"parameter_initial_enable" : 1,
							"parameter_initial" : [ 120 ],
							"parameter_unitstyle" : 0,
							"parameter_steps" : 128,
							"parameter_speedlim" : 0.0
						}

					}
,
					"showname" : 0,
					"textcolor" : [ 0.848527, 0.909661, 0.909804, 1.0 ],
					"tribordercolor" : [ 0.196078, 0.196078, 0.196078, 0.28 ],
					"tricolor" : [ 0.6, 0.6, 0.6, 0.32 ],
					"varname" : "VelocityDial1"
				}

			}
 ],
		"lines" : [ 			{
				"patchline" : 				{
					"destination" : [ "obj-26", 0 ],
					"disabled" : 0,
					"hidden" : 1,
					"source" : [ "obj-1", 0 ]
				}

			}
, 			{
				"patchline" : 				{
					"destination" : [ "obj-48", 0 ],
					"disabled" : 0,
					"hidden" : 1,
					"source" : [ "obj-10", 0 ]
				}

			}
, 			{
				"patchline" : 				{
					"destination" : [ "obj-25", 0 ],
					"disabled" : 0,
					"hidden" : 1,
					"source" : [ "obj-11", 0 ]
				}

			}
, 			{
				"patchline" : 				{
					"destination" : [ "obj-64", 0 ],
					"disabled" : 0,
					"hidden" : 1,
					"source" : [ "obj-12", 0 ]
				}

			}
, 			{
				"patchline" : 				{
					"destination" : [ "obj-63", 0 ],
					"disabled" : 0,
					"hidden" : 1,
					"source" : [ "obj-13", 0 ]
				}

			}
, 			{
				"patchline" : 				{
					"destination" : [ "obj-62", 0 ],
					"disabled" : 0,
					"hidden" : 1,
					"source" : [ "obj-14", 0 ]
				}

			}
, 			{
				"patchline" : 				{
					"destination" : [ "obj-61", 0 ],
					"disabled" : 0,
					"hidden" : 1,
					"source" : [ "obj-15", 0 ]
				}

			}
, 			{
				"patchline" : 				{
					"destination" : [ "obj-60", 0 ],
					"disabled" : 0,
					"hidden" : 1,
					"source" : [ "obj-16", 0 ]
				}

			}
, 			{
				"patchline" : 				{
					"destination" : [ "obj-59", 0 ],
					"disabled" : 0,
					"hidden" : 1,
					"source" : [ "obj-17", 0 ]
				}

			}
, 			{
				"patchline" : 				{
					"destination" : [ "obj-254", 0 ],
					"disabled" : 0,
					"hidden" : 1,
					"source" : [ "obj-177", 0 ]
				}

			}
, 			{
				"patchline" : 				{
					"destination" : [ "obj-58", 0 ],
					"disabled" : 0,
					"hidden" : 1,
					"source" : [ "obj-18", 0 ]
				}

			}
, 			{
				"patchline" : 				{
					"destination" : [ "obj-24", 0 ],
					"disabled" : 0,
					"hidden" : 1,
					"source" : [ "obj-19", 0 ]
				}

			}
, 			{
				"patchline" : 				{
					"destination" : [ "obj-28", 0 ],
					"disabled" : 0,
					"hidden" : 1,
					"source" : [ "obj-2", 0 ]
				}

			}
, 			{
				"patchline" : 				{
					"destination" : [ "obj-177", 0 ],
					"disabled" : 0,
					"hidden" : 1,
					"source" : [ "obj-207", 0 ]
				}

			}
, 			{
				"patchline" : 				{
					"destination" : [ "obj-251", 0 ],
					"disabled" : 0,
					"hidden" : 1,
					"source" : [ "obj-22", 0 ]
				}

			}
, 			{
				"patchline" : 				{
					"destination" : [ "obj-73", 0 ],
					"disabled" : 0,
					"hidden" : 1,
					"midpoints" : [ 26.5, -205.0, 397.5, -205.0 ],
					"source" : [ "obj-22", 0 ]
				}

			}
, 			{
				"patchline" : 				{
					"destination" : [ "obj-177", 0 ],
					"disabled" : 0,
					"hidden" : 1,
					"source" : [ "obj-23", 0 ]
				}

			}
, 			{
				"patchline" : 				{
					"destination" : [ "obj-177", 0 ],
					"disabled" : 0,
					"hidden" : 1,
					"source" : [ "obj-236", 0 ]
				}

			}
, 			{
				"patchline" : 				{
					"destination" : [ "obj-21", 0 ],
					"disabled" : 0,
					"hidden" : 1,
					"midpoints" : [ 928.5, 285.0, 144.5, 285.0 ],
					"source" : [ "obj-24", 0 ]
				}

			}
, 			{
				"patchline" : 				{
					"destination" : [ "obj-21", 0 ],
					"disabled" : 0,
					"hidden" : 1,
					"midpoints" : [ 468.5, 285.0, 144.5, 285.0 ],
					"source" : [ "obj-25", 0 ]
				}

			}
, 			{
				"patchline" : 				{
					"destination" : [ "obj-207", 0 ],
					"disabled" : 0,
					"hidden" : 1,
					"source" : [ "obj-251", 1 ]
				}

			}
, 			{
				"patchline" : 				{
					"destination" : [ "obj-23", 0 ],
					"disabled" : 0,
					"hidden" : 1,
					"source" : [ "obj-251", 2 ]
				}

			}
, 			{
				"patchline" : 				{
					"destination" : [ "obj-236", 0 ],
					"disabled" : 0,
					"hidden" : 1,
					"source" : [ "obj-251", 0 ]
				}

			}
, 			{
				"patchline" : 				{
					"destination" : [ "obj-20", 0 ],
					"disabled" : 0,
					"hidden" : 1,
					"source" : [ "obj-254", 0 ]
				}

			}
, 			{
				"patchline" : 				{
					"destination" : [ "obj-27", 0 ],
					"disabled" : 0,
					"hidden" : 1,
					"source" : [ "obj-26", 0 ]
				}

			}
, 			{
				"patchline" : 				{
					"destination" : [ "obj-21", 0 ],
					"disabled" : 0,
					"hidden" : 1,
					"midpoints" : [ 11.5, 285.0, 144.5, 285.0 ],
					"source" : [ "obj-27", 0 ]
				}

			}
, 			{
				"patchline" : 				{
					"destination" : [ "obj-29", 0 ],
					"disabled" : 0,
					"hidden" : 1,
					"source" : [ "obj-28", 0 ]
				}

			}
, 			{
				"patchline" : 				{
					"destination" : [ "obj-290", 0 ],
					"disabled" : 0,
					"hidden" : 1,
					"source" : [ "obj-284", 2 ]
				}

			}
, 			{
				"patchline" : 				{
					"destination" : [ "obj-286", 0 ],
					"disabled" : 0,
					"hidden" : 1,
					"source" : [ "obj-285", 0 ]
				}

			}
, 			{
				"patchline" : 				{
					"destination" : [ "obj-1", 0 ],
					"disabled" : 0,
					"hidden" : 1,
					"source" : [ "obj-286", 0 ]
				}

			}
, 			{
				"patchline" : 				{
					"destination" : [ "obj-2", 0 ],
					"disabled" : 0,
					"hidden" : 1,
					"source" : [ "obj-286", 1 ]
				}

			}
, 			{
				"patchline" : 				{
					"destination" : [ "obj-3", 0 ],
					"disabled" : 0,
					"hidden" : 1,
					"source" : [ "obj-286", 2 ]
				}

			}
, 			{
				"patchline" : 				{
					"destination" : [ "obj-39", 0 ],
					"disabled" : 0,
					"hidden" : 1,
					"source" : [ "obj-286", 3 ]
				}

			}
, 			{
				"patchline" : 				{
					"destination" : [ "obj-43", 0 ],
					"disabled" : 0,
					"hidden" : 1,
					"source" : [ "obj-286", 7 ]
				}

			}
, 			{
				"patchline" : 				{
					"destination" : [ "obj-53", 0 ],
					"disabled" : 0,
					"hidden" : 1,
					"source" : [ "obj-286", 6 ]
				}

			}
, 			{
				"patchline" : 				{
					"destination" : [ "obj-54", 0 ],
					"disabled" : 0,
					"hidden" : 1,
					"source" : [ "obj-286", 5 ]
				}

			}
, 			{
				"patchline" : 				{
					"destination" : [ "obj-55", 0 ],
					"disabled" : 0,
					"hidden" : 1,
					"source" : [ "obj-286", 4 ]
				}

			}
, 			{
				"patchline" : 				{
					"destination" : [ "obj-21", 0 ],
					"disabled" : 0,
					"hidden" : 1,
					"midpoints" : [ 67.5, 285.0, 144.5, 285.0 ],
					"source" : [ "obj-29", 0 ]
				}

			}
, 			{
				"patchline" : 				{
					"destination" : [ "obj-285", 0 ],
					"disabled" : 0,
					"hidden" : 1,
					"source" : [ "obj-290", 0 ]
				}

			}
, 			{
				"patchline" : 				{
					"destination" : [ "obj-79", 0 ],
					"disabled" : 0,
					"hidden" : 1,
					"source" : [ "obj-290", 1 ]
				}

			}
, 			{
				"patchline" : 				{
					"destination" : [ "obj-30", 0 ],
					"disabled" : 0,
					"hidden" : 1,
					"source" : [ "obj-3", 0 ]
				}

			}
, 			{
				"patchline" : 				{
					"destination" : [ "obj-31", 0 ],
					"disabled" : 0,
					"hidden" : 1,
					"source" : [ "obj-30", 0 ]
				}

			}
, 			{
				"patchline" : 				{
					"destination" : [ "obj-21", 0 ],
					"disabled" : 0,
					"hidden" : 1,
					"midpoints" : [ 123.5, 285.0, 144.5, 285.0 ],
					"source" : [ "obj-31", 0 ]
				}

			}
, 			{
				"patchline" : 				{
					"destination" : [ "obj-33", 0 ],
					"disabled" : 0,
					"hidden" : 1,
					"source" : [ "obj-32", 0 ]
				}

			}
, 			{
				"patchline" : 				{
					"destination" : [ "obj-21", 0 ],
					"disabled" : 0,
					"hidden" : 1,
					"midpoints" : [ 179.5, 285.0, 144.5, 285.0 ],
					"source" : [ "obj-33", 0 ]
				}

			}
, 			{
				"patchline" : 				{
					"destination" : [ "obj-35", 0 ],
					"disabled" : 0,
					"hidden" : 1,
					"source" : [ "obj-34", 0 ]
				}

			}
, 			{
				"patchline" : 				{
					"destination" : [ "obj-21", 0 ],
					"disabled" : 0,
					"hidden" : 1,
					"midpoints" : [ 235.5, 285.0, 144.5, 285.0 ],
					"source" : [ "obj-35", 0 ]
				}

			}
, 			{
				"patchline" : 				{
					"destination" : [ "obj-37", 0 ],
					"disabled" : 0,
					"hidden" : 1,
					"source" : [ "obj-36", 0 ]
				}

			}
, 			{
				"patchline" : 				{
					"destination" : [ "obj-21", 0 ],
					"disabled" : 0,
					"hidden" : 1,
					"midpoints" : [ 292.5, 285.0, 144.5, 285.0 ],
					"source" : [ "obj-37", 0 ]
				}

			}
, 			{
				"patchline" : 				{
					"destination" : [ "obj-40", 0 ],
					"disabled" : 0,
					"hidden" : 1,
					"source" : [ "obj-38", 0 ]
				}

			}
, 			{
				"patchline" : 				{
					"destination" : [ "obj-32", 0 ],
					"disabled" : 0,
					"hidden" : 1,
					"source" : [ "obj-39", 0 ]
				}

			}
, 			{
				"patchline" : 				{
					"destination" : [ "obj-57", 0 ],
					"disabled" : 0,
					"hidden" : 1,
					"source" : [ "obj-4", 0 ]
				}

			}
, 			{
				"patchline" : 				{
					"destination" : [ "obj-21", 0 ],
					"disabled" : 0,
					"hidden" : 1,
					"midpoints" : [ 347.5, 285.0, 144.5, 285.0 ],
					"source" : [ "obj-40", 0 ]
				}

			}
, 			{
				"patchline" : 				{
					"destination" : [ "obj-42", 0 ],
					"disabled" : 0,
					"hidden" : 1,
					"source" : [ "obj-41", 0 ]
				}

			}
, 			{
				"patchline" : 				{
					"destination" : [ "obj-21", 0 ],
					"disabled" : 0,
					"hidden" : 1,
					"midpoints" : [ 403.5, 285.0, 144.5, 285.0 ],
					"source" : [ "obj-42", 0 ]
				}

			}
, 			{
				"patchline" : 				{
					"destination" : [ "obj-41", 0 ],
					"disabled" : 0,
					"hidden" : 1,
					"source" : [ "obj-43", 0 ]
				}

			}
, 			{
				"patchline" : 				{
					"destination" : [ "obj-72", 1 ],
					"disabled" : 0,
					"hidden" : 1,
					"source" : [ "obj-44", 0 ]
				}

			}
, 			{
				"patchline" : 				{
					"destination" : [ "obj-21", 0 ],
					"disabled" : 0,
					"hidden" : 1,
					"midpoints" : [ 524.5, 285.0, 144.5, 285.0 ],
					"source" : [ "obj-48", 0 ]
				}

			}
, 			{
				"patchline" : 				{
					"destination" : [ "obj-21", 0 ],
					"disabled" : 0,
					"hidden" : 1,
					"midpoints" : [ 580.5, 285.0, 144.5, 285.0 ],
					"source" : [ "obj-49", 0 ]
				}

			}
, 			{
				"patchline" : 				{
					"destination" : [ "obj-52", 0 ],
					"disabled" : 0,
					"hidden" : 1,
					"source" : [ "obj-5", 0 ]
				}

			}
, 			{
				"patchline" : 				{
					"destination" : [ "obj-21", 0 ],
					"disabled" : 0,
					"hidden" : 1,
					"midpoints" : [ 692.5, 285.0, 144.5, 285.0 ],
					"source" : [ "obj-50", 0 ]
				}

			}
, 			{
				"patchline" : 				{
					"destination" : [ "obj-21", 0 ],
					"disabled" : 0,
					"hidden" : 1,
					"midpoints" : [ 636.5, 285.0, 144.5, 285.0 ],
					"source" : [ "obj-51", 0 ]
				}

			}
, 			{
				"patchline" : 				{
					"destination" : [ "obj-21", 0 ],
					"disabled" : 0,
					"hidden" : 1,
					"midpoints" : [ 804.5, 285.0, 144.5, 285.0 ],
					"source" : [ "obj-52", 0 ]
				}

			}
, 			{
				"patchline" : 				{
					"destination" : [ "obj-38", 0 ],
					"disabled" : 0,
					"hidden" : 1,
					"source" : [ "obj-53", 0 ]
				}

			}
, 			{
				"patchline" : 				{
					"destination" : [ "obj-36", 0 ],
					"disabled" : 0,
					"hidden" : 1,
					"source" : [ "obj-54", 0 ]
				}

			}
, 			{
				"patchline" : 				{
					"destination" : [ "obj-34", 0 ],
					"disabled" : 0,
					"hidden" : 1,
					"source" : [ "obj-55", 0 ]
				}

			}
, 			{
				"patchline" : 				{
					"destination" : [ "obj-21", 0 ],
					"disabled" : 0,
					"hidden" : 1,
					"midpoints" : [ 748.5, 285.0, 144.5, 285.0 ],
					"source" : [ "obj-56", 0 ]
				}

			}
, 			{
				"patchline" : 				{
					"destination" : [ "obj-21", 0 ],
					"disabled" : 0,
					"hidden" : 1,
					"midpoints" : [ 860.5, 285.0, 144.5, 285.0 ],
					"source" : [ "obj-57", 0 ]
				}

			}
, 			{
				"patchline" : 				{
					"destination" : [ "obj-21", 0 ],
					"disabled" : 0,
					"hidden" : 1,
					"midpoints" : [ 984.5, 285.0, 144.5, 285.0 ],
					"source" : [ "obj-58", 0 ]
				}

			}
, 			{
				"patchline" : 				{
					"destination" : [ "obj-21", 0 ],
					"disabled" : 0,
					"hidden" : 1,
					"midpoints" : [ 1040.5, 285.0, 144.5, 285.0 ],
					"source" : [ "obj-59", 0 ]
				}

			}
, 			{
				"patchline" : 				{
					"destination" : [ "obj-56", 0 ],
					"disabled" : 0,
					"hidden" : 1,
					"source" : [ "obj-6", 0 ]
				}

			}
, 			{
				"patchline" : 				{
					"destination" : [ "obj-21", 0 ],
					"disabled" : 0,
					"hidden" : 1,
					"midpoints" : [ 1096.5, 285.0, 144.5, 285.0 ],
					"source" : [ "obj-60", 0 ]
				}

			}
, 			{
				"patchline" : 				{
					"destination" : [ "obj-21", 0 ],
					"disabled" : 0,
					"hidden" : 1,
					"midpoints" : [ 1152.5, 285.0, 144.5, 285.0 ],
					"source" : [ "obj-61", 0 ]
				}

			}
, 			{
				"patchline" : 				{
					"destination" : [ "obj-21", 0 ],
					"disabled" : 0,
					"hidden" : 1,
					"midpoints" : [ 1208.5, 285.0, 144.5, 285.0 ],
					"source" : [ "obj-62", 0 ]
				}

			}
, 			{
				"patchline" : 				{
					"destination" : [ "obj-21", 0 ],
					"disabled" : 0,
					"hidden" : 1,
					"midpoints" : [ 1264.5, 285.0, 144.5, 285.0 ],
					"source" : [ "obj-63", 0 ]
				}

			}
, 			{
				"patchline" : 				{
					"destination" : [ "obj-21", 0 ],
					"disabled" : 0,
					"hidden" : 1,
					"midpoints" : [ 1320.5, 285.0, 144.5, 285.0 ],
					"source" : [ "obj-64", 0 ]
				}

			}
, 			{
				"patchline" : 				{
					"destination" : [ "obj-10", 0 ],
					"disabled" : 0,
					"hidden" : 1,
					"source" : [ "obj-65", 1 ]
				}

			}
, 			{
				"patchline" : 				{
					"destination" : [ "obj-11", 0 ],
					"disabled" : 0,
					"hidden" : 1,
					"source" : [ "obj-65", 0 ]
				}

			}
, 			{
				"patchline" : 				{
					"destination" : [ "obj-4", 0 ],
					"disabled" : 0,
					"hidden" : 1,
					"source" : [ "obj-65", 7 ]
				}

			}
, 			{
				"patchline" : 				{
					"destination" : [ "obj-5", 0 ],
					"disabled" : 0,
					"hidden" : 1,
					"source" : [ "obj-65", 6 ]
				}

			}
, 			{
				"patchline" : 				{
					"destination" : [ "obj-6", 0 ],
					"disabled" : 0,
					"hidden" : 1,
					"source" : [ "obj-65", 5 ]
				}

			}
, 			{
				"patchline" : 				{
					"destination" : [ "obj-7", 0 ],
					"disabled" : 0,
					"hidden" : 1,
					"source" : [ "obj-65", 4 ]
				}

			}
, 			{
				"patchline" : 				{
					"destination" : [ "obj-8", 0 ],
					"disabled" : 0,
					"hidden" : 1,
					"source" : [ "obj-65", 3 ]
				}

			}
, 			{
				"patchline" : 				{
					"destination" : [ "obj-9", 0 ],
					"disabled" : 0,
					"hidden" : 1,
					"source" : [ "obj-65", 2 ]
				}

			}
, 			{
				"patchline" : 				{
					"destination" : [ "obj-12", 0 ],
					"disabled" : 0,
					"hidden" : 1,
					"source" : [ "obj-66", 7 ]
				}

			}
, 			{
				"patchline" : 				{
					"destination" : [ "obj-13", 0 ],
					"disabled" : 0,
					"hidden" : 1,
					"source" : [ "obj-66", 6 ]
				}

			}
, 			{
				"patchline" : 				{
					"destination" : [ "obj-14", 0 ],
					"disabled" : 0,
					"hidden" : 1,
					"source" : [ "obj-66", 5 ]
				}

			}
, 			{
				"patchline" : 				{
					"destination" : [ "obj-15", 0 ],
					"disabled" : 0,
					"hidden" : 1,
					"source" : [ "obj-66", 4 ]
				}

			}
, 			{
				"patchline" : 				{
					"destination" : [ "obj-16", 0 ],
					"disabled" : 0,
					"hidden" : 1,
					"source" : [ "obj-66", 3 ]
				}

			}
, 			{
				"patchline" : 				{
					"destination" : [ "obj-17", 0 ],
					"disabled" : 0,
					"hidden" : 1,
					"source" : [ "obj-66", 2 ]
				}

			}
, 			{
				"patchline" : 				{
					"destination" : [ "obj-18", 0 ],
					"disabled" : 0,
					"hidden" : 1,
					"source" : [ "obj-66", 1 ]
				}

			}
, 			{
				"patchline" : 				{
					"destination" : [ "obj-19", 0 ],
					"disabled" : 0,
					"hidden" : 1,
					"source" : [ "obj-66", 0 ]
				}

			}
, 			{
				"patchline" : 				{
					"destination" : [ "obj-50", 0 ],
					"disabled" : 0,
					"hidden" : 1,
					"source" : [ "obj-7", 0 ]
				}

			}
, 			{
				"patchline" : 				{
					"destination" : [ "obj-285", 1 ],
					"disabled" : 0,
					"hidden" : 1,
					"source" : [ "obj-71", 0 ]
				}

			}
, 			{
				"patchline" : 				{
					"destination" : [ "obj-284", 0 ],
					"disabled" : 0,
					"hidden" : 1,
					"midpoints" : [ 397.5, -156.0, 153.5, -156.0 ],
					"source" : [ "obj-72", 0 ]
				}

			}
, 			{
				"patchline" : 				{
					"destination" : [ "obj-77", 0 ],
					"disabled" : 0,
					"hidden" : 1,
					"midpoints" : [ 411.0, -144.0, 611.5, -144.0 ],
					"source" : [ "obj-72", 1 ]
				}

			}
, 			{
				"patchline" : 				{
					"destination" : [ "obj-82", 0 ],
					"disabled" : 0,
					"hidden" : 1,
					"midpoints" : [ 424.5, -156.0, 1065.5, -156.0 ],
					"source" : [ "obj-72", 2 ]
				}

			}
, 			{
				"patchline" : 				{
					"destination" : [ "obj-72", 0 ],
					"disabled" : 0,
					"hidden" : 1,
					"source" : [ "obj-73", 0 ]
				}

			}
, 			{
				"patchline" : 				{
					"destination" : [ "obj-76", 0 ],
					"disabled" : 0,
					"hidden" : 1,
					"source" : [ "obj-75", 0 ]
				}

			}
, 			{
				"patchline" : 				{
					"destination" : [ "obj-78", 0 ],
					"disabled" : 0,
					"hidden" : 1,
					"source" : [ "obj-75", 1 ]
				}

			}
, 			{
				"patchline" : 				{
					"destination" : [ "obj-65", 0 ],
					"disabled" : 0,
					"hidden" : 1,
					"source" : [ "obj-76", 0 ]
				}

			}
, 			{
				"patchline" : 				{
					"destination" : [ "obj-75", 0 ],
					"disabled" : 0,
					"hidden" : 1,
					"source" : [ "obj-77", 2 ]
				}

			}
, 			{
				"patchline" : 				{
					"destination" : [ "obj-76", 1 ],
					"disabled" : 0,
					"hidden" : 1,
					"source" : [ "obj-78", 0 ]
				}

			}
, 			{
				"patchline" : 				{
					"destination" : [ "obj-71", 0 ],
					"disabled" : 0,
					"hidden" : 1,
					"source" : [ "obj-79", 0 ]
				}

			}
, 			{
				"patchline" : 				{
					"destination" : [ "obj-51", 0 ],
					"disabled" : 0,
					"hidden" : 1,
					"source" : [ "obj-8", 0 ]
				}

			}
, 			{
				"patchline" : 				{
					"destination" : [ "obj-81", 0 ],
					"disabled" : 0,
					"hidden" : 1,
					"source" : [ "obj-80", 0 ]
				}

			}
, 			{
				"patchline" : 				{
					"destination" : [ "obj-83", 0 ],
					"disabled" : 0,
					"hidden" : 1,
					"source" : [ "obj-80", 1 ]
				}

			}
, 			{
				"patchline" : 				{
					"destination" : [ "obj-66", 0 ],
					"disabled" : 0,
					"hidden" : 1,
					"source" : [ "obj-81", 0 ]
				}

			}
, 			{
				"patchline" : 				{
					"destination" : [ "obj-80", 0 ],
					"disabled" : 0,
					"hidden" : 1,
					"source" : [ "obj-82", 2 ]
				}

			}
, 			{
				"patchline" : 				{
					"destination" : [ "obj-81", 1 ],
					"disabled" : 0,
					"hidden" : 1,
					"source" : [ "obj-83", 0 ]
				}

			}
, 			{
				"patchline" : 				{
					"destination" : [ "obj-49", 0 ],
					"disabled" : 0,
					"hidden" : 1,
					"source" : [ "obj-9", 0 ]
				}

			}
 ],
		"parameters" : 		{
			"obj-8" : [ "VelocityDial4", "Velocity4", 0 ],
			"obj-9" : [ "VelocityDial3", "Velocity3", 0 ],
			"obj-10" : [ "VelocityDial2", "Velocity2", 0 ],
			"obj-11" : [ "VelocityDial1", "Velocity1", 0 ],
			"obj-53" : [ "PitchDial7", "Pitch7", 0 ],
			"obj-54" : [ "PitchDial6", "Pitch6", 0 ],
			"obj-55" : [ "PitchDial5", "Pitch5", 0 ],
			"obj-13" : [ "AuxDial7", "Aux7", 0 ],
			"obj-39" : [ "PitchDial4", "Pitch4", 0 ],
			"obj-14" : [ "AuxDial6", "Aux6", 0 ],
			"obj-3" : [ "PitchDial3", "Pitch3", 0 ],
			"obj-15" : [ "AuxDial5", "Aux5", 0 ],
			"obj-2" : [ "PitchDial2", "Pitch2", 0 ],
			"obj-16" : [ "AuxDial4", "Aux4", 0 ],
			"obj-1" : [ "PitchDial1", "Pitch1", 0 ],
			"obj-17" : [ "AuxDial3", "Aux3", 0 ],
			"obj-18" : [ "AuxDial2", "Aux2", 0 ],
			"obj-19" : [ "AuxDial1", "Aux1", 0 ],
			"obj-4" : [ "VelocityDial8", "Velocity8", 0 ],
			"obj-43" : [ "PitchDial8", "Pitch8", 0 ],
			"obj-12" : [ "AuxDial8", "Aux8", 0 ],
			"obj-5" : [ "VelocityDial7", "Velocity7", 0 ],
			"obj-6" : [ "VelocityDial6", "Velocity6", 0 ],
			"obj-7" : [ "VelocityDial5", "Velocity5", 0 ]
		}
,
		"dependency_cache" : [  ],
		"autosave" : 0
	}

}
