{
	"patcher" : 	{
		"fileversion" : 1,
		"appversion" : 		{
			"major" : 7,
			"minor" : 3,
			"revision" : 3,
			"architecture" : "x86",
			"modernui" : 1
		}
,
		"rect" : [ 132.0, 158.0, 915.0, 523.0 ],
		"bgcolor" : [ 0.0, 0.0, 0.0, 1.0 ],
		"editing_bgcolor" : [ 0.0, 0.0, 0.0, 1.0 ],
		"bglocked" : 0,
		"openinpresentation" : 1,
		"default_fontsize" : 12.0,
		"default_fontface" : 0,
		"default_fontname" : "Arial",
		"gridonopen" : 1,
		"gridsize" : [ 15.0, 15.0 ],
		"gridsnaponopen" : 1,
		"objectsnaponopen" : 1,
		"statusbarvisible" : 2,
		"toolbarvisible" : 1,
		"lefttoolbarpinned" : 0,
		"toptoolbarpinned" : 0,
		"righttoolbarpinned" : 0,
		"bottomtoolbarpinned" : 0,
		"toolbars_unpinned_last_save" : 0,
		"tallnewobj" : 0,
		"boxanimatetime" : 200,
		"enablehscroll" : 1,
		"enablevscroll" : 1,
		"devicewidth" : 0.0,
		"description" : "",
		"digest" : "",
		"tags" : "",
		"style" : "",
		"subpatcher_template" : "",
		"boxes" : [ 			{
				"box" : 				{
					"fontname" : "Akkurat-Mono",
					"fontsize" : 10.0,
					"id" : "obj-29",
					"maxclass" : "comment",
					"numinlets" : 1,
					"numoutlets" : 0,
					"patching_rect" : [ 141.0, 96.0, 53.0, 16.0 ],
					"presentation" : 1,
					"presentation_rect" : [ 292.29248, 54.166748, 18.0, 16.0 ],
					"style" : "",
					"text" : "1",
					"textcolor" : [ 0.848527, 0.909661, 0.909804, 1.0 ],
					"textjustification" : 2
				}

			}
, 			{
				"box" : 				{
					"fontname" : "Akkurat-Mono",
					"fontsize" : 10.0,
					"id" : "obj-28",
					"maxclass" : "comment",
					"numinlets" : 1,
					"numoutlets" : 0,
					"patching_rect" : [ 126.0, 81.0, 53.0, 16.0 ],
					"presentation" : 1,
					"presentation_rect" : [ 269.29248, 54.166748, 18.0, 16.0 ],
					"style" : "",
					"text" : "0",
					"textcolor" : [ 0.848527, 0.909661, 0.909804, 1.0 ],
					"textjustification" : 2
				}

			}
, 			{
				"box" : 				{
					"comment" : "1",
					"id" : "obj-27",
					"index" : 0,
					"maxclass" : "outlet",
					"numinlets" : 1,
					"numoutlets" : 0,
					"patching_rect" : [ 370.0, 372.0, 30.0, 30.0 ],
					"style" : ""
				}

			}
, 			{
				"box" : 				{
					"bgcolor" : [ 0.290196, 0.309804, 0.301961, 0.0 ],
					"blinkcolor" : [ 0.895451, 0.915266, 0.884438, 1.0 ],
					"id" : "obj-26",
					"maxclass" : "button",
					"numinlets" : 1,
					"numoutlets" : 1,
					"outlettype" : [ "bang" ],
					"outlinecolor" : [ 0.152941, 0.160784, 0.172549, 0.61 ],
					"patching_rect" : [ 370.0, 326.5, 24.0, 24.0 ],
					"presentation" : 1,
					"presentation_rect" : [ 292.29248, 31.023499, 18.0, 18.0 ],
					"style" : ""
				}

			}
, 			{
				"box" : 				{
					"bgcolor" : [ 0.290196, 0.309804, 0.301961, 0.0 ],
					"blinkcolor" : [ 0.895451, 0.915266, 0.884438, 1.0 ],
					"id" : "obj-25",
					"maxclass" : "button",
					"numinlets" : 1,
					"numoutlets" : 1,
					"outlettype" : [ "bang" ],
					"outlinecolor" : [ 0.152941, 0.160784, 0.172549, 0.61 ],
					"patching_rect" : [ 309.0, 326.5, 24.0, 24.0 ],
					"presentation" : 1,
					"presentation_rect" : [ 269.29248, 31.023499, 18.0, 18.0 ],
					"style" : ""
				}

			}
, 			{
				"box" : 				{
					"id" : "obj-23",
					"maxclass" : "newobj",
					"numinlets" : 2,
					"numoutlets" : 2,
					"outlettype" : [ "bang", "" ],
					"patching_rect" : [ 370.0, 290.0, 52.0, 22.0 ],
					"style" : "",
					"text" : "select 1"
				}

			}
, 			{
				"box" : 				{
					"id" : "obj-22",
					"maxclass" : "newobj",
					"numinlets" : 2,
					"numoutlets" : 2,
					"outlettype" : [ "bang", "" ],
					"patching_rect" : [ 309.0, 290.0, 52.0, 22.0 ],
					"style" : "",
					"text" : "select 0"
				}

			}
, 			{
				"box" : 				{
					"fontname" : "Akkurat-Mono",
					"fontsize" : 10.0,
					"id" : "obj-21",
					"maxclass" : "comment",
					"numinlets" : 1,
					"numoutlets" : 0,
					"patching_rect" : [ 126.0, 81.0, 53.0, 16.0 ],
					"presentation" : 1,
					"presentation_rect" : [ 109.79248, 54.166748, 43.0, 16.0 ],
					"style" : "",
					"text" : "off",
					"textcolor" : [ 0.848527, 0.909661, 0.909804, 1.0 ],
					"textjustification" : 2
				}

			}
, 			{
				"box" : 				{
					"comment" : "OFFSET",
					"id" : "obj-18",
					"index" : 0,
					"maxclass" : "inlet",
					"numinlets" : 0,
					"numoutlets" : 1,
					"outlettype" : [ "" ],
					"patching_rect" : [ 289.0, 45.0, 30.0, 30.0 ],
					"style" : ""
				}

			}
, 			{
				"box" : 				{
					"bgcolor" : [ 0.290196, 0.309804, 0.301961, 0.0 ],
					"fontname" : "Akkurat-Mono",
					"fontsize" : 9.0,
					"format" : 6,
					"id" : "obj-19",
					"maxclass" : "flonum",
					"numinlets" : 1,
					"numoutlets" : 2,
					"outlettype" : [ "", "bang" ],
					"parameter_enable" : 0,
					"patching_rect" : [ 289.0, 94.0, 56.0, 17.0 ],
					"presentation" : 1,
					"presentation_rect" : [ 154.79248, 54.166748, 37.0, 17.0 ],
					"style" : "",
					"textcolor" : [ 0.848527, 0.909661, 0.909804, 1.0 ],
					"tricolor" : [ 0.490196, 0.498039, 0.517647, 0.27 ]
				}

			}
, 			{
				"box" : 				{
					"id" : "obj-101",
					"maxclass" : "newobj",
					"numinlets" : 2,
					"numoutlets" : 1,
					"outlettype" : [ "int" ],
					"patching_rect" : [ 44.700012, 527.266663, 29.5, 22.0 ],
					"style" : "",
					"text" : "+ 1"
				}

			}
, 			{
				"box" : 				{
					"fontname" : "Arial Bold",
					"fontsize" : 10.0,
					"id" : "obj-17",
					"maxclass" : "message",
					"numinlets" : 2,
					"numoutlets" : 1,
					"outlettype" : [ "" ],
					"patching_rect" : [ 111.100006, 558.0, 81.0, 20.0 ],
					"style" : "",
					"text" : "min, set $1 127"
				}

			}
, 			{
				"box" : 				{
					"bgcolor" : [ 0.968627, 0.968627, 0.968627, 0.0 ],
					"hint" : "Set values to control position in the wavetable and sequence through them.",
					"id" : "obj-89",
					"ignoreclick" : 1,
					"maxclass" : "multislider",
					"numinlets" : 1,
					"numoutlets" : 2,
					"outlettype" : [ "", "" ],
					"parameter_enable" : 1,
					"patching_rect" : [ 156.0, 218.0, 172.0, 57.0 ],
					"presentation" : 1,
					"presentation_rect" : [ 55.29248, 10.666748, 208.166656, 40.5 ],
					"saved_attribute_attributes" : 					{
						"valueof" : 						{
							"parameter_longname" : "sequncer",
							"parameter_shortname" : "sequncer",
							"parameter_type" : 3,
							"parameter_initial_enable" : 1,
							"parameter_initial" : [ 0, 0, 0, 0, 0, 0, 0, 0, 0, 0, 0, 0, 0, 0, 0, 0 ],
							"parameter_invisible" : 1
						}

					}
,
					"setminmax" : [ 0.0, 1.0 ],
					"setstyle" : 1,
					"settype" : 0,
					"size" : 16,
					"slidercolor" : [ 0.070588, 0.090196, 0.098039, 0.46 ],
					"style" : "",
					"varname" : "sequncer"
				}

			}
, 			{
				"box" : 				{
					"fontname" : "Akkurat-Mono",
					"fontsize" : 9.0,
					"id" : "obj-6",
					"maxclass" : "comment",
					"numinlets" : 1,
					"numoutlets" : 0,
					"patching_rect" : [ 68.0, 62.0, 53.0, 24.0 ],
					"presentation" : 1,
					"presentation_rect" : [ -2.20752, 7.666748, 53.0, 24.0 ],
					"style" : "",
					"text" : "BINARY\n",
					"textcolor" : [ 0.848527, 0.909661, 0.909804, 1.0 ],
					"textjustification" : 2
				}

			}
, 			{
				"box" : 				{
					"comment" : "0",
					"id" : "obj-5",
					"index" : 0,
					"maxclass" : "outlet",
					"numinlets" : 1,
					"numoutlets" : 0,
					"patching_rect" : [ 309.0, 372.0, 30.0, 30.0 ],
					"style" : ""
				}

			}
, 			{
				"box" : 				{
					"comment" : "counter",
					"id" : "obj-3",
					"index" : 0,
					"maxclass" : "inlet",
					"numinlets" : 0,
					"numoutlets" : 1,
					"outlettype" : [ "" ],
					"patching_rect" : [ 156.0, 11.0, 30.0, 30.0 ],
					"style" : ""
				}

			}
, 			{
				"box" : 				{
					"comment" : "clock",
					"id" : "obj-2",
					"index" : 0,
					"maxclass" : "inlet",
					"numinlets" : 0,
					"numoutlets" : 1,
					"outlettype" : [ "" ],
					"patching_rect" : [ 10.0, 11.0, 30.0, 30.0 ],
					"style" : ""
				}

			}
, 			{
				"box" : 				{
					"fontname" : "Akkurat-Mono",
					"fontsize" : 10.0,
					"id" : "obj-295",
					"maxclass" : "comment",
					"numinlets" : 1,
					"numoutlets" : 0,
					"patching_rect" : [ 111.0, 66.0, 53.0, 16.0 ],
					"presentation" : 1,
					"presentation_rect" : [ 47.29248, 53.166748, 22.5, 16.0 ],
					"style" : "",
					"text" : "#",
					"textcolor" : [ 0.848527, 0.909661, 0.909804, 1.0 ],
					"textjustification" : 2
				}

			}
, 			{
				"box" : 				{
					"bgcolor" : [ 0.290196, 0.309804, 0.301961, 0.0 ],
					"fontname" : "Akkurat-Mono",
					"fontsize" : 10.0,
					"id" : "obj-296",
					"maxclass" : "number",
					"numinlets" : 1,
					"numoutlets" : 2,
					"outlettype" : [ "", "bang" ],
					"parameter_enable" : 0,
					"patching_rect" : [ 97.0, 167.0, 48.0, 18.0 ],
					"presentation" : 1,
					"presentation_rect" : [ 71.79248, 53.166748, 32.0, 18.0 ],
					"style" : "",
					"textcolor" : [ 0.848527, 0.909661, 0.909804, 1.0 ],
					"tricolor" : [ 0.490196, 0.498039, 0.517647, 0.27 ]
				}

			}
, 			{
				"box" : 				{
					"fontface" : 0,
					"fontname" : "Arial",
					"fontsize" : 9.0,
					"id" : "obj-303",
					"maxclass" : "newobj",
					"numinlets" : 5,
					"numoutlets" : 4,
					"outlettype" : [ "int", "", "", "int" ],
					"patching_rect" : [ 53.0, 197.000015, 61.0, 19.0 ],
					"style" : "",
					"text" : "counter 19"
				}

			}
, 			{
				"box" : 				{
					"bgcolor" : [ 0.052478, 0.038747, 0.062737, 1.0 ],
					"candicane2" : [ 0.942601, 0.933517, 1.0, 1.0 ],
					"candicane3" : [ 1.0, 0.990346, 0.986274, 1.0 ],
					"candicane4" : [ 0.987654, 1.0, 1.0, 1.0 ],
					"contdata" : 1,
					"id" : "obj-304",
					"maxclass" : "multislider",
					"numinlets" : 1,
					"numoutlets" : 2,
					"outlettype" : [ "", "" ],
					"parameter_enable" : 0,
					"patching_rect" : [ 156.0, 159.0, 172.0, 57.0 ],
					"presentation" : 1,
					"presentation_rect" : [ 55.29248, 10.666748, 208.166656, 40.5 ],
					"prototypename" : "stretchmulti",
					"setminmax" : [ 0.0, 1.0 ],
					"setstyle" : 1,
					"settype" : 0,
					"size" : 17,
					"slidercolor" : [ 0.152357, 0.014885, 0.123639, 1.0 ],
					"spacing" : 1,
					"style" : ""
				}

			}
, 			{
				"box" : 				{
					"color" : [ 0.836395, 0.811692, 0.839216, 1.0 ],
					"fontname" : "Arial",
					"fontsize" : 9.0,
					"id" : "obj-305",
					"maxclass" : "newobj",
					"numinlets" : 1,
					"numoutlets" : 1,
					"outlettype" : [ "" ],
					"patching_rect" : [ 156.0, 126.500008, 66.0, 19.0 ],
					"style" : "",
					"text" : "prepend fetch"
				}

			}
, 			{
				"box" : 				{
					"angle" : 270.0,
					"bgcolor" : [ 0.290196, 0.309804, 0.301961, 0.0 ],
					"border" : 1,
					"bordercolor" : [ 0.847059, 0.909804, 0.909804, 0.8 ],
					"id" : "obj-8",
					"maxclass" : "panel",
					"mode" : 0,
					"numinlets" : 1,
					"numoutlets" : 0,
					"patching_rect" : [ 66.638794, 383.0, 128.0, 128.0 ],
					"presentation" : 1,
					"presentation_rect" : [ 2.638794, 1.523499, 322.0, 77.0 ],
					"proportion" : 0.39,
					"rounded" : 0,
					"style" : ""
				}

			}
 ],
		"lines" : [ 			{
				"patchline" : 				{
					"destination" : [ "obj-17", 0 ],
					"disabled" : 0,
					"hidden" : 0,
					"source" : [ "obj-101", 0 ]
				}

			}
, 			{
				"patchline" : 				{
					"destination" : [ "obj-89", 0 ],
					"disabled" : 0,
					"hidden" : 0,
					"source" : [ "obj-17", 0 ]
				}

			}
, 			{
				"patchline" : 				{
					"destination" : [ "obj-19", 0 ],
					"disabled" : 0,
					"hidden" : 0,
					"source" : [ "obj-18", 0 ]
				}

			}
, 			{
				"patchline" : 				{
					"destination" : [ "obj-303", 2 ],
					"disabled" : 0,
					"hidden" : 0,
					"source" : [ "obj-19", 0 ]
				}

			}
, 			{
				"patchline" : 				{
					"destination" : [ "obj-303", 0 ],
					"disabled" : 0,
					"hidden" : 0,
					"source" : [ "obj-2", 0 ]
				}

			}
, 			{
				"patchline" : 				{
					"destination" : [ "obj-25", 0 ],
					"disabled" : 0,
					"hidden" : 0,
					"source" : [ "obj-22", 0 ]
				}

			}
, 			{
				"patchline" : 				{
					"destination" : [ "obj-26", 0 ],
					"disabled" : 0,
					"hidden" : 0,
					"source" : [ "obj-23", 0 ]
				}

			}
, 			{
				"patchline" : 				{
					"destination" : [ "obj-5", 0 ],
					"disabled" : 0,
					"hidden" : 0,
					"source" : [ "obj-25", 0 ]
				}

			}
, 			{
				"patchline" : 				{
					"destination" : [ "obj-27", 0 ],
					"disabled" : 0,
					"hidden" : 0,
					"source" : [ "obj-26", 0 ]
				}

			}
, 			{
				"patchline" : 				{
					"destination" : [ "obj-303", 4 ],
					"disabled" : 0,
					"hidden" : 0,
					"source" : [ "obj-296", 0 ]
				}

			}
, 			{
				"patchline" : 				{
					"destination" : [ "obj-296", 0 ],
					"disabled" : 0,
					"hidden" : 0,
					"source" : [ "obj-3", 0 ]
				}

			}
, 			{
				"patchline" : 				{
					"destination" : [ "obj-101", 0 ],
					"disabled" : 0,
					"hidden" : 0,
					"order" : 1,
					"source" : [ "obj-303", 0 ]
				}

			}
, 			{
				"patchline" : 				{
					"destination" : [ "obj-305", 0 ],
					"disabled" : 0,
					"hidden" : 0,
					"midpoints" : [ 62.5, 226.000015, 144.0, 226.000015, 144.0, 115.500008, 165.5, 115.500008 ],
					"order" : 0,
					"source" : [ "obj-303", 0 ]
				}

			}
, 			{
				"patchline" : 				{
					"destination" : [ "obj-22", 0 ],
					"disabled" : 0,
					"hidden" : 0,
					"order" : 1,
					"source" : [ "obj-304", 1 ]
				}

			}
, 			{
				"patchline" : 				{
					"destination" : [ "obj-23", 0 ],
					"disabled" : 0,
					"hidden" : 0,
					"order" : 0,
					"source" : [ "obj-304", 1 ]
				}

			}
, 			{
				"patchline" : 				{
					"destination" : [ "obj-304", 0 ],
					"disabled" : 0,
					"hidden" : 0,
					"source" : [ "obj-305", 0 ]
				}

			}
 ],
		"parameters" : 		{
			"obj-89" : [ "sequncer", "sequncer", 0 ]
		}
,
		"dependency_cache" : [  ],
		"autosave" : 0,
		"styles" : [ 			{
				"name" : "AudioStatus_Menu",
				"default" : 				{
					"bgfillcolor" : 					{
						"type" : "color",
						"color" : [ 0.294118, 0.313726, 0.337255, 1 ],
						"color1" : [ 0.454902, 0.462745, 0.482353, 0.0 ],
						"color2" : [ 0.290196, 0.309804, 0.301961, 1.0 ],
						"angle" : 270.0,
						"proportion" : 0.39,
						"autogradient" : 0
					}

				}
,
				"parentstyle" : "",
				"multi" : 0
			}
, 			{
				"name" : "multisliderBlue&Yellow",
				"default" : 				{
					"color" : [ 0.960784, 0.867826, 0.084811, 1.0 ],
					"bgcolor" : [ 0.317647, 0.654902, 0.976471, 0.79 ]
				}
,
				"parentstyle" : "",
				"multi" : 0
			}
, 			{
				"name" : "newobjBlue-1",
				"default" : 				{
					"accentcolor" : [ 0.317647, 0.654902, 0.976471, 1.0 ]
				}
,
				"parentstyle" : "",
				"multi" : 0
			}
, 			{
				"name" : "newobjGold-1",
				"default" : 				{
					"accentcolor" : [ 0.764706, 0.592157, 0.101961, 1.0 ]
				}
,
				"parentstyle" : "",
				"multi" : 0
			}
, 			{
				"name" : "newobjGreen-1",
				"default" : 				{
					"accentcolor" : [ 0.0, 0.533333, 0.168627, 1.0 ]
				}
,
				"parentstyle" : "",
				"multi" : 0
			}
, 			{
				"name" : "newobjRed-1",
				"default" : 				{
					"accentcolor" : [ 0.784314, 0.145098, 0.023529, 1.0 ]
				}
,
				"parentstyle" : "",
				"multi" : 0
			}
, 			{
				"name" : "newobjYellow-1",
				"default" : 				{
					"fontsize" : [ 12.059008 ],
					"accentcolor" : [ 0.82517, 0.78181, 0.059545, 1.0 ]
				}
,
				"parentstyle" : "",
				"multi" : 0
			}
, 			{
				"name" : "numberGold-1",
				"default" : 				{
					"accentcolor" : [ 0.764706, 0.592157, 0.101961, 1.0 ]
				}
,
				"parentstyle" : "",
				"multi" : 0
			}
 ]
	}

}
