{
	"patcher" : 	{
		"fileversion" : 1,
		"appversion" : 		{
			"major" : 7,
			"minor" : 2,
			"revision" : 4,
			"architecture" : "x64",
			"modernui" : 1
		}
,
		"rect" : [ 151.0, 135.0, 884.0, 556.0 ],
		"bgcolor" : [ 0.0, 0.0, 0.0, 1.0 ],
		"editing_bgcolor" : [ 0.0, 0.0, 0.0, 1.0 ],
		"bglocked" : 0,
		"openinpresentation" : 1,
		"default_fontsize" : 12.0,
		"default_fontface" : 0,
		"default_fontname" : "Arial",
		"gridonopen" : 1,
		"gridsize" : [ 15.0, 15.0 ],
		"gridsnaponopen" : 1,
		"objectsnaponopen" : 1,
		"statusbarvisible" : 2,
		"toolbarvisible" : 1,
		"lefttoolbarpinned" : 0,
		"toptoolbarpinned" : 0,
		"righttoolbarpinned" : 0,
		"bottomtoolbarpinned" : 0,
		"toolbars_unpinned_last_save" : 0,
		"tallnewobj" : 0,
		"boxanimatetime" : 200,
		"enablehscroll" : 1,
		"enablevscroll" : 1,
		"devicewidth" : 0.0,
		"description" : "",
		"digest" : "",
		"tags" : "",
		"style" : "",
		"subpatcher_template" : "",
		"boxes" : [ 			{
				"box" : 				{
					"comment" : "",
					"id" : "obj-5",
					"maxclass" : "inlet",
					"numinlets" : 0,
					"numoutlets" : 1,
					"outlettype" : [ "" ],
					"patching_rect" : [ 251.0, 102.0, 30.0, 30.0 ],
					"style" : ""
				}

			}
, 			{
				"box" : 				{
					"comment" : "",
					"id" : "obj-4",
					"maxclass" : "inlet",
					"numinlets" : 0,
					"numoutlets" : 1,
					"outlettype" : [ "" ],
					"patching_rect" : [ 213.0, 102.0, 30.0, 30.0 ],
					"style" : ""
				}

			}
, 			{
				"box" : 				{
					"comment" : "",
					"id" : "obj-3",
					"maxclass" : "outlet",
					"numinlets" : 1,
					"numoutlets" : 0,
					"patching_rect" : [ 355.0, 394.000031, 30.0, 30.0 ],
					"style" : ""
				}

			}
, 			{
				"box" : 				{
					"comment" : "",
					"id" : "obj-1",
					"maxclass" : "outlet",
					"numinlets" : 1,
					"numoutlets" : 0,
					"patching_rect" : [ 320.0, 394.000031, 30.0, 30.0 ],
					"style" : ""
				}

			}
, 			{
				"box" : 				{
					"bgcolor" : [ 0.290196, 0.309804, 0.301961, 0.0 ],
					"blinkcolor" : [ 0.895451, 0.915266, 0.884438, 1.0 ],
					"id" : "obj-186",
					"maxclass" : "button",
					"numinlets" : 1,
					"numoutlets" : 1,
					"outlettype" : [ "bang" ],
					"outlinecolor" : [ 0.152941, 0.160784, 0.172549, 0.61 ],
					"patching_rect" : [ 690.0, 181.5, 24.0, 24.0 ],
					"presentation" : 1,
					"presentation_rect" : [ 287.5, 227.647827, 18.0, 18.0 ],
					"style" : ""
				}

			}
, 			{
				"box" : 				{
					"bgcolor" : [ 0.290196, 0.309804, 0.301961, 0.0 ],
					"blinkcolor" : [ 0.895451, 0.915266, 0.884438, 1.0 ],
					"id" : "obj-185",
					"maxclass" : "button",
					"numinlets" : 1,
					"numoutlets" : 1,
					"outlettype" : [ "bang" ],
					"outlinecolor" : [ 0.152941, 0.160784, 0.172549, 0.61 ],
					"patching_rect" : [ 690.0, 460.000031, 24.0, 24.0 ],
					"presentation" : 1,
					"presentation_rect" : [ 579.666626, 227.647827, 18.0, 18.0 ],
					"style" : ""
				}

			}
, 			{
				"box" : 				{
					"bgcolor" : [ 0.290196, 0.309804, 0.301961, 0.0 ],
					"blinkcolor" : [ 0.895451, 0.915266, 0.884438, 1.0 ],
					"id" : "obj-184",
					"maxclass" : "button",
					"numinlets" : 1,
					"numoutlets" : 1,
					"outlettype" : [ "bang" ],
					"outlinecolor" : [ 0.152941, 0.160784, 0.172549, 0.61 ],
					"patching_rect" : [ 606.0, 638.000061, 24.0, 24.0 ],
					"presentation" : 1,
					"presentation_rect" : [ 579.666626, 114.166687, 18.0, 18.0 ],
					"style" : ""
				}

			}
, 			{
				"box" : 				{
					"bgcolor" : [ 0.290196, 0.309804, 0.301961, 0.0 ],
					"blinkcolor" : [ 0.895451, 0.915266, 0.884438, 1.0 ],
					"id" : "obj-183",
					"maxclass" : "button",
					"numinlets" : 1,
					"numoutlets" : 1,
					"outlettype" : [ "bang" ],
					"outlinecolor" : [ 0.152941, 0.160784, 0.172549, 0.61 ],
					"patching_rect" : [ 385.0, 428.500031, 24.0, 24.0 ],
					"presentation" : 1,
					"presentation_rect" : [ 287.5, 114.166687, 18.0, 18.0 ],
					"style" : ""
				}

			}
, 			{
				"box" : 				{
					"autosave" : 1,
					"bgcolor" : [ 0.018676, 0.19141, 0.321569, 0.360784 ],
					"bgmode" : 0,
					"border" : 0,
					"clickthrough" : 0,
					"color" : [ 0.286275, 0.333333, 0.329412, 0.0 ],
					"fontname" : "Akkurat-Mono",
					"fontsize" : 10.0,
					"id" : "obj-175",
					"maxclass" : "newobj",
					"numinlets" : 2,
					"numoutlets" : 8,
					"offset" : [ 0.0, 0.0 ],
					"outlettype" : [ "signal", "signal", "", "list", "int", "", "", "" ],
					"patching_rect" : [ 304.5, 188.0, 117.0, 18.0 ],
					"presentation" : 1,
					"presentation_rect" : [ 287.5, 13.666748, 65.0, 18.0 ],
					"save" : [ "#N", "vst~", "loaduniqueid", 0, "Etch", ";" ],
					"saved_attribute_attributes" : 					{
						"valueof" : 						{
							"parameter_invisible" : 1,
							"parameter_longname" : "vst~[11]",
							"parameter_shortname" : "vst~",
							"parameter_type" : 3
						}

					}
,
					"saved_object_attributes" : 					{
						"annotation_name" : "",
						"parameter_enable" : 1
					}
,
					"snapshot" : 					{
						"filetype" : "C74Snapshot",
						"version" : 2,
						"minorversion" : 0,
						"name" : "snapshotlist",
						"origin" : "vst~",
						"type" : "list",
						"subtype" : "Undefined",
						"embed" : 1,
						"snapshot" : 						{
							"pluginname" : "Etch.vst",
							"plugindisplayname" : "Etch",
							"pluginsavedname" : "Etch",
							"pluginsaveduniqueid" : 0,
							"version" : 1,
							"isbank" : 0,
							"isbase64" : 1,
							"blob" : "3373.CMlaKA....fQPMDZ....APWQ3YD...P......TDcigF..................................vP77H2auQGHSQWXzUlUkI2bo8la8HhLtHiHf7jckI2bg0FbrUVOhHiHfvjQO0TRDkzP8HBLh.BToQ2Xn0TRDkzP8HRLh.hQowFckIWLMkDQIMTOhHiHfXTZrQWYxISSIQTRC0iHyHhOJ.BHf.BOBklajklam0TXvAhag0VY8HhPo4FYo41YyIhOJ.BHf.BHf.BH7X0ShoVYiQWPxIWX4Ahag0VY8HBRuMGcPElbg0VYzUlbyIBHi8VctQWOhXiLh3iBf.BHf.BHf.BHf.BH7XkUgwVckABc4AWY8HhYr8VXzIBH1EFa0UVOh.iK0HBHu3iBf.BHf.BHf.BHf.BH7XkUgwVckABc4AWY8HhYr8VXzIBH1EFa0UVOh.iK0HBHu3iBf.BHf.BHf.BHf.BH7XkUgwVckABc4AWY8HhYr8VXzIBH1EFa0UVOh.iK0HBHu3iBf.BHf.BHf.BHf.BH7XkUgwVckABc4AWY8HhYr8VXzIBH1EFa0UVOhDiHf7hOJ.BHf.BHf.BHf.BHfviUVEFa0UFHzkGbk0iHlw1agQmHfXWXrUWY8HRLh.xK9n.Hf.BHf.BHf.BHf.BOVYUXrUWYfPWdvUVOhXFauEFch.hcgwVck0iHv3RMh.xK9n.Hf.BHf.BHf.BHf.BOVYUXrUWYfPWdvUVOhXFauEFch.hcgwVck0iHv3RMh.xK9n.Hf.BHf.BHf.BHf.BOVYUXrUWYfPWdvUVOhXFauEFch.hcgwVck0iHv3RMh.xK9n.Hf.BHf.BHf.BHf.BOVYUXrUWYfPWdvUVOhXFauEFch.hcgwVck0iHv3RMh.xK9n.Hf.BHf.BHf.BHf.BOVYUXrUWYfPWdvUVOhXFauEFch.hcgwVck0iHwHBHu3iBf.BHf.BHf.BHf.BH7XkUgwVckABc4AWY8HhYr8VXzIBH1EFa0UVOhDiHf7hOJ.BHf.BHf.BHf.BHfviUVEFa0UFHzkGbk0iHlw1agQmHfXWXrUWY8HBLtTiHf7hOJ.BHf.BHf.BHf.BHfviUVEFa0UFHzkGbk0iHlw1agQmHfXWXrUWY8HBLh.xK9n.Hf.BHf.BHf.BHf.BOVYUXrUWYfPWdvUVOhXFauEFch.hcgwVck0iHvHBHu3iBf.BHf.BHf.BHf.BH7XkUgwVckABc4AWY8HhYr8VXzIBH1EFa0UVOh.iK0HBHu3iBf.BHf.BHf.BHf.BH7XkUgwVckABc4AWY8HhYr8VXzIBH1EFa0UVOh.iKwHBHu3iBf.BHf.BHf.BHf.BH7XkUgwVckABc4AWY8HhYr8VXzIBH1EFa0UVOh.iHf7hOJ.BHf.BHf.BHf.BHfviUVEFa0UFHzkGbk0iHlw1agQmHfXWXrUWY8HRLh.xK9n.Hf.BHf.BHf.BHf.BOVYUXrUWYfPWdvUVOhXFauEFch.hcgwVck0iHv3RMh.xK9n.Hf.BHf.BHf.BHf.BOVYUXrUWYfPWdvUVOhXFauEFch.hcgwVck0iHv3RMh.xK9n.Hf.BHf.BHf.BHf.BOVYUXrUWYfPWdvUVOhXFauEFch.hcgwVck0iHwHBHu3iBf.BHf.BHf.BHf.BH7XkUgwVckABc4AWY8HhYr8VXzIBH1EFa0UVOh.iHf7hOJ.BHf.BHf.BHf.BHfviUVEFa0UFHzkGbk0iHlw1agQmHfXWXrUWY8HRLh.xK9n.Hf.BHf.BHf.BHf.BOVYUXrUWYfPWdvUVOhXFauEFch.hcgwVck0iHv3RMh.xK9n.Hf.BHf.BHf.BHf.BOVYUXrUWYfPWdvUVOhXFauEFch.hcgwVck0iHv3RMh.xK9n.Hf.BHf.BHf.BHf.BOVYUXrUWYfPWdvUVOhXFauEFch.hcgwVck0iHv3RMh.xK9n.Hf.BHf.BHf.BHf.BOVYUXrUWYfPWdvUVOhXFauEFch.hcgwVck0iHvHBHu3iBf.BHf.BHf.BHf.BH7XkUgwVckABc4AWY8HhYr8VXzIBH1EFa0UVOhDiHf7hOJ.BHf.BHf.BHf.BHfviUVEFa0UFHzkGbk0iHlw1agQmHfXWXrUWY8HBLh.xK9n.Hf.BHf.BHf.BHf.BOVYUXrUWYfPWdvUVOhXFauEFch.hcgwVck0iHvHBHu3iBf.BHf.BHf.BHf.BH7XkUgwVckABc4AWY8HhYr8VXzIBH1EFa0UVOh.iHf7hOJ.BHf.BHf.BHf.BHfviUVEFa0UFHzkGbk0iHlw1agQmHfXWXrUWY8HRLh.xK9n.Hf.BHf.BHf.BHf.BOVYUXrUWYfPWdvUVOhXFauEFch.hcgwVck0iHvHBHu3iBf.BHf.BHf.BHf.BH7XkUgwVckABc4AWY8HhYr8VXzIBH1EFa0UVOh.iHf7hOJ.BHf.BHf.BHf.BHfviUVEFa0UFHzkGbk0iHlw1agQmHfXWXrUWY8HRLh.xK9n.Hf.BHf.BHf.BHf.BOVYUXrUWYfPWdvUVOhXFauEFch.hcgwVck0iHvHBHu3iBf.BHf.BHf.BHf.BH7XkUgwVckABc4AWY8HhYr8VXzIBH1EFa0UVOhDiHf7hOJ.BHf.BHf.BHf.BHfviUVEFa0UFHzkGbk0iHlw1agQmHfXWXrUWY8HBLtXCLxHSMwHBHu3iBf.BHf.BHf.BHf.BH7XkUgwVckABc4AWY8HhYr8VXzIBH1EFa0UVOh.iK1.iLxTSLh.xK9n.Hf.BHf.BHf.BHf.BOVYUXrUWYfPWdvUVOhXFauEFch.hcgwVck0iHvHBHu3iBf.BHf.BHf.BHf.BH7XkUgwVckABc4AWY8HhYr8VXzIBH1EFa0UVOh.iK1XiM1XyMh.xK9n.Hf.BHf.BHf.BHf.BOVYUXrUWYfPWdvUVOhXFauEFch.hcgwVck0iHvHBHu3iBf.BHf.BHf.BHf.BH7XkUgwVckABc4AWY8HhYr8VXzIBH1EFa0UVOh.iHf7hOJ.BHf.BHf.BHf.BHfviUVEFa0UFHzkGbk0iHlw1agQmHfXWXrUWY8HBLtTiHf7hOJ.BHf.BHf.BHf.BHfviUVEFa0UFHzkGbk0iHlw1agQmHfXWXrUWY8HRLh.xK9n.Hf.BHf.BHf.BHf.BOVYUXrUWYfPWdvUVOhXFauEFch.hcgwVck0iHvHBHu3iBf.BHf.BHf.BHf.BH7XkUgwVckABc4AWY8HhYr8VXzIBH1EFa0UVOhDiHf7hOJ.BHf.BHf.BHf.BHfviUVEFa0UFHzkGbk0iHlw1agQmHfXWXrUWY8HBLtXCLxHSMwHBHu3iBf.BHf.BHf.BHf.BH7XkUgwVckABc4AWY8HhYr8VXzIBH1EFa0UVOh.iK1.iLxTSLh.xK9n.Hf.BHf.BHf.BHf.BOVYUXrUWYfPWdvUVOhXFauEFch.hcgwVck0iHvHBHu3iBf.BHf.BHf.BHf.BH7XkUgwVckABc4AWY8HhYr8VXzIBH1EFa0UVOh.iK1XiM1XyMh.xK9n.Hf.BHf.BHf.BHf.BOVYUXrUWYfPWdvUVOhXFauEFch.hcgwVck0iHvHBHu3iBf.BHf.BHf.BHf.BH7XkUgwVckABc4AWY8HhYr8VXzIBH1EFa0UVOh.iHf7hOJ.BHf.BHf.BHf.BHfviUVEFa0UFHzkGbk0iHlw1agQmHfXWXrUWY8HBLtTiHf7hOJ.BHf.BHf.BHf.BHfviUVEFa0UFHzkGbk0iHlw1agQmHfXWXrUWY8HRLh.xK9n.Hf.BHf.BHf.BHf.BOVYUXrUWYfPWdvUVOhXFauEFch.hcgwVck0iHv3xM4LyMvDiHf7hOJ.BHf.BHf.BHf.BHfviUVEFa0UFHzkGbk0iHlw1agQmHfXWXrUWY8HBLh.xK9n.Hf.BHf.BHf.BHf.BOVYUXrUWYfPWdvUVOhXFauEFch.hcgwVck0iHvHBHu3iBf.BHf.BHf.BHf.BH7XkUgwVckABc4AWY8HhYr8VXzIBH1EFa0UVOhDiHf7hOJ.BHf.BHf.BHf.BHfviUVEFa0UFHzkGbk0iHlw1agQmHfXWXrUWY8HBLh.xK9n.Hf.BHf.BHf.BHf.BOVYUXrUWYfPWdvUVOhXFauEFch.hcgwVck0iHvHBHu3iBf.BHf.BHf.BHf.BH7XkUgwVckABc4AWY8HhYr8VXzIBH1EFa0UVOh.iHf7hOJ.BHf.BHf.BH77hUOIlZkMFcAImbgkmOJ.BHf.BOuHTZtQVZtcVSgAmOJ.BHf.BOEQ2XnAkbuMVYyMGHtEVak0iHFwVc3IBHVUlb8HhLtHiHfvTZts1SlY1bkQWOh.iHfLDLVEFa0UVOh.iHfLTLVEFa0UVOh.iHf7hOJ.BHf.BOVMEcxklamAhag0VY8HBSgMGcPIWYyUFcNEVakIBHyQmbo41Y8HBQkYVX0wFch.xK9n.OuH2auQmOJ."
						}
,
						"snapshotlist" : 						{
							"current_snapshot" : 0,
							"entries" : [ 								{
									"filetype" : "C74Snapshot",
									"version" : 2,
									"minorversion" : 0,
									"name" : "Etch.vst",
									"origin" : "Etch.vst",
									"type" : "VST",
									"subtype" : "MidiEffect",
									"embed" : 0,
									"snapshot" : 									{
										"pluginname" : "Etch.vst",
										"plugindisplayname" : "Etch",
										"pluginsavedname" : "Etch",
										"pluginsaveduniqueid" : 0,
										"version" : 1,
										"isbank" : 0,
										"isbase64" : 1,
										"blob" : "3373.CMlaKA....fQPMDZ....APWQ3YD...P......TDcigF..................................vP77H2auQGHSQWXzUlUkI2bo8la8HhLtHiHf7jckI2bg0FbrUVOhHiHfvjQO0TRDkzP8HBLh.BToQ2Xn0TRDkzP8HRLh.hQowFckIWLMkDQIMTOhHiHfXTZrQWYxISSIQTRC0iHyHhOJ.BHf.BOBklajklam0TXvAhag0VY8HhPo4FYo41YyIhOJ.BHf.BHf.BH7X0ShoVYiQWPxIWX4Ahag0VY8HBRuMGcPElbg0VYzUlbyIBHi8VctQWOhXiLh3iBf.BHf.BHf.BHf.BH7XkUgwVckABc4AWY8HhYr8VXzIBH1EFa0UVOh.iK0HBHu3iBf.BHf.BHf.BHf.BH7XkUgwVckABc4AWY8HhYr8VXzIBH1EFa0UVOh.iK0HBHu3iBf.BHf.BHf.BHf.BH7XkUgwVckABc4AWY8HhYr8VXzIBH1EFa0UVOh.iK0HBHu3iBf.BHf.BHf.BHf.BH7XkUgwVckABc4AWY8HhYr8VXzIBH1EFa0UVOhDiHf7hOJ.BHf.BHf.BHf.BHfviUVEFa0UFHzkGbk0iHlw1agQmHfXWXrUWY8HRLh.xK9n.Hf.BHf.BHf.BHf.BOVYUXrUWYfPWdvUVOhXFauEFch.hcgwVck0iHv3RMh.xK9n.Hf.BHf.BHf.BHf.BOVYUXrUWYfPWdvUVOhXFauEFch.hcgwVck0iHv3RMh.xK9n.Hf.BHf.BHf.BHf.BOVYUXrUWYfPWdvUVOhXFauEFch.hcgwVck0iHv3RMh.xK9n.Hf.BHf.BHf.BHf.BOVYUXrUWYfPWdvUVOhXFauEFch.hcgwVck0iHv3RMh.xK9n.Hf.BHf.BHf.BHf.BOVYUXrUWYfPWdvUVOhXFauEFch.hcgwVck0iHwHBHu3iBf.BHf.BHf.BHf.BH7XkUgwVckABc4AWY8HhYr8VXzIBH1EFa0UVOhDiHf7hOJ.BHf.BHf.BHf.BHfviUVEFa0UFHzkGbk0iHlw1agQmHfXWXrUWY8HBLtTiHf7hOJ.BHf.BHf.BHf.BHfviUVEFa0UFHzkGbk0iHlw1agQmHfXWXrUWY8HBLh.xK9n.Hf.BHf.BHf.BHf.BOVYUXrUWYfPWdvUVOhXFauEFch.hcgwVck0iHvHBHu3iBf.BHf.BHf.BHf.BH7XkUgwVckABc4AWY8HhYr8VXzIBH1EFa0UVOh.iK0HBHu3iBf.BHf.BHf.BHf.BH7XkUgwVckABc4AWY8HhYr8VXzIBH1EFa0UVOh.iKwHBHu3iBf.BHf.BHf.BHf.BH7XkUgwVckABc4AWY8HhYr8VXzIBH1EFa0UVOh.iHf7hOJ.BHf.BHf.BHf.BHfviUVEFa0UFHzkGbk0iHlw1agQmHfXWXrUWY8HRLh.xK9n.Hf.BHf.BHf.BHf.BOVYUXrUWYfPWdvUVOhXFauEFch.hcgwVck0iHv3RMh.xK9n.Hf.BHf.BHf.BHf.BOVYUXrUWYfPWdvUVOhXFauEFch.hcgwVck0iHv3RMh.xK9n.Hf.BHf.BHf.BHf.BOVYUXrUWYfPWdvUVOhXFauEFch.hcgwVck0iHwHBHu3iBf.BHf.BHf.BHf.BH7XkUgwVckABc4AWY8HhYr8VXzIBH1EFa0UVOh.iHf7hOJ.BHf.BHf.BHf.BHfviUVEFa0UFHzkGbk0iHlw1agQmHfXWXrUWY8HRLh.xK9n.Hf.BHf.BHf.BHf.BOVYUXrUWYfPWdvUVOhXFauEFch.hcgwVck0iHv3RMh.xK9n.Hf.BHf.BHf.BHf.BOVYUXrUWYfPWdvUVOhXFauEFch.hcgwVck0iHv3RMh.xK9n.Hf.BHf.BHf.BHf.BOVYUXrUWYfPWdvUVOhXFauEFch.hcgwVck0iHv3RMh.xK9n.Hf.BHf.BHf.BHf.BOVYUXrUWYfPWdvUVOhXFauEFch.hcgwVck0iHvHBHu3iBf.BHf.BHf.BHf.BH7XkUgwVckABc4AWY8HhYr8VXzIBH1EFa0UVOhDiHf7hOJ.BHf.BHf.BHf.BHfviUVEFa0UFHzkGbk0iHlw1agQmHfXWXrUWY8HBLh.xK9n.Hf.BHf.BHf.BHf.BOVYUXrUWYfPWdvUVOhXFauEFch.hcgwVck0iHvHBHu3iBf.BHf.BHf.BHf.BH7XkUgwVckABc4AWY8HhYr8VXzIBH1EFa0UVOh.iHf7hOJ.BHf.BHf.BHf.BHfviUVEFa0UFHzkGbk0iHlw1agQmHfXWXrUWY8HRLh.xK9n.Hf.BHf.BHf.BHf.BOVYUXrUWYfPWdvUVOhXFauEFch.hcgwVck0iHvHBHu3iBf.BHf.BHf.BHf.BH7XkUgwVckABc4AWY8HhYr8VXzIBH1EFa0UVOh.iHf7hOJ.BHf.BHf.BHf.BHfviUVEFa0UFHzkGbk0iHlw1agQmHfXWXrUWY8HRLh.xK9n.Hf.BHf.BHf.BHf.BOVYUXrUWYfPWdvUVOhXFauEFch.hcgwVck0iHvHBHu3iBf.BHf.BHf.BHf.BH7XkUgwVckABc4AWY8HhYr8VXzIBH1EFa0UVOhDiHf7hOJ.BHf.BHf.BHf.BHfviUVEFa0UFHzkGbk0iHlw1agQmHfXWXrUWY8HBLtXCLxHSMwHBHu3iBf.BHf.BHf.BHf.BH7XkUgwVckABc4AWY8HhYr8VXzIBH1EFa0UVOh.iK1.iLxTSLh.xK9n.Hf.BHf.BHf.BHf.BOVYUXrUWYfPWdvUVOhXFauEFch.hcgwVck0iHvHBHu3iBf.BHf.BHf.BHf.BH7XkUgwVckABc4AWY8HhYr8VXzIBH1EFa0UVOh.iK1XiM1XyMh.xK9n.Hf.BHf.BHf.BHf.BOVYUXrUWYfPWdvUVOhXFauEFch.hcgwVck0iHvHBHu3iBf.BHf.BHf.BHf.BH7XkUgwVckABc4AWY8HhYr8VXzIBH1EFa0UVOh.iHf7hOJ.BHf.BHf.BHf.BHfviUVEFa0UFHzkGbk0iHlw1agQmHfXWXrUWY8HBLtTiHf7hOJ.BHf.BHf.BHf.BHfviUVEFa0UFHzkGbk0iHlw1agQmHfXWXrUWY8HRLh.xK9n.Hf.BHf.BHf.BHf.BOVYUXrUWYfPWdvUVOhXFauEFch.hcgwVck0iHvHBHu3iBf.BHf.BHf.BHf.BH7XkUgwVckABc4AWY8HhYr8VXzIBH1EFa0UVOhDiHf7hOJ.BHf.BHf.BHf.BHfviUVEFa0UFHzkGbk0iHlw1agQmHfXWXrUWY8HBLtXCLxHSMwHBHu3iBf.BHf.BHf.BHf.BH7XkUgwVckABc4AWY8HhYr8VXzIBH1EFa0UVOh.iK1.iLxTSLh.xK9n.Hf.BHf.BHf.BHf.BOVYUXrUWYfPWdvUVOhXFauEFch.hcgwVck0iHvHBHu3iBf.BHf.BHf.BHf.BH7XkUgwVckABc4AWY8HhYr8VXzIBH1EFa0UVOh.iK1XiM1XyMh.xK9n.Hf.BHf.BHf.BHf.BOVYUXrUWYfPWdvUVOhXFauEFch.hcgwVck0iHvHBHu3iBf.BHf.BHf.BHf.BH7XkUgwVckABc4AWY8HhYr8VXzIBH1EFa0UVOh.iHf7hOJ.BHf.BHf.BHf.BHfviUVEFa0UFHzkGbk0iHlw1agQmHfXWXrUWY8HBLtTiHf7hOJ.BHf.BHf.BHf.BHfviUVEFa0UFHzkGbk0iHlw1agQmHfXWXrUWY8HRLh.xK9n.Hf.BHf.BHf.BHf.BOVYUXrUWYfPWdvUVOhXFauEFch.hcgwVck0iHv3xM4LyMvDiHf7hOJ.BHf.BHf.BHf.BHfviUVEFa0UFHzkGbk0iHlw1agQmHfXWXrUWY8HBLh.xK9n.Hf.BHf.BHf.BHf.BOVYUXrUWYfPWdvUVOhXFauEFch.hcgwVck0iHvHBHu3iBf.BHf.BHf.BHf.BH7XkUgwVckABc4AWY8HhYr8VXzIBH1EFa0UVOhDiHf7hOJ.BHf.BHf.BHf.BHfviUVEFa0UFHzkGbk0iHlw1agQmHfXWXrUWY8HBLh.xK9n.Hf.BHf.BHf.BHf.BOVYUXrUWYfPWdvUVOhXFauEFch.hcgwVck0iHvHBHu3iBf.BHf.BHf.BHf.BH7XkUgwVckABc4AWY8HhYr8VXzIBH1EFa0UVOh.iHf7hOJ.BHf.BHf.BH77hUOIlZkMFcAImbgkmOJ.BHf.BOuHTZtQVZtcVSgAmOJ.BHf.BOEQ2XnAkbuMVYyMGHtEVak0iHFwVc3IBHVUlb8HhLtHiHfvTZts1SlY1bkQWOh.iHfLDLVEFa0UVOh.iHfLTLVEFa0UVOh.iHf7hOJ.BHf.BOVMEcxklamAhag0VY8HBSgMGcPIWYyUFcNEVakIBHyQmbo41Y8HBQkYVX0wFch.xK9n.OuH2auQmOJ."
									}
,
									"fileref" : 									{
										"name" : "Etch.vst",
										"filename" : "Etch.vst.maxsnap",
										"filepath" : "~/Documents/Max 7/Snapshots",
										"filepos" : -1,
										"snapshotfileid" : "eceb34beb3670cf69ba0d36e91d801e0"
									}

								}
 ]
						}

					}
,
					"style" : "",
					"text" : "vst~ Etch",
					"textcolor" : [ 0.65098, 0.666667, 0.662745, 0.62 ],
					"varname" : "vst~[4]",
					"viewvisibility" : 0
				}

			}
, 			{
				"box" : 				{
					"fontname" : "Akkurat-Mono",
					"fontsize" : 9.0,
					"id" : "obj-172",
					"maxclass" : "comment",
					"numinlets" : 1,
					"numoutlets" : 0,
					"patching_rect" : [ 205.0, 424.000031, 55.0, 15.0 ],
					"presentation" : 1,
					"presentation_rect" : [ 11.0, 153.833374, 54.0, 15.0 ],
					"style" : "",
					"text" : "shimmer",
					"textcolor" : [ 0.848527, 0.909661, 0.909804, 1.0 ],
					"textjustification" : 2
				}

			}
, 			{
				"box" : 				{
					"fontname" : "Akkurat-Mono",
					"fontsize" : 9.0,
					"id" : "obj-333",
					"maxclass" : "comment",
					"numinlets" : 1,
					"numoutlets" : 0,
					"patching_rect" : [ 175.0, 394.000031, 69.0, 15.0 ],
					"presentation" : 1,
					"presentation_rect" : [ 18.625854, 46.666748, 52.0, 15.0 ],
					"style" : "",
					"text" : "stretch\n",
					"textcolor" : [ 0.848527, 0.909661, 0.909804, 1.0 ],
					"textjustification" : 2
				}

			}
, 			{
				"box" : 				{
					"fontname" : "Akkurat-Mono",
					"fontsize" : 9.0,
					"id" : "obj-332",
					"maxclass" : "comment",
					"numinlets" : 1,
					"numoutlets" : 0,
					"patching_rect" : [ 145.0, 364.000031, 51.0, 15.0 ],
					"presentation" : 1,
					"presentation_rect" : [ 18.625854, 169.833374, 44.0, 15.0 ],
					"style" : "",
					"text" : "C",
					"textcolor" : [ 0.848527, 0.909661, 0.909804, 1.0 ],
					"textjustification" : 2
				}

			}
, 			{
				"box" : 				{
					"fontname" : "Akkurat-Mono",
					"fontsize" : 9.0,
					"id" : "obj-280",
					"maxclass" : "comment",
					"numinlets" : 1,
					"numoutlets" : 0,
					"patching_rect" : [ 190.0, 409.000031, 69.0, 15.0 ],
					"presentation" : 1,
					"presentation_rect" : [ 312.29248, 153.833374, 42.0, 15.0 ],
					"style" : "",
					"text" : "rate\n",
					"textcolor" : [ 0.848527, 0.909661, 0.909804, 1.0 ],
					"textjustification" : 2
				}

			}
, 			{
				"box" : 				{
					"id" : "obj-281",
					"maxclass" : "message",
					"numinlets" : 2,
					"numoutlets" : 1,
					"outlettype" : [ "" ],
					"patching_rect" : [ 490.0, 773.333313, 34.0, 22.0 ],
					"style" : "",
					"text" : "2 $1"
				}

			}
, 			{
				"box" : 				{
					"fontname" : "Akkurat-Mono",
					"fontsize" : 9.0,
					"id" : "obj-282",
					"maxclass" : "comment",
					"numinlets" : 1,
					"numoutlets" : 0,
					"patching_rect" : [ 413.0, 580.0, 50.0, 15.0 ],
					"presentation" : 1,
					"presentation_rect" : [ 312.29248, 218.333313, 42.0, 15.0 ],
					"style" : "",
					"text" : "#",
					"textcolor" : [ 0.848527, 0.909661, 0.909804, 1.0 ],
					"textjustification" : 2
				}

			}
, 			{
				"box" : 				{
					"bgcolor" : [ 0.290196, 0.309804, 0.301961, 0.0 ],
					"fontname" : "Akkurat-Mono",
					"fontsize" : 9.0,
					"id" : "obj-283",
					"maxclass" : "number",
					"numinlets" : 1,
					"numoutlets" : 2,
					"outlettype" : [ "", "bang" ],
					"parameter_enable" : 0,
					"patching_rect" : [ 399.0, 681.000061, 46.0, 17.0 ],
					"presentation" : 1,
					"presentation_rect" : [ 327.29248, 236.333313, 31.0, 17.0 ],
					"style" : "",
					"textcolor" : [ 0.848527, 0.909661, 0.909804, 1.0 ],
					"tricolor" : [ 0.490196, 0.498039, 0.517647, 0.27 ]
				}

			}
, 			{
				"box" : 				{
					"fontname" : "Akkurat-Mono",
					"fontsize" : 9.0,
					"id" : "obj-284",
					"maxclass" : "comment",
					"numinlets" : 1,
					"numoutlets" : 0,
					"patching_rect" : [ 355.0, 561.0, 51.0, 15.0 ],
					"presentation" : 1,
					"presentation_rect" : [ 312.29248, 169.833374, 42.0, 15.0 ],
					"style" : "",
					"text" : "C",
					"textcolor" : [ 0.848527, 0.909661, 0.909804, 1.0 ],
					"textjustification" : 2
				}

			}
, 			{
				"box" : 				{
					"bgcolor" : [ 0.290196, 0.309804, 0.301961, 0.0 ],
					"fontname" : "Akkurat-Mono",
					"fontsize" : 9.0,
					"format" : 6,
					"id" : "obj-285",
					"maxclass" : "flonum",
					"numinlets" : 1,
					"numoutlets" : 2,
					"outlettype" : [ "", "bang" ],
					"parameter_enable" : 0,
					"patching_rect" : [ 355.0, 580.0, 54.0, 17.0 ],
					"presentation" : 1,
					"presentation_rect" : [ 327.29248, 186.833374, 37.0, 17.0 ],
					"style" : "",
					"textcolor" : [ 0.848527, 0.909661, 0.909804, 1.0 ],
					"tricolor" : [ 0.490196, 0.498039, 0.517647, 0.27 ]
				}

			}
, 			{
				"box" : 				{
					"color" : [ 0.836395, 0.811692, 0.839216, 1.0 ],
					"fontname" : "Arial",
					"fontsize" : 9.0,
					"hidden" : 1,
					"id" : "obj-286",
					"maxclass" : "newobj",
					"numinlets" : 1,
					"numoutlets" : 2,
					"outlettype" : [ "bang", "bang" ],
					"patching_rect" : [ 355.0, 673.000061, 34.0, 19.0 ],
					"style" : "",
					"text" : "edge~"
				}

			}
, 			{
				"box" : 				{
					"color" : [ 0.836395, 0.811692, 0.839216, 1.0 ],
					"fontname" : "Arial",
					"fontsize" : 9.0,
					"hidden" : 1,
					"id" : "obj-287",
					"maxclass" : "newobj",
					"numinlets" : 1,
					"numoutlets" : 1,
					"outlettype" : [ "signal" ],
					"patching_rect" : [ 355.0, 622.000061, 35.0, 19.0 ],
					"style" : "",
					"text" : "delta~"
				}

			}
, 			{
				"box" : 				{
					"color" : [ 0.836395, 0.811692, 0.839216, 1.0 ],
					"fontname" : "Arial",
					"fontsize" : 9.0,
					"hidden" : 1,
					"id" : "obj-288",
					"maxclass" : "newobj",
					"numinlets" : 2,
					"numoutlets" : 1,
					"outlettype" : [ "signal" ],
					"patching_rect" : [ 355.0, 642.000061, 31.0, 19.0 ],
					"style" : "",
					"text" : "<~ 0."
				}

			}
, 			{
				"box" : 				{
					"color" : [ 0.836395, 0.811692, 0.839216, 1.0 ],
					"fontname" : "Arial",
					"fontsize" : 9.0,
					"id" : "obj-289",
					"maxclass" : "newobj",
					"numinlets" : 2,
					"numoutlets" : 1,
					"outlettype" : [ "signal" ],
					"patching_rect" : [ 355.0, 602.5, 55.0, 19.0 ],
					"style" : "",
					"text" : "phasor~ 5."
				}

			}
, 			{
				"box" : 				{
					"fontface" : 0,
					"fontname" : "Arial",
					"fontsize" : 9.0,
					"id" : "obj-290",
					"maxclass" : "newobj",
					"numinlets" : 5,
					"numoutlets" : 4,
					"outlettype" : [ "int", "", "", "int" ],
					"patching_rect" : [ 355.0, 711.000061, 61.0, 19.0 ],
					"style" : "",
					"text" : "counter 7"
				}

			}
, 			{
				"box" : 				{
					"bgcolor" : [ 0.052478, 0.038747, 0.062737, 1.0 ],
					"candicane2" : [ 0.942601, 0.933517, 1.0, 1.0 ],
					"candicane3" : [ 1.0, 0.990346, 0.986274, 1.0 ],
					"candicane4" : [ 0.987654, 1.0, 1.0, 1.0 ],
					"contdata" : 1,
					"id" : "obj-291",
					"maxclass" : "multislider",
					"numinlets" : 1,
					"numoutlets" : 2,
					"outlettype" : [ "", "" ],
					"parameter_enable" : 0,
					"patching_rect" : [ 458.0, 673.000061, 172.0, 57.0 ],
					"presentation" : 1,
					"presentation_rect" : [ 359.29248, 153.833374, 216.166656, 94.499939 ],
					"setminmax" : [ 0.0, 1000.0 ],
					"size" : 19,
					"slidercolor" : [ 0.803922, 0.898039, 0.909804, 1.0 ],
					"spacing" : 1,
					"style" : ""
				}

			}
, 			{
				"box" : 				{
					"color" : [ 0.836395, 0.811692, 0.839216, 1.0 ],
					"fontname" : "Arial",
					"fontsize" : 9.0,
					"id" : "obj-292",
					"maxclass" : "newobj",
					"numinlets" : 1,
					"numoutlets" : 1,
					"outlettype" : [ "" ],
					"patching_rect" : [ 458.0, 640.500061, 66.0, 19.0 ],
					"style" : "",
					"text" : "prepend fetch"
				}

			}
, 			{
				"box" : 				{
					"fontname" : "Akkurat-Mono",
					"fontsize" : 9.0,
					"id" : "obj-293",
					"maxclass" : "comment",
					"numinlets" : 1,
					"numoutlets" : 0,
					"patching_rect" : [ 175.0, 394.000031, 78.0, 15.0 ],
					"presentation" : 1,
					"presentation_rect" : [ 312.29248, 46.666748, 46.0, 15.0 ],
					"style" : "",
					"text" : "g size\n",
					"textcolor" : [ 0.848527, 0.909661, 0.909804, 1.0 ],
					"textjustification" : 2
				}

			}
, 			{
				"box" : 				{
					"id" : "obj-294",
					"maxclass" : "message",
					"numinlets" : 2,
					"numoutlets" : 1,
					"outlettype" : [ "" ],
					"patching_rect" : [ 639.0, 319.333282, 34.0, 22.0 ],
					"style" : "",
					"text" : "4 $1"
				}

			}
, 			{
				"box" : 				{
					"fontname" : "Akkurat-Mono",
					"fontsize" : 9.0,
					"id" : "obj-295",
					"maxclass" : "comment",
					"numinlets" : 1,
					"numoutlets" : 0,
					"patching_rect" : [ 562.0, 126.0, 50.0, 15.0 ],
					"presentation" : 1,
					"presentation_rect" : [ 312.29248, 101.166687, 41.0, 15.0 ],
					"style" : "",
					"text" : "#",
					"textcolor" : [ 0.848527, 0.909661, 0.909804, 1.0 ],
					"textjustification" : 2
				}

			}
, 			{
				"box" : 				{
					"bgcolor" : [ 0.290196, 0.309804, 0.301961, 0.0 ],
					"fontname" : "Akkurat-Mono",
					"fontsize" : 9.0,
					"id" : "obj-296",
					"maxclass" : "number",
					"numinlets" : 1,
					"numoutlets" : 2,
					"outlettype" : [ "", "bang" ],
					"parameter_enable" : 0,
					"patching_rect" : [ 548.0, 227.0, 46.0, 17.0 ],
					"presentation" : 1,
					"presentation_rect" : [ 327.29248, 117.166687, 31.0, 17.0 ],
					"style" : "",
					"textcolor" : [ 0.848527, 0.909661, 0.909804, 1.0 ],
					"tricolor" : [ 0.490196, 0.498039, 0.517647, 0.27 ]
				}

			}
, 			{
				"box" : 				{
					"fontname" : "Akkurat-Mono",
					"fontsize" : 9.0,
					"id" : "obj-297",
					"maxclass" : "comment",
					"numinlets" : 1,
					"numoutlets" : 0,
					"patching_rect" : [ 504.0, 107.0, 51.0, 15.0 ],
					"presentation" : 1,
					"presentation_rect" : [ 312.29248, 62.166748, 42.0, 15.0 ],
					"style" : "",
					"text" : "C",
					"textcolor" : [ 0.848527, 0.909661, 0.909804, 1.0 ],
					"textjustification" : 2
				}

			}
, 			{
				"box" : 				{
					"bgcolor" : [ 0.290196, 0.309804, 0.301961, 0.0 ],
					"fontname" : "Akkurat-Mono",
					"fontsize" : 9.0,
					"format" : 6,
					"id" : "obj-298",
					"maxclass" : "flonum",
					"numinlets" : 1,
					"numoutlets" : 2,
					"outlettype" : [ "", "bang" ],
					"parameter_enable" : 0,
					"patching_rect" : [ 504.0, 126.0, 54.0, 17.0 ],
					"presentation" : 1,
					"presentation_rect" : [ 327.29248, 78.166748, 37.0, 17.0 ],
					"style" : "",
					"textcolor" : [ 0.848527, 0.909661, 0.909804, 1.0 ],
					"tricolor" : [ 0.490196, 0.498039, 0.517647, 0.27 ]
				}

			}
, 			{
				"box" : 				{
					"color" : [ 0.836395, 0.811692, 0.839216, 1.0 ],
					"fontname" : "Arial",
					"fontsize" : 9.0,
					"hidden" : 1,
					"id" : "obj-299",
					"maxclass" : "newobj",
					"numinlets" : 1,
					"numoutlets" : 2,
					"outlettype" : [ "bang", "bang" ],
					"patching_rect" : [ 504.0, 219.0, 34.0, 19.0 ],
					"style" : "",
					"text" : "edge~"
				}

			}
, 			{
				"box" : 				{
					"color" : [ 0.836395, 0.811692, 0.839216, 1.0 ],
					"fontname" : "Arial",
					"fontsize" : 9.0,
					"hidden" : 1,
					"id" : "obj-300",
					"maxclass" : "newobj",
					"numinlets" : 1,
					"numoutlets" : 1,
					"outlettype" : [ "signal" ],
					"patching_rect" : [ 504.0, 168.0, 35.0, 19.0 ],
					"style" : "",
					"text" : "delta~"
				}

			}
, 			{
				"box" : 				{
					"color" : [ 0.836395, 0.811692, 0.839216, 1.0 ],
					"fontname" : "Arial",
					"fontsize" : 9.0,
					"hidden" : 1,
					"id" : "obj-301",
					"maxclass" : "newobj",
					"numinlets" : 2,
					"numoutlets" : 1,
					"outlettype" : [ "signal" ],
					"patching_rect" : [ 504.0, 188.0, 31.0, 19.0 ],
					"style" : "",
					"text" : "<~ 0."
				}

			}
, 			{
				"box" : 				{
					"color" : [ 0.836395, 0.811692, 0.839216, 1.0 ],
					"fontname" : "Arial",
					"fontsize" : 9.0,
					"id" : "obj-302",
					"maxclass" : "newobj",
					"numinlets" : 2,
					"numoutlets" : 1,
					"outlettype" : [ "signal" ],
					"patching_rect" : [ 504.0, 148.5, 55.0, 19.0 ],
					"style" : "",
					"text" : "phasor~ 5."
				}

			}
, 			{
				"box" : 				{
					"fontface" : 0,
					"fontname" : "Arial",
					"fontsize" : 9.0,
					"id" : "obj-303",
					"maxclass" : "newobj",
					"numinlets" : 5,
					"numoutlets" : 4,
					"outlettype" : [ "int", "", "", "int" ],
					"patching_rect" : [ 504.0, 257.0, 61.0, 19.0 ],
					"style" : "",
					"text" : "counter 7"
				}

			}
, 			{
				"box" : 				{
					"bgcolor" : [ 0.052478, 0.038747, 0.062737, 1.0 ],
					"candicane2" : [ 0.942601, 0.933517, 1.0, 1.0 ],
					"candicane3" : [ 1.0, 0.990346, 0.986274, 1.0 ],
					"candicane4" : [ 0.987654, 1.0, 1.0, 1.0 ],
					"contdata" : 1,
					"id" : "obj-304",
					"maxclass" : "multislider",
					"numinlets" : 1,
					"numoutlets" : 2,
					"outlettype" : [ "", "" ],
					"parameter_enable" : 0,
					"patching_rect" : [ 607.0, 219.0, 172.0, 57.0 ],
					"presentation" : 1,
					"presentation_rect" : [ 359.29248, 46.666748, 216.166656, 85.499939 ],
					"prototypename" : "stretchmulti",
					"setminmax" : [ 0.0, 1000.0 ],
					"size" : 19,
					"slidercolor" : [ 0.803922, 0.898039, 0.909804, 1.0 ],
					"spacing" : 1,
					"style" : ""
				}

			}
, 			{
				"box" : 				{
					"color" : [ 0.836395, 0.811692, 0.839216, 1.0 ],
					"fontname" : "Arial",
					"fontsize" : 9.0,
					"id" : "obj-305",
					"maxclass" : "newobj",
					"numinlets" : 1,
					"numoutlets" : 1,
					"outlettype" : [ "" ],
					"patching_rect" : [ 607.0, 186.5, 66.0, 19.0 ],
					"style" : "",
					"text" : "prepend fetch"
				}

			}
, 			{
				"box" : 				{
					"bgcolor" : [ 0.184314, 0.262745, 0.258824, 0.0 ],
					"fontname" : "Akkurat-Mono",
					"fontsize" : 9.0,
					"id" : "obj-307",
					"linecount" : 2,
					"maxclass" : "comment",
					"numinlets" : 1,
					"numoutlets" : 0,
					"patching_rect" : [ 145.0, 364.000031, 52.0, 24.0 ],
					"presentation" : 1,
					"presentation_rect" : [ 18.625854, 13.666748, 90.0, 15.0 ],
					"style" : "",
					"text" : "SPIRAL STRETCH",
					"textcolor" : [ 0.848527, 0.909661, 0.909804, 1.0 ]
				}

			}
, 			{
				"box" : 				{
					"fontname" : "Akkurat-Mono",
					"fontsize" : 9.0,
					"id" : "obj-308",
					"maxclass" : "comment",
					"numinlets" : 1,
					"numoutlets" : 0,
					"patching_rect" : [ 501.0, 398.000031, 50.0, 15.0 ],
					"presentation" : 1,
					"presentation_rect" : [ 18.625854, 218.333313, 42.0, 15.0 ],
					"style" : "",
					"text" : "#",
					"textcolor" : [ 0.848527, 0.909661, 0.909804, 1.0 ],
					"textjustification" : 2
				}

			}
, 			{
				"box" : 				{
					"bgcolor" : [ 0.290196, 0.309804, 0.301961, 0.0 ],
					"fontname" : "Akkurat-Mono",
					"fontsize" : 9.0,
					"id" : "obj-2",
					"maxclass" : "number",
					"numinlets" : 1,
					"numoutlets" : 2,
					"outlettype" : [ "", "bang" ],
					"parameter_enable" : 0,
					"patching_rect" : [ 487.0, 499.000031, 46.0, 17.0 ],
					"presentation" : 1,
					"presentation_rect" : [ 33.625854, 236.333313, 31.0, 17.0 ],
					"style" : "",
					"textcolor" : [ 0.848527, 0.909661, 0.909804, 1.0 ],
					"tricolor" : [ 0.490196, 0.498039, 0.517647, 0.27 ]
				}

			}
, 			{
				"box" : 				{
					"bgcolor" : [ 0.290196, 0.309804, 0.301961, 0.0 ],
					"fontname" : "Akkurat-Mono",
					"fontsize" : 9.0,
					"format" : 6,
					"id" : "obj-122",
					"maxclass" : "flonum",
					"numinlets" : 1,
					"numoutlets" : 2,
					"outlettype" : [ "", "bang" ],
					"parameter_enable" : 0,
					"patching_rect" : [ 443.0, 398.000031, 54.0, 17.0 ],
					"presentation" : 1,
					"presentation_rect" : [ 33.625854, 186.833374, 37.0, 17.0 ],
					"style" : "",
					"textcolor" : [ 0.848527, 0.909661, 0.909804, 1.0 ],
					"tricolor" : [ 0.490196, 0.498039, 0.517647, 0.27 ]
				}

			}
, 			{
				"box" : 				{
					"color" : [ 0.836395, 0.811692, 0.839216, 1.0 ],
					"fontname" : "Arial",
					"fontsize" : 9.0,
					"hidden" : 1,
					"id" : "obj-311",
					"maxclass" : "newobj",
					"numinlets" : 1,
					"numoutlets" : 2,
					"outlettype" : [ "bang", "bang" ],
					"patching_rect" : [ 443.0, 491.000031, 34.0, 19.0 ],
					"style" : "",
					"text" : "edge~"
				}

			}
, 			{
				"box" : 				{
					"color" : [ 0.836395, 0.811692, 0.839216, 1.0 ],
					"fontname" : "Arial",
					"fontsize" : 9.0,
					"hidden" : 1,
					"id" : "obj-312",
					"maxclass" : "newobj",
					"numinlets" : 1,
					"numoutlets" : 1,
					"outlettype" : [ "signal" ],
					"patching_rect" : [ 443.0, 440.000031, 35.0, 19.0 ],
					"style" : "",
					"text" : "delta~"
				}

			}
, 			{
				"box" : 				{
					"color" : [ 0.836395, 0.811692, 0.839216, 1.0 ],
					"fontname" : "Arial",
					"fontsize" : 9.0,
					"hidden" : 1,
					"id" : "obj-313",
					"maxclass" : "newobj",
					"numinlets" : 2,
					"numoutlets" : 1,
					"outlettype" : [ "signal" ],
					"patching_rect" : [ 443.0, 460.000031, 31.0, 19.0 ],
					"style" : "",
					"text" : "<~ 0."
				}

			}
, 			{
				"box" : 				{
					"color" : [ 0.836395, 0.811692, 0.839216, 1.0 ],
					"fontname" : "Arial",
					"fontsize" : 9.0,
					"id" : "obj-314",
					"maxclass" : "newobj",
					"numinlets" : 2,
					"numoutlets" : 1,
					"outlettype" : [ "signal" ],
					"patching_rect" : [ 443.0, 420.500031, 55.0, 19.0 ],
					"style" : "",
					"text" : "phasor~ 5."
				}

			}
, 			{
				"box" : 				{
					"fontface" : 0,
					"fontname" : "Arial",
					"fontsize" : 9.0,
					"id" : "obj-315",
					"maxclass" : "newobj",
					"numinlets" : 5,
					"numoutlets" : 4,
					"outlettype" : [ "int", "", "", "int" ],
					"patching_rect" : [ 443.0, 529.0, 61.0, 19.0 ],
					"style" : "",
					"text" : "counter 7"
				}

			}
, 			{
				"box" : 				{
					"bgcolor" : [ 0.052478, 0.038747, 0.062737, 1.0 ],
					"candicane2" : [ 0.942601, 0.933517, 1.0, 1.0 ],
					"candicane3" : [ 1.0, 0.990346, 0.986274, 1.0 ],
					"candicane4" : [ 0.987654, 1.0, 1.0, 1.0 ],
					"contdata" : 1,
					"id" : "obj-316",
					"maxclass" : "multislider",
					"numinlets" : 1,
					"numoutlets" : 2,
					"outlettype" : [ "", "" ],
					"parameter_enable" : 0,
					"patching_rect" : [ 546.0, 491.000031, 172.0, 57.0 ],
					"presentation" : 1,
					"presentation_rect" : [ 67.625854, 153.833374, 216.166656, 94.499939 ],
					"setminmax" : [ 0.0, 1000.0 ],
					"size" : 19,
					"slidercolor" : [ 0.803922, 0.898039, 0.909804, 1.0 ],
					"spacing" : 1,
					"style" : ""
				}

			}
, 			{
				"box" : 				{
					"color" : [ 0.836395, 0.811692, 0.839216, 1.0 ],
					"fontname" : "Arial",
					"fontsize" : 9.0,
					"id" : "obj-317",
					"maxclass" : "newobj",
					"numinlets" : 1,
					"numoutlets" : 1,
					"outlettype" : [ "" ],
					"patching_rect" : [ 546.0, 458.500031, 66.0, 19.0 ],
					"style" : "",
					"text" : "prepend fetch"
				}

			}
, 			{
				"box" : 				{
					"id" : "obj-318",
					"maxclass" : "message",
					"numinlets" : 2,
					"numoutlets" : 1,
					"outlettype" : [ "" ],
					"patching_rect" : [ 265.0, 561.333252, 34.0, 22.0 ],
					"style" : "",
					"text" : "1 $1"
				}

			}
, 			{
				"box" : 				{
					"fontname" : "Akkurat-Mono",
					"fontsize" : 9.0,
					"id" : "obj-319",
					"maxclass" : "comment",
					"numinlets" : 1,
					"numoutlets" : 0,
					"patching_rect" : [ 188.0, 368.000031, 50.0, 15.0 ],
					"presentation" : 1,
					"presentation_rect" : [ 18.625854, 101.166687, 42.0, 15.0 ],
					"style" : "",
					"text" : "#",
					"textcolor" : [ 0.848527, 0.909661, 0.909804, 1.0 ],
					"textjustification" : 2
				}

			}
, 			{
				"box" : 				{
					"bgcolor" : [ 0.290196, 0.309804, 0.301961, 0.0 ],
					"fontname" : "Akkurat-Mono",
					"fontsize" : 9.0,
					"id" : "obj-320",
					"maxclass" : "number",
					"numinlets" : 1,
					"numoutlets" : 2,
					"outlettype" : [ "", "bang" ],
					"parameter_enable" : 0,
					"patching_rect" : [ 174.0, 469.000031, 46.0, 17.0 ],
					"presentation" : 1,
					"presentation_rect" : [ 33.625854, 117.166687, 31.0, 17.0 ],
					"style" : "",
					"textcolor" : [ 0.848527, 0.909661, 0.909804, 1.0 ],
					"tricolor" : [ 0.490196, 0.498039, 0.517647, 0.27 ]
				}

			}
, 			{
				"box" : 				{
					"fontname" : "Akkurat-Mono",
					"fontsize" : 9.0,
					"id" : "obj-321",
					"maxclass" : "comment",
					"numinlets" : 1,
					"numoutlets" : 0,
					"patching_rect" : [ 130.0, 349.000031, 51.0, 15.0 ],
					"presentation" : 1,
					"presentation_rect" : [ 18.625854, 62.166748, 44.0, 15.0 ],
					"style" : "",
					"text" : "C",
					"textcolor" : [ 0.848527, 0.909661, 0.909804, 1.0 ],
					"textjustification" : 2
				}

			}
, 			{
				"box" : 				{
					"bgcolor" : [ 0.290196, 0.309804, 0.301961, 0.0 ],
					"fontname" : "Akkurat-Mono",
					"fontsize" : 9.0,
					"format" : 6,
					"id" : "obj-170",
					"maxclass" : "flonum",
					"numinlets" : 1,
					"numoutlets" : 2,
					"outlettype" : [ "", "bang" ],
					"parameter_enable" : 0,
					"patching_rect" : [ 130.0, 368.000031, 54.0, 17.0 ],
					"presentation" : 1,
					"presentation_rect" : [ 33.625854, 78.166748, 37.0, 17.0 ],
					"style" : "",
					"textcolor" : [ 0.848527, 0.909661, 0.909804, 1.0 ],
					"tricolor" : [ 0.490196, 0.498039, 0.517647, 0.27 ]
				}

			}
, 			{
				"box" : 				{
					"color" : [ 0.836395, 0.811692, 0.839216, 1.0 ],
					"fontname" : "Arial",
					"fontsize" : 9.0,
					"hidden" : 1,
					"id" : "obj-323",
					"maxclass" : "newobj",
					"numinlets" : 1,
					"numoutlets" : 2,
					"outlettype" : [ "bang", "bang" ],
					"patching_rect" : [ 130.0, 461.000031, 34.0, 19.0 ],
					"style" : "",
					"text" : "edge~"
				}

			}
, 			{
				"box" : 				{
					"color" : [ 0.836395, 0.811692, 0.839216, 1.0 ],
					"fontname" : "Arial",
					"fontsize" : 9.0,
					"hidden" : 1,
					"id" : "obj-324",
					"maxclass" : "newobj",
					"numinlets" : 1,
					"numoutlets" : 1,
					"outlettype" : [ "signal" ],
					"patching_rect" : [ 130.0, 410.000031, 35.0, 19.0 ],
					"style" : "",
					"text" : "delta~"
				}

			}
, 			{
				"box" : 				{
					"color" : [ 0.836395, 0.811692, 0.839216, 1.0 ],
					"fontname" : "Arial",
					"fontsize" : 9.0,
					"hidden" : 1,
					"id" : "obj-325",
					"maxclass" : "newobj",
					"numinlets" : 2,
					"numoutlets" : 1,
					"outlettype" : [ "signal" ],
					"patching_rect" : [ 130.0, 430.000031, 31.0, 19.0 ],
					"style" : "",
					"text" : "<~ 0."
				}

			}
, 			{
				"box" : 				{
					"color" : [ 0.836395, 0.811692, 0.839216, 1.0 ],
					"fontname" : "Arial",
					"fontsize" : 9.0,
					"id" : "obj-326",
					"maxclass" : "newobj",
					"numinlets" : 2,
					"numoutlets" : 1,
					"outlettype" : [ "signal" ],
					"patching_rect" : [ 130.0, 390.500031, 55.0, 19.0 ],
					"style" : "",
					"text" : "phasor~ 5."
				}

			}
, 			{
				"box" : 				{
					"fontface" : 0,
					"fontname" : "Arial",
					"fontsize" : 9.0,
					"id" : "obj-327",
					"maxclass" : "newobj",
					"numinlets" : 5,
					"numoutlets" : 4,
					"outlettype" : [ "int", "", "", "int" ],
					"patching_rect" : [ 130.0, 499.000031, 61.0, 19.0 ],
					"style" : "",
					"text" : "counter 7"
				}

			}
, 			{
				"box" : 				{
					"bgcolor" : [ 0.052478, 0.038747, 0.062737, 1.0 ],
					"candicane2" : [ 0.942601, 0.933517, 1.0, 1.0 ],
					"candicane3" : [ 1.0, 0.990346, 0.986274, 1.0 ],
					"candicane4" : [ 0.987654, 1.0, 1.0, 1.0 ],
					"contdata" : 1,
					"id" : "obj-328",
					"maxclass" : "multislider",
					"numinlets" : 1,
					"numoutlets" : 2,
					"outlettype" : [ "", "" ],
					"parameter_enable" : 0,
					"patching_rect" : [ 233.0, 461.000031, 172.0, 57.0 ],
					"presentation" : 1,
					"presentation_rect" : [ 67.625854, 46.666748, 216.166656, 85.499939 ],
					"setminmax" : [ 0.0, 1000.0 ],
					"size" : 19,
					"slidercolor" : [ 0.803922, 0.898039, 0.909804, 1.0 ],
					"spacing" : 1,
					"style" : ""
				}

			}
, 			{
				"box" : 				{
					"color" : [ 0.836395, 0.811692, 0.839216, 1.0 ],
					"fontname" : "Arial",
					"fontsize" : 9.0,
					"id" : "obj-329",
					"maxclass" : "newobj",
					"numinlets" : 1,
					"numoutlets" : 1,
					"outlettype" : [ "" ],
					"patching_rect" : [ 233.0, 428.500031, 66.0, 19.0 ],
					"style" : "",
					"text" : "prepend fetch"
				}

			}
, 			{
				"box" : 				{
					"autosave" : 1,
					"bgcolor" : [ 0.018676, 0.19141, 0.321569, 0.360784 ],
					"bgmode" : 0,
					"border" : 0,
					"clickthrough" : 0,
					"color" : [ 0.490196, 0.498039, 0.517647, 0.0 ],
					"fontname" : "Akkurat-Mono",
					"fontsize" : 10.0,
					"id" : "obj-171",
					"maxclass" : "newobj",
					"numinlets" : 2,
					"numoutlets" : 8,
					"offset" : [ 0.0, 0.0 ],
					"outlettype" : [ "signal", "signal", "", "list", "int", "", "", "" ],
					"patching_rect" : [ 185.777832, 186.0, 153.0, 18.0 ],
					"presentation" : 1,
					"presentation_rect" : [ 126.040771, 13.666748, 160.0, 18.0 ],
					"save" : [ "#N", "vst~", "loaduniqueid", 0, "+spiralstretch.vst", ";" ],
					"saved_object_attributes" : 					{
						"annotation_name" : "",
						"parameter_enable" : 0
					}
,
					"snapshot" : 					{
						"filetype" : "C74Snapshot",
						"version" : 2,
						"minorversion" : 0,
						"name" : "snapshotlist",
						"origin" : "vst~",
						"type" : "list",
						"subtype" : "Undefined",
						"embed" : 1,
						"snapshot" : 						{
							"pluginname" : "+spiralstretch.vst",
							"plugindisplayname" : "+spiralstretch",
							"pluginsavedname" : "+spiralstretch",
							"pluginsaveduniqueid" : 0,
							"version" : 1,
							"isbank" : 0,
							"isbase64" : 1,
							"blob" : "92.CMlaKA....fQ3MzZ....ArBb10F...P.....IbjbgklafLUakElb.................................7CSL2L.....9vLyMC..........+..........\t"
						}
,
						"snapshotlist" : 						{
							"current_snapshot" : 0,
							"entries" : [ 								{
									"filetype" : "C74Snapshot",
									"version" : 2,
									"minorversion" : 0,
									"name" : "+spiralstretch",
									"origin" : "+spiralstretch.vst",
									"type" : "VST",
									"subtype" : "MidiEffect",
									"embed" : 0,
									"snapshot" : 									{
										"pluginname" : "+spiralstretch.vst",
										"plugindisplayname" : "+spiralstretch",
										"pluginsavedname" : "+spiralstretch",
										"pluginsaveduniqueid" : 0,
										"version" : 1,
										"isbank" : 0,
										"isbase64" : 1,
										"blob" : "92.CMlaKA....fQ3MzZ....ArBb10F...P.....IbjbgklafLUakElb.................................7CSL2L.....9vLyMC..........+..........\t"
									}
,
									"fileref" : 									{
										"name" : "+spiralstretch",
										"filename" : "+spiralstretch.maxsnap",
										"filepath" : "~/Documents/Max 7/Snapshots",
										"filepos" : -1,
										"snapshotfileid" : "fc0b37872aa1fe49ff6521829eef45cb"
									}

								}
 ]
						}

					}
,
					"style" : "",
					"text" : "vst~ +spiralstretch.vst",
					"textcolor" : [ 0.65098, 0.666667, 0.662745, 0.62 ],
					"varname" : "vst~[5]",
					"viewvisibility" : 0
				}

			}
, 			{
				"box" : 				{
					"coldcolor" : [ 1.0, 1.0, 1.0, 1.0 ],
					"id" : "obj-331",
					"maxclass" : "live.gain~",
					"numinlets" : 2,
					"numoutlets" : 5,
					"outlettype" : [ "signal", "signal", "", "float", "list" ],
					"parameter_enable" : 1,
					"patching_rect" : [ 304.5, 244.0, 34.0, 136.0 ],
					"presentation" : 1,
					"presentation_rect" : [ 602.374146, 46.666748, 34.0, 202.0 ],
					"saved_attribute_attributes" : 					{
						"valueof" : 						{
							"parameter_longname" : "live.gain~[4]",
							"parameter_shortname" : "level",
							"parameter_type" : 0,
							"parameter_mmin" : -70.0,
							"parameter_mmax" : 6.0,
							"parameter_initial" : [ 0.0 ],
							"parameter_unitstyle" : 4
						}

					}
,
					"showname" : 0,
					"shownumber" : 0,
					"tribordercolor" : [ 0.111466, 0.143442, 0.156191, 1.0 ],
					"tricolor" : [ 0.111466, 0.143442, 0.156191, 1.0 ],
					"varname" : "live.gain~[6]",
					"warmcolor" : [ 0.65098, 0.666667, 0.662745, 1.0 ]
				}

			}
, 			{
				"box" : 				{
					"angle" : 270.0,
					"bgcolor" : [ 0.290196, 0.309804, 0.301961, 0.0 ],
					"border" : 1,
					"bordercolor" : [ 0.847059, 0.909804, 0.909804, 0.8 ],
					"id" : "obj-16",
					"maxclass" : "panel",
					"mode" : 0,
					"numinlets" : 1,
					"numoutlets" : 0,
					"patching_rect" : [ 66.638794, 383.0, 128.0, 128.0 ],
					"presentation" : 1,
					"presentation_rect" : [ 2.638794, 2.523499, 644.0, 261.0 ],
					"proportion" : 0.39,
					"rounded" : 0,
					"style" : ""
				}

			}
 ],
		"lines" : [ 			{
				"patchline" : 				{
					"destination" : [ "obj-314", 0 ],
					"disabled" : 0,
					"hidden" : 0,
					"source" : [ "obj-122", 0 ]
				}

			}
, 			{
				"patchline" : 				{
					"destination" : [ "obj-326", 0 ],
					"disabled" : 0,
					"hidden" : 0,
					"source" : [ "obj-170", 0 ]
				}

			}
, 			{
				"patchline" : 				{
					"destination" : [ "obj-175", 1 ],
					"disabled" : 0,
					"hidden" : 0,
					"source" : [ "obj-171", 1 ]
				}

			}
, 			{
				"patchline" : 				{
					"destination" : [ "obj-175", 0 ],
					"disabled" : 0,
					"hidden" : 0,
					"source" : [ "obj-171", 0 ]
				}

			}
, 			{
				"patchline" : 				{
					"destination" : [ "obj-331", 1 ],
					"disabled" : 0,
					"hidden" : 0,
					"source" : [ "obj-175", 1 ]
				}

			}
, 			{
				"patchline" : 				{
					"destination" : [ "obj-331", 0 ],
					"disabled" : 0,
					"hidden" : 0,
					"source" : [ "obj-175", 0 ]
				}

			}
, 			{
				"patchline" : 				{
					"destination" : [ "obj-315", 4 ],
					"disabled" : 0,
					"hidden" : 0,
					"source" : [ "obj-2", 0 ]
				}

			}
, 			{
				"patchline" : 				{
					"destination" : [ "obj-171", 0 ],
					"disabled" : 0,
					"hidden" : 0,
					"source" : [ "obj-281", 0 ]
				}

			}
, 			{
				"patchline" : 				{
					"destination" : [ "obj-290", 4 ],
					"disabled" : 0,
					"hidden" : 0,
					"source" : [ "obj-283", 0 ]
				}

			}
, 			{
				"patchline" : 				{
					"destination" : [ "obj-289", 0 ],
					"disabled" : 0,
					"hidden" : 0,
					"source" : [ "obj-285", 0 ]
				}

			}
, 			{
				"patchline" : 				{
					"destination" : [ "obj-290", 0 ],
					"disabled" : 0,
					"hidden" : 0,
					"source" : [ "obj-286", 0 ]
				}

			}
, 			{
				"patchline" : 				{
					"destination" : [ "obj-288", 0 ],
					"disabled" : 0,
					"hidden" : 0,
					"source" : [ "obj-287", 0 ]
				}

			}
, 			{
				"patchline" : 				{
					"destination" : [ "obj-286", 0 ],
					"disabled" : 0,
					"hidden" : 0,
					"source" : [ "obj-288", 0 ]
				}

			}
, 			{
				"patchline" : 				{
					"destination" : [ "obj-287", 0 ],
					"disabled" : 0,
					"hidden" : 0,
					"source" : [ "obj-289", 0 ]
				}

			}
, 			{
				"patchline" : 				{
					"destination" : [ "obj-292", 0 ],
					"disabled" : 0,
					"hidden" : 0,
					"midpoints" : [ 364.5, 740.000061, 446.0, 740.000061, 446.0, 629.500061, 467.5, 629.500061 ],
					"source" : [ "obj-290", 0 ]
				}

			}
, 			{
				"patchline" : 				{
					"destination" : [ "obj-184", 0 ],
					"disabled" : 0,
					"hidden" : 0,
					"source" : [ "obj-291", 1 ]
				}

			}
, 			{
				"patchline" : 				{
					"destination" : [ "obj-281", 0 ],
					"disabled" : 0,
					"hidden" : 0,
					"source" : [ "obj-291", 1 ]
				}

			}
, 			{
				"patchline" : 				{
					"destination" : [ "obj-291", 0 ],
					"disabled" : 0,
					"hidden" : 0,
					"source" : [ "obj-292", 0 ]
				}

			}
, 			{
				"patchline" : 				{
					"destination" : [ "obj-171", 0 ],
					"disabled" : 0,
					"hidden" : 0,
					"source" : [ "obj-294", 0 ]
				}

			}
, 			{
				"patchline" : 				{
					"destination" : [ "obj-303", 4 ],
					"disabled" : 0,
					"hidden" : 0,
					"source" : [ "obj-296", 0 ]
				}

			}
, 			{
				"patchline" : 				{
					"destination" : [ "obj-302", 0 ],
					"disabled" : 0,
					"hidden" : 0,
					"source" : [ "obj-298", 0 ]
				}

			}
, 			{
				"patchline" : 				{
					"destination" : [ "obj-303", 0 ],
					"disabled" : 0,
					"hidden" : 0,
					"source" : [ "obj-299", 0 ]
				}

			}
, 			{
				"patchline" : 				{
					"destination" : [ "obj-301", 0 ],
					"disabled" : 0,
					"hidden" : 0,
					"source" : [ "obj-300", 0 ]
				}

			}
, 			{
				"patchline" : 				{
					"destination" : [ "obj-299", 0 ],
					"disabled" : 0,
					"hidden" : 0,
					"source" : [ "obj-301", 0 ]
				}

			}
, 			{
				"patchline" : 				{
					"destination" : [ "obj-300", 0 ],
					"disabled" : 0,
					"hidden" : 0,
					"source" : [ "obj-302", 0 ]
				}

			}
, 			{
				"patchline" : 				{
					"destination" : [ "obj-305", 0 ],
					"disabled" : 0,
					"hidden" : 0,
					"midpoints" : [ 513.5, 286.0, 595.0, 286.0, 595.0, 175.5, 616.5, 175.5 ],
					"source" : [ "obj-303", 0 ]
				}

			}
, 			{
				"patchline" : 				{
					"destination" : [ "obj-186", 0 ],
					"disabled" : 0,
					"hidden" : 0,
					"source" : [ "obj-304", 1 ]
				}

			}
, 			{
				"patchline" : 				{
					"destination" : [ "obj-294", 0 ],
					"disabled" : 0,
					"hidden" : 0,
					"source" : [ "obj-304", 1 ]
				}

			}
, 			{
				"patchline" : 				{
					"destination" : [ "obj-304", 0 ],
					"disabled" : 0,
					"hidden" : 0,
					"source" : [ "obj-305", 0 ]
				}

			}
, 			{
				"patchline" : 				{
					"destination" : [ "obj-315", 0 ],
					"disabled" : 0,
					"hidden" : 0,
					"source" : [ "obj-311", 0 ]
				}

			}
, 			{
				"patchline" : 				{
					"destination" : [ "obj-313", 0 ],
					"disabled" : 0,
					"hidden" : 0,
					"source" : [ "obj-312", 0 ]
				}

			}
, 			{
				"patchline" : 				{
					"destination" : [ "obj-311", 0 ],
					"disabled" : 0,
					"hidden" : 0,
					"source" : [ "obj-313", 0 ]
				}

			}
, 			{
				"patchline" : 				{
					"destination" : [ "obj-312", 0 ],
					"disabled" : 0,
					"hidden" : 0,
					"source" : [ "obj-314", 0 ]
				}

			}
, 			{
				"patchline" : 				{
					"destination" : [ "obj-317", 0 ],
					"disabled" : 0,
					"hidden" : 0,
					"midpoints" : [ 452.5, 558.0, 534.0, 558.0, 534.0, 447.5, 555.5, 447.5 ],
					"source" : [ "obj-315", 0 ]
				}

			}
, 			{
				"patchline" : 				{
					"destination" : [ "obj-185", 0 ],
					"disabled" : 0,
					"hidden" : 0,
					"source" : [ "obj-316", 1 ]
				}

			}
, 			{
				"patchline" : 				{
					"destination" : [ "obj-316", 0 ],
					"disabled" : 0,
					"hidden" : 0,
					"source" : [ "obj-317", 0 ]
				}

			}
, 			{
				"patchline" : 				{
					"destination" : [ "obj-171", 0 ],
					"disabled" : 0,
					"hidden" : 0,
					"source" : [ "obj-318", 0 ]
				}

			}
, 			{
				"patchline" : 				{
					"destination" : [ "obj-327", 4 ],
					"disabled" : 0,
					"hidden" : 0,
					"source" : [ "obj-320", 0 ]
				}

			}
, 			{
				"patchline" : 				{
					"destination" : [ "obj-327", 0 ],
					"disabled" : 0,
					"hidden" : 0,
					"source" : [ "obj-323", 0 ]
				}

			}
, 			{
				"patchline" : 				{
					"destination" : [ "obj-325", 0 ],
					"disabled" : 0,
					"hidden" : 0,
					"source" : [ "obj-324", 0 ]
				}

			}
, 			{
				"patchline" : 				{
					"destination" : [ "obj-323", 0 ],
					"disabled" : 0,
					"hidden" : 0,
					"source" : [ "obj-325", 0 ]
				}

			}
, 			{
				"patchline" : 				{
					"destination" : [ "obj-324", 0 ],
					"disabled" : 0,
					"hidden" : 0,
					"source" : [ "obj-326", 0 ]
				}

			}
, 			{
				"patchline" : 				{
					"destination" : [ "obj-329", 0 ],
					"disabled" : 0,
					"hidden" : 0,
					"midpoints" : [ 139.5, 528.0, 221.0, 528.0, 221.0, 417.5, 242.5, 417.5 ],
					"source" : [ "obj-327", 0 ]
				}

			}
, 			{
				"patchline" : 				{
					"destination" : [ "obj-183", 0 ],
					"disabled" : 0,
					"hidden" : 0,
					"source" : [ "obj-328", 1 ]
				}

			}
, 			{
				"patchline" : 				{
					"destination" : [ "obj-318", 0 ],
					"disabled" : 0,
					"hidden" : 0,
					"source" : [ "obj-328", 1 ]
				}

			}
, 			{
				"patchline" : 				{
					"destination" : [ "obj-328", 0 ],
					"disabled" : 0,
					"hidden" : 0,
					"source" : [ "obj-329", 0 ]
				}

			}
, 			{
				"patchline" : 				{
					"destination" : [ "obj-1", 0 ],
					"disabled" : 0,
					"hidden" : 0,
					"source" : [ "obj-331", 0 ]
				}

			}
, 			{
				"patchline" : 				{
					"destination" : [ "obj-3", 0 ],
					"disabled" : 0,
					"hidden" : 0,
					"source" : [ "obj-331", 1 ]
				}

			}
, 			{
				"patchline" : 				{
					"destination" : [ "obj-171", 0 ],
					"disabled" : 0,
					"hidden" : 0,
					"source" : [ "obj-4", 0 ]
				}

			}
, 			{
				"patchline" : 				{
					"destination" : [ "obj-171", 1 ],
					"disabled" : 0,
					"hidden" : 0,
					"source" : [ "obj-5", 0 ]
				}

			}
 ],
		"parameters" : 		{
			"obj-175" : [ "vst~[11]", "vst~", 0 ],
			"obj-331" : [ "live.gain~[4]", "level", 0 ]
		}
,
		"dependency_cache" : [ 			{
				"name" : "+spiralstretch.maxsnap",
				"bootpath" : "~/Documents/Max 7/Snapshots",
				"type" : "mx@s",
				"implicit" : 1
			}
, 			{
				"name" : "Etch.vst.maxsnap",
				"bootpath" : "~/Documents/Max 7/Snapshots",
				"type" : "mx@s",
				"implicit" : 1
			}
 ],
		"autosave" : 0,
		"styles" : [ 			{
				"name" : "AudioStatus_Menu",
				"default" : 				{
					"bgfillcolor" : 					{
						"type" : "color",
						"color" : [ 0.294118, 0.313726, 0.337255, 1 ],
						"color1" : [ 0.454902, 0.462745, 0.482353, 0.0 ],
						"color2" : [ 0.290196, 0.309804, 0.301961, 1.0 ],
						"angle" : 270.0,
						"proportion" : 0.39,
						"autogradient" : 0
					}

				}
,
				"parentstyle" : "",
				"multi" : 0
			}
, 			{
				"name" : "multisliderBlue&Yellow",
				"default" : 				{
					"color" : [ 0.960784, 0.867826, 0.084811, 1.0 ],
					"bgcolor" : [ 0.317647, 0.654902, 0.976471, 0.79 ]
				}
,
				"parentstyle" : "",
				"multi" : 0
			}
, 			{
				"name" : "newobjBlue-1",
				"default" : 				{
					"accentcolor" : [ 0.317647, 0.654902, 0.976471, 1.0 ]
				}
,
				"parentstyle" : "",
				"multi" : 0
			}
, 			{
				"name" : "newobjGold-1",
				"default" : 				{
					"accentcolor" : [ 0.764706, 0.592157, 0.101961, 1.0 ]
				}
,
				"parentstyle" : "",
				"multi" : 0
			}
, 			{
				"name" : "newobjGreen-1",
				"default" : 				{
					"accentcolor" : [ 0.0, 0.533333, 0.168627, 1.0 ]
				}
,
				"parentstyle" : "",
				"multi" : 0
			}
, 			{
				"name" : "newobjRed-1",
				"default" : 				{
					"accentcolor" : [ 0.784314, 0.145098, 0.023529, 1.0 ]
				}
,
				"parentstyle" : "",
				"multi" : 0
			}
, 			{
				"name" : "newobjYellow-1",
				"default" : 				{
					"fontsize" : [ 12.059008 ],
					"accentcolor" : [ 0.82517, 0.78181, 0.059545, 1.0 ]
				}
,
				"parentstyle" : "",
				"multi" : 0
			}
, 			{
				"name" : "numberGold-1",
				"default" : 				{
					"accentcolor" : [ 0.764706, 0.592157, 0.101961, 1.0 ]
				}
,
				"parentstyle" : "",
				"multi" : 0
			}
 ]
	}

}
