{
	"patcher" : 	{
		"fileversion" : 1,
		"appversion" : 		{
			"major" : 7,
			"minor" : 3,
			"revision" : 4,
			"architecture" : "x86",
			"modernui" : 1
		}
,
		"rect" : [ 59.0, 103.0, 1187.0, 658.0 ],
		"bgcolor" : [ 0.0, 0.0, 0.0, 1.0 ],
		"editing_bgcolor" : [ 0.0, 0.0, 0.0, 1.0 ],
		"bglocked" : 0,
		"openinpresentation" : 1,
		"default_fontsize" : 12.0,
		"default_fontface" : 0,
		"default_fontname" : "Arial",
		"gridonopen" : 1,
		"gridsize" : [ 15.0, 15.0 ],
		"gridsnaponopen" : 1,
		"objectsnaponopen" : 1,
		"statusbarvisible" : 2,
		"toolbarvisible" : 1,
		"lefttoolbarpinned" : 0,
		"toptoolbarpinned" : 0,
		"righttoolbarpinned" : 0,
		"bottomtoolbarpinned" : 0,
		"toolbars_unpinned_last_save" : 0,
		"tallnewobj" : 0,
		"boxanimatetime" : 200,
		"enablehscroll" : 1,
		"enablevscroll" : 1,
		"devicewidth" : 0.0,
		"description" : "",
		"digest" : "",
		"tags" : "",
		"style" : "",
		"subpatcher_template" : "",
		"boxes" : [ 			{
				"box" : 				{
					"fontname" : "Lato",
					"fontsize" : 12.0,
					"id" : "obj-8",
					"maxclass" : "newobj",
					"numinlets" : 1,
					"numoutlets" : 7,
					"outlettype" : [ "signal", "signal", "signal", "signal", "signal", "signal", "signal" ],
					"patcher" : 					{
						"fileversion" : 1,
						"appversion" : 						{
							"major" : 7,
							"minor" : 3,
							"revision" : 4,
							"architecture" : "x86",
							"modernui" : 1
						}
,
						"rect" : [ 59.0, 103.0, 1187.0, 658.0 ],
						"bgcolor" : [ 0.9, 0.9, 0.9, 1.0 ],
						"editing_bgcolor" : [ 0.9, 0.9, 0.9, 1.0 ],
						"bglocked" : 0,
						"openinpresentation" : 0,
						"default_fontsize" : 12.0,
						"default_fontface" : 0,
						"default_fontname" : "Lato",
						"gridonopen" : 1,
						"gridsize" : [ 15.0, 15.0 ],
						"gridsnaponopen" : 1,
						"objectsnaponopen" : 1,
						"statusbarvisible" : 2,
						"toolbarvisible" : 1,
						"lefttoolbarpinned" : 0,
						"toptoolbarpinned" : 0,
						"righttoolbarpinned" : 0,
						"bottomtoolbarpinned" : 0,
						"toolbars_unpinned_last_save" : 0,
						"tallnewobj" : 0,
						"boxanimatetime" : 200,
						"enablehscroll" : 1,
						"enablevscroll" : 1,
						"devicewidth" : 0.0,
						"description" : "",
						"digest" : "",
						"tags" : "",
						"style" : "",
						"subpatcher_template" : "",
						"boxes" : [ 							{
								"box" : 								{
									"fontname" : "Lato",
									"fontsize" : 12.0,
									"id" : "obj-6",
									"maxclass" : "newobj",
									"numinlets" : 1,
									"numoutlets" : 0,
									"patching_rect" : [ 662.0, 688.0, 37.0, 23.0 ],
									"style" : "",
									"text" : "out 7"
								}

							}
, 							{
								"box" : 								{
									"fontname" : "Lato",
									"fontsize" : 12.0,
									"id" : "obj-5",
									"maxclass" : "newobj",
									"numinlets" : 1,
									"numoutlets" : 0,
									"patching_rect" : [ 553.833313, 688.0, 37.0, 23.0 ],
									"style" : "",
									"text" : "out 6"
								}

							}
, 							{
								"box" : 								{
									"fontname" : "Lato",
									"fontsize" : 12.0,
									"id" : "obj-4",
									"maxclass" : "newobj",
									"numinlets" : 1,
									"numoutlets" : 0,
									"patching_rect" : [ 445.666656, 688.0, 37.0, 23.0 ],
									"style" : "",
									"text" : "out 5"
								}

							}
, 							{
								"box" : 								{
									"fontname" : "Lato",
									"fontsize" : 12.0,
									"id" : "obj-13",
									"maxclass" : "newobj",
									"numinlets" : 1,
									"numoutlets" : 0,
									"patching_rect" : [ 337.5, 688.0, 37.0, 23.0 ],
									"style" : "",
									"text" : "out 4"
								}

							}
, 							{
								"box" : 								{
									"fontname" : "Lato",
									"fontsize" : 12.0,
									"id" : "obj-11",
									"maxclass" : "newobj",
									"numinlets" : 1,
									"numoutlets" : 0,
									"patching_rect" : [ 229.333328, 688.0, 37.0, 23.0 ],
									"style" : "",
									"text" : "out 3"
								}

							}
, 							{
								"box" : 								{
									"fontname" : "Lato",
									"fontsize" : 12.0,
									"id" : "obj-10",
									"maxclass" : "newobj",
									"numinlets" : 1,
									"numoutlets" : 0,
									"patching_rect" : [ 121.166664, 688.0, 37.0, 23.0 ],
									"style" : "",
									"text" : "out 2"
								}

							}
, 							{
								"box" : 								{
									"fontname" : "Lato",
									"fontsize" : 12.0,
									"id" : "obj-3",
									"maxclass" : "newobj",
									"numinlets" : 1,
									"numoutlets" : 0,
									"patching_rect" : [ 13.0, 688.0, 37.0, 23.0 ],
									"style" : "",
									"text" : "out 1"
								}

							}
, 							{
								"box" : 								{
									"fontname" : "Lato",
									"fontsize" : 12.0,
									"id" : "obj-2",
									"maxclass" : "newobj",
									"numinlets" : 0,
									"numoutlets" : 1,
									"outlettype" : [ "" ],
									"patching_rect" : [ 13.0, 18.0, 198.0, 23.0 ],
									"style" : "",
									"text" : "in 1 @comment \"source to sample\""
								}

							}
, 							{
								"box" : 								{
									"code" : "/*\r\n\tWaveset chopper / repeater\r\n\r\n\tThis program divides the input into segments, and plays these segments back.\r\n\tIt could be seen as a time-domain, granular form of analysis/resynthesis.\r\n\t\r\n\tThe program contains a recording section, \r\n\t\twhich stores grains into a Data object (segment_data)\r\n\tand a playback section,\r\n\t\twhich selects and plays these grains one-by-one\r\n\t\r\n\tThe grains are not enveloped; \r\n\t\tinstead the input is segmented at points where the signal is rising and crosses zero\r\n\t\t\r\n\tA positive zero-crossing means that: \r\n\t\ta: previous sample is less than zero\r\n\t\tb: next sample is greater than zero\r\n\t\r\n\tFor pure sounds a segment corresponds to one or more wavecycles, \r\n\t\tbut for complex sounds it can be somewhat stochastic.\r\n\t\r\n\tRECORDING:\r\n\t\t\r\n\tSince waveforms rarely cross zero at an exact sample location, \r\n\t\tthe actual crossing is somewhere between a and b.\r\n\t\tThe program estimates this sub-sample crossing phase (and stores it in offset_data)\r\n\t\tIt also stores the sub-sample accurate segment length (in length_data)\r\n\t\t\r\n\tThe segment_data recorded includes the sample just before the first crossing,\r\n\t\tand the sample just after the last, in order to contain both actual crossings.\r\n\t\tI.e. each captured segment looks like [a1, b1, ... b2 a2 ... a3, b3]\r\n\t\r\n\tWhen a segment finishes recording, a new segment is chosen to write into (write_segment)\r\n\t\r\n\tPLAYBACK:\r\n\t\r\n\tThe playback section is continuously playing a segment (play_segment)\r\n\t\t\r\n\tPlayback includes additional calculations,\r\n \t\tto ensure the sub-sample phase offset is used and retained between segments\r\n\r\n\tWhen the segment playback is done (possibly after several repeats),\r\n\t\ta new segment is selected according to the current strategy (play_mode)\r\n\t\t\r\n\t\t\r\n\tGraham Wakefield 2012\r\n*/\r\n\r\n\r\n// the segment storage (each segment on its own channel):\r\nData segment_data(10004, 64);\r\n// the length of each segment (in samples):\r\nData length_data(64, 1);\r\n// each segment is also offset slightly (sub-sample phase delay):\r\nData offset_data(64, 1);\r\n// each segment also stores it's average energy (root-mean square):\r\nData rms_data(64, 1);\r\n\r\n// set to zero to disable new segment capture:\r\nParam capture(1, min=0, max=1);\r\n// how many zero crossings per segment:\r\nParam crossings(1, min=1);\r\n// the minimum & maximum length of a segment:\r\nParam max_length(10000, min=16, max=10000);\r\nParam min_length(100, min=1, max=10000);\r\n// how many times a segment is played back:\r\nParam repeats(1, min=1);\r\n// hold the current playback segment:\r\nParam hold(0, min=0, max=1);\r\n// choose the strategy to play back grains:\r\nParam playmode(0, min=0, max=4);\r\n// choose how to select playback rates/pitches:\r\nParam pitchedmode(0, min=0, max=4);\r\n// playback frequency for pitchedmode enabled:\r\nParam freq(220, min=0);\r\n// playback rate for pitchedmode not enabled:\r\nParam rate(1, min=0);\r\n\r\n// the segment currently being written to:\r\nHistory write_segment(1);\r\n// the number of samples since the last capture:\r\nHistory write_index(0);\r\n// the number of rising zero-crossings since the last capture:\r\nHistory crossing_count(0);\r\n\r\n// the segment currently being played:\r\nHistory play_segment(0);\r\n// the sample index of playback:\r\nHistory play_index(0);\r\n// the length of the playing segment:\r\nHistory play_len(0);\r\n// the offset of the playing segment:\r\nHistory play_offset(0);\r\n// the loudness of the playing segment:\r\nHistory play_rms(0.1);\r\n// used to create smooth overlaps\r\nHistory prev_input;\r\n// used to accumulate the segment energy total:\r\nHistory energy_sum;\r\n\r\n// the total length of all segments\r\nHistory total_length;\r\n\r\n// the number of segments:\r\nnum_segments = channels(segment_data);\r\n\r\n\r\n\r\n// RECORDING SECTION:\r\n\r\n// DC blocking filter used to remove bias in the input:\r\nunbiased_input = dcblock(in1); \r\n// accumulate energy:\r\nenergy_sum = energy_sum + unbiased_input*unbiased_input;\r\n\r\n// update write index:\r\nwrite_index = write_index + 1;\r\n// always write input into current segment:\r\npoke(segment_data, unbiased_input, write_index, write_segment);\r\n\r\n// detect rising zero-crossing: \r\nis_crossing = change(unbiased_input > 0) > 0;\r\n// capture behavior is triggered on the rising zero-crossing:\r\nif (is_crossing) {\r\n\t\r\n\t// if the segment is too long, \r\n\tif (write_index > max_length) {\r\n\t\t// reset the counters\t\t\r\n\t\tcrossing_count = 0;\r\n\t\twrite_index = 0;\t\r\n\t\t\r\n\t} else {\r\n\t\t// count rising zero-crossings in this segment:\r\n\t\tcrossing_count = crossing_count + 1;\r\n\t\t\t\r\n\t\t// decide whether the segment is complete:\r\n\t\t// only when capture is enabled\r\n\t\t// only when enough zero-crossings have occurred\r\n\t\t// only when enough samples have elapsed\r\n\t\t// only when not too many samples have elapsed\r\n\t\tis_complete = (capture \r\n\t\t\t&& crossing_count >= crossings\r\n\t\t\t&& write_index >= min_length);\r\n\t\tif (is_complete) {\t\r\n\t\t\t\r\n\t\t\t// at what theoretical sample index did it cross?\r\n\t\t\t// estimate as linear intersection:\r\n\t\t\toffset = prev_input / (prev_input - unbiased_input);\r\n\t\t\t\r\n\t\t\t// compare the previous offset:\r\n\t\t\tprev_offset = peek(offset_data, write_segment, 0);\r\n\t\t\t\r\n\t\t\t// store segment length:\r\n\t\t\t// adjusted for the fractional component\r\n\t\t\t// minus one for the extra wrapping sample (a,b,...b,a,...,a,b)\r\n\t\t\tlen = write_index + offset - prev_offset - 1;\n\t\t\t// update total length:\r\n\t\t\tprev_length = peek(length_data, write_segment, 0);\n\t\t\ttotal_length = total_length - prev_length + len;\r\n\t\t\t// store new length:\n\t\t\tpoke(length_data, len, write_segment, 0);\r\n\t\t\t\r\n\t\t\t// store segment energy:\r\n\t\t\t// (root mean square, over number of samples measured)\r\n\t\t\trms = sqrt(energy_sum / floor(len));\r\n\t\t\tpoke(rms_data, rms, write_segment, 0);\r\n\t\t\t\r\n\t\t\t// reset counters:\r\n\t\t\tcrossing_count = 0;\r\n\t\t\tenergy_sum = 0;\r\n\t\t\t\r\n\t\t\t// switch to a new segment:\r\n\t\t\twrite_segment = wrap(write_segment + 1, 0, num_segments);\r\n\t\t\t// don't write into what is currently playing:\r\n\t\t\tif (write_segment == play_segment) {\r\n\t\t\t\twrite_segment = wrap(write_segment + 1, 0, num_segments);\r\n\t\t\t}\r\n\t\t\t\r\n\t\t\t// store the new offset:\r\n\t\t\tpoke(offset_data, offset, write_segment, 0);\r\n\t\t\t\r\n\t\t\t// write the previous & current (a,b) into the new segment:\r\n\t\t\tpoke(segment_data, prev_input, 0, write_segment);\r\n\t\t\tpoke(segment_data, unbiased_input, 1, write_segment);\r\n\t\t\twrite_index = 1;\r\n\t\t} \r\n\t}\r\n}\r\n\r\n// remember previous input:\r\nprev_input = unbiased_input;\r\n\r\n\r\n\r\n// PLAYBACK SECTION:\r\n\r\nr = rate;\r\n// update playback index:\r\nif (pitchedmode < 1) {\r\n\t// no change\r\n\t\r\n} else if (pitchedmode < 2) {\t\r\n\t// ascending:\r\n\td = play_index / play_len;\r\n\tr = rate * max(1, d);\r\n\t\r\n} else if (pitchedmode < 3) {\r\n\t// descending:\r\n\td = ceil(play_index / play_len);\r\n\tr = rate / max(1, d*d);\r\n\t\r\n} else {\r\n\t// try to play back at a chosen frequency\r\n\t// (compensating for estimated original sample frequency)\r\n\tr = freq * play_len / (samplerate * crossings);\r\n}\r\n// update playback index:\r\nplay_index = play_index + r;\r\n// actual play index needs to stay within len:\r\n// (can be fun to use wrap, fold or clip here)\r\nactual_play_index = wrap(play_index, 0, play_len);\r\n\r\n// play the current segment waveform:\r\n// (offset by the waveform zero-crossing position)\r\nout1 = peek(segment_data, play_offset + actual_play_index, play_segment, interp=\"linear\");\r\n\r\n// switch to a new segment?\r\nif (play_index >= play_len * floor(repeats)) {\r\n\t\r\n\t// reset to the current actual play position\r\n\tplay_index = actual_play_index;\r\n\t\r\n\tif (!hold) {\r\n\t\t// move to a new segment\r\n\t\t// some alternatives... \r\n\t\tif (playmode < 1) {\r\n\t\t\t\r\n\t\t\t// play in forward sequence\r\n\t\t\tplay_segment = wrap(play_segment + 1, 0, num_segments);\r\n\t\t\t// caveat: don't play what is currently being written:\r\n\t\t\tif (write_segment == play_segment) {\r\n\t\t\t\tplay_segment = wrap(write_segment + 1, 0, num_segments);\r\n\t\t\t}\r\n\t\t\t\r\n\t\t} else if (playmode < 2) {\r\n\t\t\t\r\n\t\t\t// play in reverse sequence\r\n\t\t\tplay_segment = wrap(play_segment - 1, 0, num_segments);\r\n\t\t\t// caveat: don't play what is currently being written:\r\n\t\t\tif (write_segment == play_segment) {\r\n\t\t\t\tplay_segment = wrap(write_segment - 1, 0, num_segments);\r\n\t\t\t}\r\n\t\t\t\r\n\t\t} else if (playmode < 3) {\r\n\t\t\t\r\n\t\t\t// choose direction by random walk:\r\n\t\t\tdirection = sign(noise());\r\n\t\t\tplay_segment = wrap(play_segment + direction, 0, num_segments);\r\n\t\t\t// caveat: don't play what is currently being written:\r\n\t\t\tif (write_segment == play_segment) {\r\n\t\t\t\tplay_segment = wrap(write_segment + direction, 0, num_segments);\r\n\t\t\t}\r\n\t\t\t\r\n\t\t} else if (playmode < 4) {\r\n\t\t\t\r\n\t\t\t// choose randomly:\r\n\t\t\tdirection = 1 + ceil(num_segments * (noise() + 1)/2);\r\n\t\t\tplay_segment = wrap(play_segment + direction, 0, num_segments);\r\n\t\t\t// caveat: don't play what is currently being written:\r\n\t\t\tif (write_segment == play_segment) {\r\n\t\t\t\tplay_segment = wrap(write_segment - 1, 0, num_segments);\r\n\t\t\t}\r\n\t\t\t\r\n\t\t} else {\r\n\t\t\t\r\n\t\t\t// play most recently recorded:\r\n\t\t\tplay_segment = wrap(write_segment - 1, 0, num_segments);\r\n\t\t\t\r\n\t\t} \r\n\t\t\r\n\t\t// get the new playback length\r\n\t\tplay_len = peek(length_data, play_segment, 0);\r\n\t\t// get the new playback offset\r\n\t\tplay_offset = peek(offset_data, play_segment, 0);\r\n\t\t// and the new playback loudness\r\n\t\tplay_rms = peek(rms_data, play_segment, 0);\r\n\t}\t\r\n} \r\n\r\n// show what's actually happening:\r\nout2 = write_segment;\r\nout3 = play_segment;\r\nout4 = play_len;\r\nout5 = play_index / play_len;\r\nout6 = play_rms;\r\nout7 = total_length;",
									"fontface" : 0,
									"fontname" : "Lato",
									"fontsize" : 12.0,
									"id" : "obj-1",
									"maxclass" : "codebox",
									"numinlets" : 1,
									"numoutlets" : 7,
									"outlettype" : [ "", "", "", "", "", "", "" ],
									"patching_rect" : [ 13.0, 52.0, 668.0, 626.0 ],
									"style" : ""
								}

							}
 ],
						"lines" : [ 							{
								"patchline" : 								{
									"destination" : [ "obj-10", 0 ],
									"source" : [ "obj-1", 1 ]
								}

							}
, 							{
								"patchline" : 								{
									"destination" : [ "obj-11", 0 ],
									"source" : [ "obj-1", 2 ]
								}

							}
, 							{
								"patchline" : 								{
									"destination" : [ "obj-13", 0 ],
									"source" : [ "obj-1", 3 ]
								}

							}
, 							{
								"patchline" : 								{
									"destination" : [ "obj-3", 0 ],
									"source" : [ "obj-1", 0 ]
								}

							}
, 							{
								"patchline" : 								{
									"destination" : [ "obj-4", 0 ],
									"source" : [ "obj-1", 4 ]
								}

							}
, 							{
								"patchline" : 								{
									"destination" : [ "obj-5", 0 ],
									"source" : [ "obj-1", 5 ]
								}

							}
, 							{
								"patchline" : 								{
									"destination" : [ "obj-6", 0 ],
									"source" : [ "obj-1", 6 ]
								}

							}
, 							{
								"patchline" : 								{
									"destination" : [ "obj-1", 0 ],
									"source" : [ "obj-2", 0 ]
								}

							}
 ],
						"autosave" : 0
					}
,
					"patching_rect" : [ 583.0, 465.5, 584.650024, 23.0 ],
					"style" : "",
					"text" : "gen~"
				}

			}
, 			{
				"box" : 				{
					"fontname" : "Lato",
					"fontsize" : 12.0,
					"id" : "obj-34",
					"maxclass" : "newobj",
					"numinlets" : 2,
					"numoutlets" : 1,
					"outlettype" : [ "signal" ],
					"patcher" : 					{
						"fileversion" : 1,
						"appversion" : 						{
							"major" : 7,
							"minor" : 3,
							"revision" : 4,
							"architecture" : "x86",
							"modernui" : 1
						}
,
						"rect" : [ 59.0, 103.0, 1187.0, 658.0 ],
						"editing_bgcolor" : [ 0.9, 0.9, 0.9, 1.0 ],
						"bglocked" : 0,
						"openinpresentation" : 0,
						"default_fontsize" : 12.0,
						"default_fontface" : 0,
						"default_fontname" : "Arial",
						"gridonopen" : 1,
						"gridsize" : [ 15.0, 15.0 ],
						"gridsnaponopen" : 1,
						"objectsnaponopen" : 1,
						"statusbarvisible" : 2,
						"toolbarvisible" : 1,
						"lefttoolbarpinned" : 0,
						"toptoolbarpinned" : 0,
						"righttoolbarpinned" : 0,
						"bottomtoolbarpinned" : 0,
						"toolbars_unpinned_last_save" : 0,
						"tallnewobj" : 0,
						"boxanimatetime" : 200,
						"enablehscroll" : 1,
						"enablevscroll" : 1,
						"devicewidth" : 0.0,
						"description" : "",
						"digest" : "",
						"tags" : "",
						"style" : "",
						"subpatcher_template" : "",
						"boxes" : [ 							{
								"box" : 								{
									"id" : "obj-1",
									"maxclass" : "newobj",
									"numinlets" : 0,
									"numoutlets" : 1,
									"outlettype" : [ "" ],
									"patching_rect" : [ 50.0, 14.0, 30.0, 22.0 ],
									"style" : "",
									"text" : "in 1"
								}

							}
, 							{
								"box" : 								{
									"id" : "obj-2",
									"maxclass" : "newobj",
									"numinlets" : 0,
									"numoutlets" : 1,
									"outlettype" : [ "" ],
									"patching_rect" : [ 305.0, 14.0, 30.0, 22.0 ],
									"style" : "",
									"text" : "in 2"
								}

							}
, 							{
								"box" : 								{
									"id" : "obj-3",
									"maxclass" : "newobj",
									"numinlets" : 2,
									"numoutlets" : 1,
									"outlettype" : [ "" ],
									"patching_rect" : [ 176.0, 149.0, 29.5, 22.0 ],
									"style" : "",
									"text" : "+"
								}

							}
, 							{
								"box" : 								{
									"id" : "obj-4",
									"maxclass" : "newobj",
									"numinlets" : 1,
									"numoutlets" : 0,
									"patching_rect" : [ 176.0, 418.0, 37.0, 22.0 ],
									"style" : "",
									"text" : "out 1"
								}

							}
 ],
						"lines" : [ 							{
								"patchline" : 								{
									"destination" : [ "obj-3", 0 ],
									"source" : [ "obj-1", 0 ]
								}

							}
, 							{
								"patchline" : 								{
									"destination" : [ "obj-3", 1 ],
									"source" : [ "obj-2", 0 ]
								}

							}
, 							{
								"patchline" : 								{
									"destination" : [ "obj-4", 0 ],
									"source" : [ "obj-3", 0 ]
								}

							}
 ],
						"autosave" : 0
					}
,
					"patching_rect" : [ 822.5, 154.0, 38.0, 23.0 ],
					"style" : "",
					"text" : "gen~"
				}

			}
, 			{
				"box" : 				{
					"comment" : "",
					"id" : "obj-30",
					"index" : 0,
					"maxclass" : "outlet",
					"numinlets" : 1,
					"numoutlets" : 0,
					"patching_rect" : [ 906.5, 521.0, 30.0, 30.0 ],
					"style" : ""
				}

			}
, 			{
				"box" : 				{
					"comment" : "",
					"id" : "obj-33",
					"index" : 0,
					"maxclass" : "outlet",
					"numinlets" : 1,
					"numoutlets" : 0,
					"patching_rect" : [ 852.5, 521.0, 30.0, 30.0 ],
					"style" : ""
				}

			}
, 			{
				"box" : 				{
					"id" : "obj-20",
					"maxclass" : "newobj",
					"numinlets" : 1,
					"numoutlets" : 1,
					"outlettype" : [ "" ],
					"patching_rect" : [ 1067.0, 130.0, 74.0, 22.0 ],
					"style" : "",
					"text" : "loadmess 1."
				}

			}
, 			{
				"box" : 				{
					"format" : 6,
					"id" : "obj-18",
					"maxclass" : "flonum",
					"numinlets" : 1,
					"numoutlets" : 2,
					"outlettype" : [ "", "bang" ],
					"parameter_enable" : 0,
					"patching_rect" : [ 1067.0, 162.0, 50.0, 22.0 ],
					"style" : ""
				}

			}
, 			{
				"box" : 				{
					"fontname" : "Lato",
					"fontsize" : 12.0,
					"id" : "obj-27",
					"maxclass" : "newobj",
					"numinlets" : 2,
					"numoutlets" : 1,
					"outlettype" : [ "signal" ],
					"patching_rect" : [ 822.5, 107.0, 32.5, 23.0 ],
					"style" : "",
					"text" : "+~"
				}

			}
, 			{
				"box" : 				{
					"fontname" : "Lato",
					"fontsize" : 12.0,
					"id" : "obj-9",
					"maxclass" : "newobj",
					"numinlets" : 2,
					"numoutlets" : 1,
					"outlettype" : [ "signal" ],
					"patching_rect" : [ 822.5, 63.0, 48.0, 23.0 ],
					"style" : "",
					"text" : "saw~ 1"
				}

			}
, 			{
				"box" : 				{
					"fontname" : "Lato",
					"fontsize" : 12.0,
					"id" : "obj-11",
					"maxclass" : "newobj",
					"numinlets" : 1,
					"numoutlets" : 1,
					"outlettype" : [ "signal" ],
					"patching_rect" : [ 882.5, 77.0, 58.0, 23.0 ],
					"style" : "",
					"text" : "sig~ 220"
				}

			}
, 			{
				"box" : 				{
					"fontname" : "Lato",
					"fontsize" : 12.0,
					"id" : "obj-19",
					"maxclass" : "message",
					"numinlets" : 2,
					"numoutlets" : 1,
					"outlettype" : [ "" ],
					"patching_rect" : [ 1017.5, 77.0, 41.0, 23.0 ],
					"style" : "",
					"text" : "b2 $1"
				}

			}
, 			{
				"box" : 				{
					"fontname" : "Lato",
					"fontsize" : 12.0,
					"id" : "obj-21",
					"maxclass" : "message",
					"numinlets" : 2,
					"numoutlets" : 1,
					"outlettype" : [ "" ],
					"patching_rect" : [ 957.5, 77.0, 41.0, 23.0 ],
					"style" : "",
					"text" : "b1 $1"
				}

			}
, 			{
				"box" : 				{
					"id" : "obj-52",
					"maxclass" : "newobj",
					"numinlets" : 2,
					"numoutlets" : 1,
					"outlettype" : [ "signal" ],
					"patching_rect" : [ 822.0, 206.0, 137.5, 22.0 ],
					"style" : "",
					"text" : "*~"
				}

			}
, 			{
				"box" : 				{
					"fontname" : "Akkurat-Mono",
					"fontsize" : 9.0,
					"id" : "obj-26",
					"maxclass" : "comment",
					"numinlets" : 1,
					"numoutlets" : 0,
					"patching_rect" : [ 1003.0, 22.0, 44.0, 15.0 ],
					"presentation" : 1,
					"presentation_rect" : [ 15.5, 137.301422, 44.0, 15.0 ],
					"style" : "",
					"text" : "b2 0-1",
					"textcolor" : [ 0.848527, 0.909661, 0.909804, 1.0 ]
				}

			}
, 			{
				"box" : 				{
					"fontname" : "Akkurat-Mono",
					"fontsize" : 9.0,
					"id" : "obj-25",
					"maxclass" : "comment",
					"numinlets" : 1,
					"numoutlets" : 0,
					"patching_rect" : [ 943.0, 22.0, 45.0, 15.0 ],
					"presentation" : 1,
					"presentation_rect" : [ 15.5, 120.301422, 51.0, 15.0 ],
					"style" : "",
					"text" : "b1 0-1",
					"textcolor" : [ 0.848527, 0.909661, 0.909804, 1.0 ]
				}

			}
, 			{
				"box" : 				{
					"fontname" : "Akkurat-Mono",
					"fontsize" : 9.0,
					"id" : "obj-23",
					"maxclass" : "comment",
					"numinlets" : 1,
					"numoutlets" : 0,
					"patching_rect" : [ 873.0, 22.0, 47.0, 15.0 ],
					"presentation" : 1,
					"presentation_rect" : [ 15.5, 103.301422, 47.0, 15.0 ],
					"style" : "",
					"text" : "freq",
					"textcolor" : [ 0.848527, 0.909661, 0.909804, 1.0 ]
				}

			}
, 			{
				"box" : 				{
					"bgcolor" : [ 0.290196, 0.309804, 0.301961, 0.0 ],
					"fontname" : "Akkurat-Mono",
					"fontsize" : 9.0,
					"format" : 6,
					"id" : "obj-22",
					"maxclass" : "flonum",
					"maximum" : 1.0,
					"minimum" : 0.0,
					"numinlets" : 1,
					"numoutlets" : 2,
					"outlettype" : [ "", "bang" ],
					"parameter_enable" : 0,
					"patching_rect" : [ 1008.0, 44.0, 51.0, 17.0 ],
					"presentation" : 1,
					"presentation_rect" : [ 71.5, 136.301422, 51.0, 17.0 ],
					"prototypename" : "bluenum",
					"style" : "",
					"textcolor" : [ 0.848527, 0.909661, 0.909804, 1.0 ]
				}

			}
, 			{
				"box" : 				{
					"bgcolor" : [ 0.290196, 0.309804, 0.301961, 0.0 ],
					"fontname" : "Akkurat-Mono",
					"fontsize" : 9.0,
					"format" : 6,
					"id" : "obj-24",
					"maxclass" : "flonum",
					"numinlets" : 1,
					"numoutlets" : 2,
					"outlettype" : [ "", "bang" ],
					"parameter_enable" : 0,
					"patching_rect" : [ 873.0, 44.0, 48.0, 17.0 ],
					"presentation" : 1,
					"presentation_rect" : [ 71.5, 103.301422, 48.0, 17.0 ],
					"style" : "",
					"textcolor" : [ 0.848527, 0.909661, 0.909804, 1.0 ]
				}

			}
, 			{
				"box" : 				{
					"bgcolor" : [ 0.290196, 0.309804, 0.301961, 0.0 ],
					"fontname" : "Akkurat-Mono",
					"fontsize" : 9.0,
					"format" : 6,
					"id" : "obj-28",
					"maxclass" : "flonum",
					"maximum" : 1.0,
					"minimum" : 0.0,
					"numinlets" : 1,
					"numoutlets" : 2,
					"outlettype" : [ "", "bang" ],
					"parameter_enable" : 0,
					"patching_rect" : [ 948.0, 44.0, 51.0, 17.0 ],
					"presentation" : 1,
					"presentation_rect" : [ 71.5, 120.301422, 51.0, 17.0 ],
					"style" : "",
					"textcolor" : [ 0.848527, 0.909661, 0.909804, 1.0 ]
				}

			}
, 			{
				"box" : 				{
					"coldcolor" : [ 1.0, 1.0, 1.0, 1.0 ],
					"fontsize" : 13.0,
					"id" : "obj-29",
					"maxclass" : "live.gain~",
					"numinlets" : 2,
					"numoutlets" : 5,
					"outlettype" : [ "signal", "signal", "", "float", "list" ],
					"parameter_enable" : 1,
					"patching_rect" : [ 816.25, 311.0, 34.0, 111.0 ],
					"presentation" : 1,
					"presentation_rect" : [ 373.5, 14.10141, 34.0, 278.0 ],
					"saved_attribute_attributes" : 					{
						"valueof" : 						{
							"parameter_longname" : "live.gain~[1]",
							"parameter_shortname" : "live.gain~",
							"parameter_type" : 0,
							"parameter_mmin" : -70.0,
							"parameter_mmax" : 6.0,
							"parameter_initial_enable" : 1,
							"parameter_initial" : [ -70 ],
							"parameter_unitstyle" : 4
						}

					}
,
					"showname" : 0,
					"shownumber" : 0,
					"slidercolor" : [ 0.65098, 0.666667, 0.662745, 0.01 ],
					"tribordercolor" : [ 0.196078, 0.196078, 0.196078, 0.0 ],
					"tricolor" : [ 0.32549, 0.345098, 0.372549, 1.0 ],
					"trioncolor" : [ 0.239216, 0.254902, 0.278431, 1.0 ],
					"varname" : "live.gain~[1]",
					"warmcolor" : [ 1.0, 1.0, 1.0, 1.0 ]
				}

			}
, 			{
				"box" : 				{
					"comment" : "RATE",
					"id" : "obj-15",
					"index" : 0,
					"maxclass" : "inlet",
					"numinlets" : 0,
					"numoutlets" : 1,
					"outlettype" : [ "" ],
					"patching_rect" : [ 527.0, 39.0, 30.0, 30.0 ],
					"style" : ""
				}

			}
, 			{
				"box" : 				{
					"comment" : "REPEATS",
					"id" : "obj-14",
					"index" : 0,
					"maxclass" : "inlet",
					"numinlets" : 0,
					"numoutlets" : 1,
					"outlettype" : [ "" ],
					"patching_rect" : [ 483.5, 39.0, 30.0, 30.0 ],
					"style" : ""
				}

			}
, 			{
				"box" : 				{
					"comment" : "MIN LENGTH",
					"id" : "obj-13",
					"index" : 0,
					"maxclass" : "inlet",
					"numinlets" : 0,
					"numoutlets" : 1,
					"outlettype" : [ "" ],
					"patching_rect" : [ 438.0, 39.0, 30.0, 30.0 ],
					"style" : ""
				}

			}
, 			{
				"box" : 				{
					"comment" : "MAX LENGTH",
					"id" : "obj-12",
					"index" : 0,
					"maxclass" : "inlet",
					"numinlets" : 0,
					"numoutlets" : 1,
					"outlettype" : [ "" ],
					"patching_rect" : [ 392.0, 39.0, 30.0, 30.0 ],
					"style" : ""
				}

			}
, 			{
				"box" : 				{
					"comment" : "XINGS",
					"id" : "obj-6",
					"index" : 0,
					"maxclass" : "inlet",
					"numinlets" : 0,
					"numoutlets" : 1,
					"outlettype" : [ "" ],
					"patching_rect" : [ 348.0, 39.0, 30.0, 30.0 ],
					"style" : ""
				}

			}
, 			{
				"box" : 				{
					"fontname" : "Lato",
					"fontsize" : 12.0,
					"id" : "obj-32",
					"maxclass" : "message",
					"numinlets" : 2,
					"numoutlets" : 1,
					"outlettype" : [ "" ],
					"patching_rect" : [ 638.0, 306.0, 50.0, 23.0 ],
					"style" : "",
					"text" : "hold $1"
				}

			}
, 			{
				"box" : 				{
					"comment" : "",
					"id" : "obj-4",
					"index" : 0,
					"maxclass" : "outlet",
					"numinlets" : 1,
					"numoutlets" : 0,
					"patching_rect" : [ 309.0, 586.0, 30.0, 30.0 ],
					"style" : ""
				}

			}
, 			{
				"box" : 				{
					"comment" : "",
					"id" : "obj-3",
					"index" : 0,
					"maxclass" : "outlet",
					"numinlets" : 1,
					"numoutlets" : 0,
					"patching_rect" : [ 255.0, 586.0, 30.0, 30.0 ],
					"style" : ""
				}

			}
, 			{
				"box" : 				{
					"comment" : "",
					"id" : "obj-2",
					"index" : 0,
					"maxclass" : "inlet",
					"numinlets" : 0,
					"numoutlets" : 1,
					"outlettype" : [ "" ],
					"patching_rect" : [ 41.0, 39.0, 30.0, 30.0 ],
					"style" : ""
				}

			}
, 			{
				"box" : 				{
					"fontname" : "Akkurat-Mono",
					"fontsize" : 9.0,
					"id" : "obj-1",
					"maxclass" : "comment",
					"numinlets" : 1,
					"numoutlets" : 0,
					"patching_rect" : [ 457.5, 375.166687, 116.0, 15.0 ],
					"presentation" : 1,
					"presentation_rect" : [ 15.5, 14.10141, 55.0, 15.0 ],
					"style" : "",
					"text" : "WAVESET",
					"textcolor" : [ 0.803922, 0.898039, 0.909804, 1.0 ]
				}

			}
, 			{
				"box" : 				{
					"autosave" : 1,
					"bgcolor" : [ 0.018676, 0.19141, 0.321569, 0.360784 ],
					"bgmode" : 0,
					"border" : 0,
					"clickthrough" : 0,
					"color" : [ 0.286275, 0.333333, 0.329412, 0.0 ],
					"fontname" : "Akkurat-Mono",
					"fontsize" : 9.0,
					"id" : "obj-274",
					"maxclass" : "newobj",
					"numinlets" : 2,
					"numoutlets" : 8,
					"offset" : [ 0.0, 0.0 ],
					"outlettype" : [ "signal", "signal", "", "list", "int", "", "", "" ],
					"patching_rect" : [ 15.0, 375.200012, 108.0, 17.0 ],
					"presentation" : 1,
					"presentation_rect" : [ 15.5, 160.023499, 60.0, 17.0 ],
					"save" : [ "#N", "vst~", "loaduniqueid", 0, "Etch", ";" ],
					"saved_attribute_attributes" : 					{
						"valueof" : 						{
							"parameter_invisible" : 1,
							"parameter_longname" : "vst~[8]",
							"parameter_shortname" : "vst~",
							"parameter_type" : 3
						}

					}
,
					"saved_object_attributes" : 					{
						"annotation_name" : "",
						"parameter_enable" : 1
					}
,
					"snapshot" : 					{
						"filetype" : "C74Snapshot",
						"version" : 2,
						"minorversion" : 0,
						"name" : "snapshotlist",
						"origin" : "vst~",
						"type" : "list",
						"subtype" : "Undefined",
						"embed" : 1,
						"snapshot" : 						{
							"pluginname" : "Etch.vst",
							"plugindisplayname" : "Etch",
							"pluginsavedname" : "Etch",
							"pluginsaveduniqueid" : 0,
							"version" : 1,
							"isbank" : 0,
							"isbase64" : 1,
							"blob" : "3672.CMlaKA....fQPMDZ....APWQ3YD...P......TDcigF..................................3.G7H2auQGHSQWXzUlUkI2bo8la8HhLtHiHf7jckI2bg0FbrUVOhHiHfvjQO0TRDkzP8HBLh.BToQ2Xn0TRDkzP8HRLh.hQowFckIWLMkDQIMTOhHiHfXTZrQWYxISSIQTRC0iHyHhOJ.BHf.BOBklajklam0TXvAhag0VY8HhPo4FYo41YyIhOJ.BHf.BHf.BH7X0ShoVYiQWPxIWX4Ahag0VY8HBRuMGcPElbg0VYzUlbyIBHi8VctQWOhXiLh3iBf.BHf.BHf.BHf.BH7XkUgwVckABc4AWY8HhYr8VXzIBH1EFa0UVOh.iK0HBHu3iBf.BHf.BHf.BHf.BH7XkUgwVckABc4AWY8HhYr8VXzIBH1EFa0UVOh.iK0HBHu3iBf.BHf.BHf.BHf.BH7XkUgwVckABc4AWY8HhYr8VXzIBH1EFa0UVOh.iK0HBHu3iBf.BHf.BHf.BHf.BH7XkUgwVckABc4AWY8HhYr8VXzIBH1EFa0UVOhDiHf7hOJ.BHf.BHf.BHf.BHfviUVEFa0UFHzkGbk0iHlw1agQmHfXWXrUWY8HRLh.xK9n.Hf.BHf.BHf.BHf.BOVYUXrUWYfPWdvUVOhXFauEFch.hcgwVck0iHv3RMh.xK9n.Hf.BHf.BHf.BHf.BOVYUXrUWYfPWdvUVOhXFauEFch.hcgwVck0iHv3RMh.xK9n.Hf.BHf.BHf.BHf.BOVYUXrUWYfPWdvUVOhXFauEFch.hcgwVck0iHv3RMh.xK9n.Hf.BHf.BHf.BHf.BOVYUXrUWYfPWdvUVOhXFauEFch.hcgwVck0iHv3RMh.xK9n.Hf.BHf.BHf.BHf.BOVYUXrUWYfPWdvUVOhXFauEFch.hcgwVck0iHwHBHu3iBf.BHf.BHf.BHf.BH7XkUgwVckABc4AWY8HhYr8VXzIBH1EFa0UVOhDiHf7hOJ.BHf.BHf.BHf.BHfviUVEFa0UFHzkGbk0iHlw1agQmHfXWXrUWY8HBLtTiHf7hOJ.BHf.BHf.BHf.BHfviUVEFa0UFHzkGbk0iHlw1agQmHfXWXrUWY8HBLh.xK9n.Hf.BHf.BHf.BHf.BOVYUXrUWYfPWdvUVOhXFauEFch.hcgwVck0iHvHBHu3iBf.BHf.BHf.BHf.BH7XkUgwVckABc4AWY8HhYr8VXzIBH1EFa0UVOh.iK0HBHu3iBf.BHf.BHf.BHf.BH7XkUgwVckABc4AWY8HhYr8VXzIBH1EFa0UVOh.iKwHBHu3iBf.BHf.BHf.BHf.BH7XkUgwVckABc4AWY8HhYr8VXzIBH1EFa0UVOh.iHf7hOJ.BHf.BHf.BHf.BHfviUVEFa0UFHzkGbk0iHlw1agQmHfXWXrUWY8HRLh.xK9n.Hf.BHf.BHf.BHf.BOVYUXrUWYfPWdvUVOhXFauEFch.hcgwVck0iHv3RL4PSLwfiHf7hOJ.BHf.BHf.BHf.BHfviUVEFa0UFHzkGbk0iHlw1agQmHfXWXrUWY8HBLtTiHf7hOJ.BHf.BHf.BHf.BHfviUVEFa0UFHzkGbk0iHlw1agQmHfXWXrUWY8HRLh.xK9n.Hf.BHf.BHf.BHf.BOVYUXrUWYfPWdvUVOhXFauEFch.hcgwVck0iHvHBHu3iBf.BHf.BHf.BHf.BH7XkUgwVckABc4AWY8HhYr8VXzIBH1EFa0UVOhDiHf7hOJ.BHf.BHf.BHf.BHfviUVEFa0UFHzkGbk0iHlw1agQmHfXWXrUWY8HBLtTiHf7hOJ.BHf.BHf.BHf.BHfviUVEFa0UFHzkGbk0iHlw1agQmHfXWXrUWY8HBLtTiHf7hOJ.BHf.BHf.BHf.BHfviUVEFa0UFHzkGbk0iHlw1agQmHfXWXrUWY8HBLtTiHf7hOJ.BHf.BHf.BHf.BHfviUVEFa0UFHzkGbk0iHlw1agQmHfXWXrUWY8HBLh.xK9n.Hf.BHf.BHf.BHf.BOVYUXrUWYfPWdvUVOhXFauEFch.hcgwVck0iHwHBHu3iBf.BHf.BHf.BHf.BH7XkUgwVckABc4AWY8HhYr8VXzIBH1EFa0UVOh.iKvbiHf7hOJ.BHf.BHf.BHf.BHfviUVEFa0UFHzkGbk0iHlw1agQmHfXWXrUWY8HBLtDiLh.xK9n.Hf.BHf.BHf.BHf.BOVYUXrUWYfPWdvUVOhXFauEFch.hcgwVck0iHwHBHu3iBf.BHf.BHf.BHf.BH7XkUgwVckABc4AWY8HhYr8VXzIBH1EFa0UVOhDiHf7hOJ.BHf.BHf.BHf.BHfviUVEFa0UFHzkGbk0iHlw1agQmHfXWXrUWY8HRLh.xK9n.Hf.BHf.BHf.BHf.BOVYUXrUWYfPWdvUVOhXFauEFch.hcgwVck0iHvHBHu3iBf.BHf.BHf.BHf.BH7XkUgwVckABc4AWY8HhYr8VXzIBH1EFa0UVOhDiHf7hOJ.BHf.BHf.BHf.BHfviUVEFa0UFHzkGbk0iHlw1agQmHfXWXrUWY8HBLh.xK9n.Hf.BHf.BHf.BHf.BOVYUXrUWYfPWdvUVOhXFauEFch.hcgwVck0iHwHBHu3iBf.BHf.BHf.BHf.BH7XkUgwVckABc4AWY8HhYr8VXzIBH1EFa0UVOh.iK1.iLxTSLh.xK9n.Hf.BHf.BHf.BHf.BOVYUXrUWYfPWdvUVOhXFauEFch.hcgwVck0iHv3hMvHiL0DiHf7hOJ.BHf.BHf.BHf.BHfviUVEFa0UFHzkGbk0iHlw1agQmHfXWXrUWY8HBLh.xK9n.Hf.BHf.BHf.BHf.BOVYUXrUWYfPWdvUVOhXFauEFch.hcgwVck0iHv3hM1XiM1biHf7hOJ.BHf.BHf.BHf.BHfviUVEFa0UFHzkGbk0iHlw1agQmHfXWXrUWY8HBLh.xK9n.Hf.BHf.BHf.BHf.BOVYUXrUWYfPWdvUVOhXFauEFch.hcgwVck0iHvHBHu3iBf.BHf.BHf.BHf.BH7XkUgwVckABc4AWY8HhYr8VXzIBH1EFa0UVOh.iK0HBHu3iBf.BHf.BHf.BHf.BH7XkUgwVckABc4AWY8HhYr8VXzIBH1EFa0UVOhDiHf7hOJ.BHf.BHf.BHf.BHfviUVEFa0UFHzkGbk0iHlw1agQmHfXWXrUWY8HBLh.xK9n.Hf.BHf.BHf.BHf.BOVYUXrUWYfPWdvUVOhXFauEFch.hcgwVck0iHwHBHu3iBf.BHf.BHf.BHf.BH7XkUgwVckABc4AWY8HhYr8VXzIBH1EFa0UVOh.iK1.iLxTSLh.xK9n.Hf.BHf.BHf.BHf.BOVYUXrUWYfPWdvUVOhXFauEFch.hcgwVck0iHv3hMvHiL0DiHf7hOJ.BHf.BHf.BHf.BHfviUVEFa0UFHzkGbk0iHlw1agQmHfXWXrUWY8HBLh.xK9n.Hf.BHf.BHf.BHf.BOVYUXrUWYfPWdvUVOhXFauEFch.hcgwVck0iHv3hM1XiM1biHf7hOJ.BHf.BHf.BHf.BHfviUVEFa0UFHzkGbk0iHlw1agQmHfXWXrUWY8HBLh.xK9n.Hf.BHf.BHf.BHf.BOVYUXrUWYfPWdvUVOhXFauEFch.hcgwVck0iHvHBHu3iBf.BHf.BHf.BHf.BH7XkUgwVckABc4AWY8HhYr8VXzIBH1EFa0UVOh.iK0HBHu3iBf.BHf.BHf.BHf.BH7XkUgwVckABc4AWY8HhYr8VXzIBH1EFa0UVOhDiHf7hOJ.BHf.BHf.BHf.BHfviUVEFa0UFHzkGbk0iHlw1agQmHfXWXrUWY8HBLtbSNybCLwHBHu3iBf.BHf.BHf.BHf.BH7XkUgwVckABc4AWY8HhYr8VXzIBH1EFa0UVOh.iKwXiM1XCNh.xK9n.Hf.BHf.BHf.BHf.BOVYUXrUWYfPWdvUVOhXFauEFch.hcgwVck0iHvHBHu3iBf.BHf.BHf.BHf.BH7XkUgwVckABc4AWY8HhYr8VXzIBH1EFa0UVOhDiHf7hOJ.BHf.BHf.BHf.BHfviUVEFa0UFHzkGbk0iHlw1agQmHfXWXrUWY8HBLh.xK9n.Hf.BHf.BHf.BHf.BOVYUXrUWYfPWdvUVOhXFauEFch.hcgwVck0iHvHBHu3iBf.BHf.BHf.BHf.BH7XkUgwVckABc4AWY8HhYr8VXzIBH1EFa0UVOh.iHf7hOJ.BHf.BHf.BH77hUOIlZkMFcAImbgkmOJ.BHf.BOuHTZtQVZtcVSgAmOJ.BHf.BOEQ2XnAkbuMVYyMGHtEVak0iHFwVc3IBHVUlb8HhLtHiHfvTZts1SlY1bkQWOh.iHfLDLVEFa0UVOh.iHfLTLVEFa0UVOh.iHfvjQOIiTgQWYeEzXzUWXr0iHv3RL3HyL0PiHfLUXtQFRREFck8UPiQWcgwVOh.iKvDyM1PSN3HBHSElajgjTgQWYewjQOISOh.iK4fiLyTSLh.BQxklckETauUmaz8UPiQWcgwVOh.iKvbiHfPjboYWYM8FYk8UPiQWcgwVOh.iKwHiHfPjboYWYAMFcoYWYeEzXzUWXr0iHwHBHFkFazUlbLEVduUGceEzXzUWXr0iHwHBHFECTg41WAMFc0EFa8HBLtDSL1XiM3HBHFECTg41WSElajgTOh.iK2biHfXjLPElaeEzXzUWXr0iHvHBHFICTg41WSElajgTOh.iK3biHfLzasA2WAMFc0EFa8HBLtDiM1XiM2HBHu3iBf.BHfviUSQmbo41Yf3VXsUVOhvTXyQGTxU1bkQmSg0VYh.xbzIWZtcVOhPTYlEVcrQmHf7hOJvyKx81az4iB"
						}
,
						"snapshotlist" : 						{
							"current_snapshot" : 0,
							"entries" : [ 								{
									"filetype" : "C74Snapshot",
									"version" : 2,
									"minorversion" : 0,
									"name" : "Etch",
									"origin" : "Etch.vst",
									"type" : "VST",
									"subtype" : "MidiEffect",
									"embed" : 0,
									"snapshot" : 									{
										"pluginname" : "Etch.vst",
										"plugindisplayname" : "Etch",
										"pluginsavedname" : "Etch",
										"pluginsaveduniqueid" : 0,
										"version" : 1,
										"isbank" : 0,
										"isbase64" : 1,
										"blob" : "3672.CMlaKA....fQPMDZ....APWQ3YD...P......TDcigF..................................3.G7H2auQGHSQWXzUlUkI2bo8la8HhLtHiHf7jckI2bg0FbrUVOhHiHfvjQO0TRDkzP8HBLh.BToQ2Xn0TRDkzP8HRLh.hQowFckIWLMkDQIMTOhHiHfXTZrQWYxISSIQTRC0iHyHhOJ.BHf.BOBklajklam0TXvAhag0VY8HhPo4FYo41YyIhOJ.BHf.BHf.BH7X0ShoVYiQWPxIWX4Ahag0VY8HBRuMGcPElbg0VYzUlbyIBHi8VctQWOhXiLh3iBf.BHf.BHf.BHf.BH7XkUgwVckABc4AWY8HhYr8VXzIBH1EFa0UVOh.iK0HBHu3iBf.BHf.BHf.BHf.BH7XkUgwVckABc4AWY8HhYr8VXzIBH1EFa0UVOh.iK0HBHu3iBf.BHf.BHf.BHf.BH7XkUgwVckABc4AWY8HhYr8VXzIBH1EFa0UVOh.iK0HBHu3iBf.BHf.BHf.BHf.BH7XkUgwVckABc4AWY8HhYr8VXzIBH1EFa0UVOhDiHf7hOJ.BHf.BHf.BHf.BHfviUVEFa0UFHzkGbk0iHlw1agQmHfXWXrUWY8HRLh.xK9n.Hf.BHf.BHf.BHf.BOVYUXrUWYfPWdvUVOhXFauEFch.hcgwVck0iHv3RMh.xK9n.Hf.BHf.BHf.BHf.BOVYUXrUWYfPWdvUVOhXFauEFch.hcgwVck0iHv3RMh.xK9n.Hf.BHf.BHf.BHf.BOVYUXrUWYfPWdvUVOhXFauEFch.hcgwVck0iHv3RMh.xK9n.Hf.BHf.BHf.BHf.BOVYUXrUWYfPWdvUVOhXFauEFch.hcgwVck0iHv3RMh.xK9n.Hf.BHf.BHf.BHf.BOVYUXrUWYfPWdvUVOhXFauEFch.hcgwVck0iHwHBHu3iBf.BHf.BHf.BHf.BH7XkUgwVckABc4AWY8HhYr8VXzIBH1EFa0UVOhDiHf7hOJ.BHf.BHf.BHf.BHfviUVEFa0UFHzkGbk0iHlw1agQmHfXWXrUWY8HBLtTiHf7hOJ.BHf.BHf.BHf.BHfviUVEFa0UFHzkGbk0iHlw1agQmHfXWXrUWY8HBLh.xK9n.Hf.BHf.BHf.BHf.BOVYUXrUWYfPWdvUVOhXFauEFch.hcgwVck0iHvHBHu3iBf.BHf.BHf.BHf.BH7XkUgwVckABc4AWY8HhYr8VXzIBH1EFa0UVOh.iK0HBHu3iBf.BHf.BHf.BHf.BH7XkUgwVckABc4AWY8HhYr8VXzIBH1EFa0UVOh.iKwHBHu3iBf.BHf.BHf.BHf.BH7XkUgwVckABc4AWY8HhYr8VXzIBH1EFa0UVOh.iHf7hOJ.BHf.BHf.BHf.BHfviUVEFa0UFHzkGbk0iHlw1agQmHfXWXrUWY8HRLh.xK9n.Hf.BHf.BHf.BHf.BOVYUXrUWYfPWdvUVOhXFauEFch.hcgwVck0iHv3RL4PSLwfiHf7hOJ.BHf.BHf.BHf.BHfviUVEFa0UFHzkGbk0iHlw1agQmHfXWXrUWY8HBLtTiHf7hOJ.BHf.BHf.BHf.BHfviUVEFa0UFHzkGbk0iHlw1agQmHfXWXrUWY8HRLh.xK9n.Hf.BHf.BHf.BHf.BOVYUXrUWYfPWdvUVOhXFauEFch.hcgwVck0iHvHBHu3iBf.BHf.BHf.BHf.BH7XkUgwVckABc4AWY8HhYr8VXzIBH1EFa0UVOhDiHf7hOJ.BHf.BHf.BHf.BHfviUVEFa0UFHzkGbk0iHlw1agQmHfXWXrUWY8HBLtTiHf7hOJ.BHf.BHf.BHf.BHfviUVEFa0UFHzkGbk0iHlw1agQmHfXWXrUWY8HBLtTiHf7hOJ.BHf.BHf.BHf.BHfviUVEFa0UFHzkGbk0iHlw1agQmHfXWXrUWY8HBLtTiHf7hOJ.BHf.BHf.BHf.BHfviUVEFa0UFHzkGbk0iHlw1agQmHfXWXrUWY8HBLh.xK9n.Hf.BHf.BHf.BHf.BOVYUXrUWYfPWdvUVOhXFauEFch.hcgwVck0iHwHBHu3iBf.BHf.BHf.BHf.BH7XkUgwVckABc4AWY8HhYr8VXzIBH1EFa0UVOh.iKvbiHf7hOJ.BHf.BHf.BHf.BHfviUVEFa0UFHzkGbk0iHlw1agQmHfXWXrUWY8HBLtDiLh.xK9n.Hf.BHf.BHf.BHf.BOVYUXrUWYfPWdvUVOhXFauEFch.hcgwVck0iHwHBHu3iBf.BHf.BHf.BHf.BH7XkUgwVckABc4AWY8HhYr8VXzIBH1EFa0UVOhDiHf7hOJ.BHf.BHf.BHf.BHfviUVEFa0UFHzkGbk0iHlw1agQmHfXWXrUWY8HRLh.xK9n.Hf.BHf.BHf.BHf.BOVYUXrUWYfPWdvUVOhXFauEFch.hcgwVck0iHvHBHu3iBf.BHf.BHf.BHf.BH7XkUgwVckABc4AWY8HhYr8VXzIBH1EFa0UVOhDiHf7hOJ.BHf.BHf.BHf.BHfviUVEFa0UFHzkGbk0iHlw1agQmHfXWXrUWY8HBLh.xK9n.Hf.BHf.BHf.BHf.BOVYUXrUWYfPWdvUVOhXFauEFch.hcgwVck0iHwHBHu3iBf.BHf.BHf.BHf.BH7XkUgwVckABc4AWY8HhYr8VXzIBH1EFa0UVOh.iK1.iLxTSLh.xK9n.Hf.BHf.BHf.BHf.BOVYUXrUWYfPWdvUVOhXFauEFch.hcgwVck0iHv3hMvHiL0DiHf7hOJ.BHf.BHf.BHf.BHfviUVEFa0UFHzkGbk0iHlw1agQmHfXWXrUWY8HBLh.xK9n.Hf.BHf.BHf.BHf.BOVYUXrUWYfPWdvUVOhXFauEFch.hcgwVck0iHv3hM1XiM1biHf7hOJ.BHf.BHf.BHf.BHfviUVEFa0UFHzkGbk0iHlw1agQmHfXWXrUWY8HBLh.xK9n.Hf.BHf.BHf.BHf.BOVYUXrUWYfPWdvUVOhXFauEFch.hcgwVck0iHvHBHu3iBf.BHf.BHf.BHf.BH7XkUgwVckABc4AWY8HhYr8VXzIBH1EFa0UVOh.iK0HBHu3iBf.BHf.BHf.BHf.BH7XkUgwVckABc4AWY8HhYr8VXzIBH1EFa0UVOhDiHf7hOJ.BHf.BHf.BHf.BHfviUVEFa0UFHzkGbk0iHlw1agQmHfXWXrUWY8HBLh.xK9n.Hf.BHf.BHf.BHf.BOVYUXrUWYfPWdvUVOhXFauEFch.hcgwVck0iHwHBHu3iBf.BHf.BHf.BHf.BH7XkUgwVckABc4AWY8HhYr8VXzIBH1EFa0UVOh.iK1.iLxTSLh.xK9n.Hf.BHf.BHf.BHf.BOVYUXrUWYfPWdvUVOhXFauEFch.hcgwVck0iHv3hMvHiL0DiHf7hOJ.BHf.BHf.BHf.BHfviUVEFa0UFHzkGbk0iHlw1agQmHfXWXrUWY8HBLh.xK9n.Hf.BHf.BHf.BHf.BOVYUXrUWYfPWdvUVOhXFauEFch.hcgwVck0iHv3hM1XiM1biHf7hOJ.BHf.BHf.BHf.BHfviUVEFa0UFHzkGbk0iHlw1agQmHfXWXrUWY8HBLh.xK9n.Hf.BHf.BHf.BHf.BOVYUXrUWYfPWdvUVOhXFauEFch.hcgwVck0iHvHBHu3iBf.BHf.BHf.BHf.BH7XkUgwVckABc4AWY8HhYr8VXzIBH1EFa0UVOh.iK0HBHu3iBf.BHf.BHf.BHf.BH7XkUgwVckABc4AWY8HhYr8VXzIBH1EFa0UVOhDiHf7hOJ.BHf.BHf.BHf.BHfviUVEFa0UFHzkGbk0iHlw1agQmHfXWXrUWY8HBLtbSNybCLwHBHu3iBf.BHf.BHf.BHf.BH7XkUgwVckABc4AWY8HhYr8VXzIBH1EFa0UVOh.iKwXiM1XCNh.xK9n.Hf.BHf.BHf.BHf.BOVYUXrUWYfPWdvUVOhXFauEFch.hcgwVck0iHvHBHu3iBf.BHf.BHf.BHf.BH7XkUgwVckABc4AWY8HhYr8VXzIBH1EFa0UVOhDiHf7hOJ.BHf.BHf.BHf.BHfviUVEFa0UFHzkGbk0iHlw1agQmHfXWXrUWY8HBLh.xK9n.Hf.BHf.BHf.BHf.BOVYUXrUWYfPWdvUVOhXFauEFch.hcgwVck0iHvHBHu3iBf.BHf.BHf.BHf.BH7XkUgwVckABc4AWY8HhYr8VXzIBH1EFa0UVOh.iHf7hOJ.BHf.BHf.BH77hUOIlZkMFcAImbgkmOJ.BHf.BOuHTZtQVZtcVSgAmOJ.BHf.BOEQ2XnAkbuMVYyMGHtEVak0iHFwVc3IBHVUlb8HhLtHiHfvTZts1SlY1bkQWOh.iHfLDLVEFa0UVOh.iHfLTLVEFa0UVOh.iHfvjQOIiTgQWYeEzXzUWXr0iHv3RL3HyL0PiHfLUXtQFRREFck8UPiQWcgwVOh.iKvDyM1PSN3HBHSElajgjTgQWYewjQOISOh.iK4fiLyTSLh.BQxklckETauUmaz8UPiQWcgwVOh.iKvbiHfPjboYWYM8FYk8UPiQWcgwVOh.iKwHiHfPjboYWYAMFcoYWYeEzXzUWXr0iHwHBHFkFazUlbLEVduUGceEzXzUWXr0iHwHBHFECTg41WAMFc0EFa8HBLtDSL1XiM3HBHFECTg41WSElajgTOh.iK2biHfXjLPElaeEzXzUWXr0iHvHBHFICTg41WSElajgTOh.iK3biHfLzasA2WAMFc0EFa8HBLtDiM1XiM2HBHu3iBf.BHfviUSQmbo41Yf3VXsUVOhvTXyQGTxU1bkQmSg0VYh.xbzIWZtcVOhPTYlEVcrQmHf7hOJvyKx81az4iB"
									}
,
									"fileref" : 									{
										"name" : "Etch",
										"filename" : "Etch.maxsnap",
										"filepath" : "~/Documents/Max 7/Snapshots",
										"filepos" : -1,
										"snapshotfileid" : "bbcc8515387b5ceed9a3265726c6fd04"
									}

								}
 ]
						}

					}
,
					"style" : "",
					"text" : "vst~ Etch",
					"textcolor" : [ 0.65098, 0.666667, 0.662745, 1.0 ],
					"varname" : "vst~[8]",
					"viewvisibility" : 0
				}

			}
, 			{
				"box" : 				{
					"coldcolor" : [ 0.376187, 0.409384, 0.445165, 1.0 ],
					"hotcolor" : [ 0.358573, 0.333383, 0.3663, 1.0 ],
					"id" : "obj-77",
					"maxclass" : "live.gain~",
					"numinlets" : 2,
					"numoutlets" : 5,
					"outlettype" : [ "signal", "signal", "", "float", "list" ],
					"parameter_enable" : 1,
					"patching_rect" : [ 88.5, 471.700012, 34.0, 136.0 ],
					"presentation" : 1,
					"presentation_rect" : [ 326.4375, 28.301422, 34.0, 263.0 ],
					"prototypename" : "livegaindarkblue",
					"saved_attribute_attributes" : 					{
						"valueof" : 						{
							"parameter_longname" : "live.gain~",
							"parameter_shortname" : "live.gain~",
							"parameter_type" : 0,
							"parameter_mmin" : -70.0,
							"parameter_mmax" : 6.0,
							"parameter_initial" : [ 0.0 ],
							"parameter_unitstyle" : 4
						}

					}
,
					"showname" : 0,
					"shownumber" : 0,
					"tribordercolor" : [ 0.111466, 0.143442, 0.156191, 1.0 ],
					"tricolor" : [ 0.111466, 0.143442, 0.156191, 1.0 ],
					"varname" : "live.gain~",
					"warmcolor" : [ 0.376187, 0.409384, 0.445165, 1.0 ]
				}

			}
, 			{
				"box" : 				{
					"bgcolor" : [ 0.290196, 0.309804, 0.301961, 0.04 ],
					"bgfillcolor_angle" : 270.0,
					"bgfillcolor_autogradient" : 0,
					"bgfillcolor_color" : [ 0.290196, 0.309804, 0.301961, 0.04 ],
					"bgfillcolor_color1" : [ 0.376471, 0.384314, 0.4, 1.0 ],
					"bgfillcolor_color2" : [ 0.290196, 0.309804, 0.301961, 1.0 ],
					"bgfillcolor_proportion" : 0.39,
					"bgfillcolor_type" : "color",
					"fontname" : "Akkurat-Mono",
					"fontsize" : 9.0,
					"id" : "obj-87",
					"items" : [ "normal", ",", "ascending", ",", "descending", ",", "pitched" ],
					"maxclass" : "umenu",
					"numinlets" : 1,
					"numoutlets" : 3,
					"outlettype" : [ "int", "", "" ],
					"parameter_enable" : 0,
					"patching_rect" : [ 325.5, 329.5, 75.0, 17.0 ],
					"presentation" : 1,
					"presentation_rect" : [ 15.5, 64.801392, 75.0, 17.0 ],
					"style" : "",
					"textcolor" : [ 0.803922, 0.898039, 0.909804, 1.0 ]
				}

			}
, 			{
				"box" : 				{
					"attr" : "freq",
					"bgcolor" : [ 0.290196, 0.309804, 0.301961, 0.0 ],
					"fontname" : "Akkurat-Mono",
					"fontsize" : 9.0,
					"id" : "obj-88",
					"maxclass" : "attrui",
					"numinlets" : 1,
					"numoutlets" : 1,
					"outlettype" : [ "" ],
					"patching_rect" : [ 172.5, 389.5, 150.0, 17.0 ],
					"presentation" : 1,
					"presentation_rect" : [ 139.4375, 145.301422, 185.0, 17.0 ],
					"style" : "",
					"textcolor" : [ 0.803922, 0.898039, 0.909804, 1.0 ],
					"tricolor" : [ 0.0, 0.0, 0.0, 1.0 ]
				}

			}
, 			{
				"box" : 				{
					"fontname" : "Arial",
					"fontsize" : 9.0,
					"id" : "obj-89",
					"maxclass" : "message",
					"numinlets" : 2,
					"numoutlets" : 1,
					"outlettype" : [ "" ],
					"patching_rect" : [ 325.5, 356.5, 75.0, 19.0 ],
					"style" : "",
					"text" : "pitchedmode $1"
				}

			}
, 			{
				"box" : 				{
					"fontname" : "Arial",
					"fontsize" : 9.0,
					"id" : "obj-90",
					"maxclass" : "message",
					"numinlets" : 2,
					"numoutlets" : 1,
					"outlettype" : [ "" ],
					"patching_rect" : [ 146.5, 308.0, 62.0, 19.0 ],
					"style" : "",
					"text" : "playmode $1"
				}

			}
, 			{
				"box" : 				{
					"bgcolor" : [ 0.290196, 0.309804, 0.301961, 0.02 ],
					"bgfillcolor_angle" : 270.0,
					"bgfillcolor_autogradient" : 0,
					"bgfillcolor_color" : [ 0.290196, 0.309804, 0.301961, 0.02 ],
					"bgfillcolor_color1" : [ 0.376471, 0.384314, 0.4, 0.05 ],
					"bgfillcolor_color2" : [ 0.290196, 0.309804, 0.301961, 1.0 ],
					"bgfillcolor_proportion" : 0.39,
					"bgfillcolor_type" : "color",
					"fontname" : "Akkurat-Mono",
					"fontsize" : 9.0,
					"id" : "obj-91",
					"items" : [ "forward", "sequence", ",", "reverse", "sequence", ",", "random", "walk", ",", "random", "selection", ",", "most", "recent" ],
					"maxclass" : "umenu",
					"numinlets" : 1,
					"numoutlets" : 3,
					"outlettype" : [ "int", "", "" ],
					"parameter_enable" : 0,
					"patching_rect" : [ 146.5, 281.0, 150.0, 17.0 ],
					"presentation" : 1,
					"presentation_rect" : [ 15.5, 84.301422, 100.0, 17.0 ],
					"style" : "",
					"textcolor" : [ 0.803922, 0.898039, 0.909804, 1.0 ]
				}

			}
, 			{
				"box" : 				{
					"bgcolor" : [ 0.356863, 0.333333, 0.364706, 0.0 ],
					"checkedcolor" : [ 0.848527, 0.909661, 0.909804, 1.0 ],
					"id" : "obj-93",
					"maxclass" : "toggle",
					"numinlets" : 1,
					"numoutlets" : 1,
					"outlettype" : [ "int" ],
					"parameter_enable" : 0,
					"patching_rect" : [ 146.5, 138.0, 20.0, 20.0 ],
					"presentation" : 1,
					"presentation_rect" : [ 15.5, 39.801392, 20.0, 20.0 ],
					"style" : "",
					"uncheckedcolor" : [ 0.32549, 0.345098, 0.372549, 0.4 ]
				}

			}
, 			{
				"box" : 				{
					"fontname" : "Arial",
					"fontsize" : 9.0,
					"id" : "obj-95",
					"maxclass" : "message",
					"numinlets" : 2,
					"numoutlets" : 1,
					"outlettype" : [ "" ],
					"patching_rect" : [ 146.5, 164.0, 53.0, 19.0 ],
					"style" : "",
					"text" : "capture $1"
				}

			}
, 			{
				"box" : 				{
					"attr" : "max_length",
					"bgcolor" : [ 0.290196, 0.309804, 0.301961, 0.0 ],
					"fontname" : "Akkurat-Mono",
					"fontsize" : 9.0,
					"id" : "obj-97",
					"maxclass" : "attrui",
					"numinlets" : 1,
					"numoutlets" : 1,
					"outlettype" : [ "" ],
					"patching_rect" : [ 146.5, 213.5, 148.0, 17.0 ],
					"presentation" : 1,
					"presentation_rect" : [ 139.4375, 57.801392, 185.0, 17.0 ],
					"style" : "",
					"textcolor" : [ 0.803922, 0.898039, 0.909804, 1.0 ],
					"tricolor" : [ 0.0, 0.0, 0.0, 1.0 ]
				}

			}
, 			{
				"box" : 				{
					"attr" : "min_length",
					"bgcolor" : [ 0.290196, 0.309804, 0.301961, 0.0 ],
					"fontname" : "Akkurat-Mono",
					"fontsize" : 9.0,
					"id" : "obj-98",
					"maxclass" : "attrui",
					"numinlets" : 1,
					"numoutlets" : 1,
					"outlettype" : [ "" ],
					"patching_rect" : [ 146.5, 233.5, 150.0, 17.0 ],
					"presentation" : 1,
					"presentation_rect" : [ 139.4375, 76.801392, 185.0, 17.0 ],
					"style" : "",
					"textcolor" : [ 0.803922, 0.898039, 0.909804, 1.0 ],
					"tricolor" : [ 0.0, 0.0, 0.0, 1.0 ]
				}

			}
, 			{
				"box" : 				{
					"attr" : "crossings",
					"bgcolor" : [ 0.290196, 0.309804, 0.301961, 0.0 ],
					"fontname" : "Akkurat-Mono",
					"fontsize" : 9.0,
					"id" : "obj-99",
					"maxclass" : "attrui",
					"numinlets" : 1,
					"numoutlets" : 1,
					"outlettype" : [ "" ],
					"patching_rect" : [ 146.5, 193.5, 152.0, 17.0 ],
					"presentation" : 1,
					"presentation_rect" : [ 139.4375, 39.801392, 185.0, 17.0 ],
					"style" : "",
					"textcolor" : [ 0.803922, 0.898039, 0.909804, 1.0 ],
					"tricolor" : [ 0.0, 0.0, 0.0, 1.0 ]
				}

			}
, 			{
				"box" : 				{
					"attr" : "repeats",
					"bgcolor" : [ 0.290196, 0.309804, 0.301961, 0.0 ],
					"fontname" : "Akkurat-Mono",
					"fontsize" : 9.0,
					"id" : "obj-100",
					"maxclass" : "attrui",
					"numinlets" : 1,
					"numoutlets" : 1,
					"outlettype" : [ "" ],
					"patching_rect" : [ 172.5, 334.5, 152.0, 17.0 ],
					"presentation" : 1,
					"presentation_rect" : [ 139.4375, 103.301422, 185.0, 17.0 ],
					"style" : "",
					"textcolor" : [ 0.803922, 0.898039, 0.909804, 1.0 ],
					"tricolor" : [ 0.0, 0.0, 0.0, 1.0 ]
				}

			}
, 			{
				"box" : 				{
					"attr" : "rate",
					"bgcolor" : [ 0.290196, 0.309804, 0.301961, 0.0 ],
					"fontname" : "Akkurat-Mono",
					"fontsize" : 9.0,
					"id" : "obj-101",
					"maxclass" : "attrui",
					"numinlets" : 1,
					"numoutlets" : 1,
					"outlettype" : [ "" ],
					"patching_rect" : [ 172.5, 361.5, 151.0, 17.0 ],
					"presentation" : 1,
					"presentation_rect" : [ 139.4375, 124.301422, 185.0, 17.0 ],
					"style" : "",
					"textcolor" : [ 0.803922, 0.898039, 0.909804, 1.0 ],
					"tricolor" : [ 0.0, 0.0, 0.0, 1.0 ]
				}

			}
, 			{
				"box" : 				{
					"angle" : 270.0,
					"bgcolor" : [ 0.290196, 0.309804, 0.301961, 0.0 ],
					"border" : 1,
					"bordercolor" : [ 0.847059, 0.909804, 0.909804, 0.8 ],
					"id" : "obj-16",
					"maxclass" : "panel",
					"mode" : 0,
					"numinlets" : 1,
					"numoutlets" : 0,
					"patching_rect" : [ 821.638794, 201.0, 128.0, 128.0 ],
					"presentation" : 1,
					"presentation_rect" : [ 2.638794, 1.523499, 421.861206, 339.0 ],
					"proportion" : 0.39,
					"rounded" : 0,
					"style" : ""
				}

			}
, 			{
				"box" : 				{
					"bgcolor" : [ 0.290196, 0.309804, 0.301961, 0.0 ],
					"fgcolor" : [ 0.0, 0.0, 0.90837, 1.0 ],
					"gridcolor" : [ 0.376471, 0.384314, 0.4, 0.0 ],
					"id" : "obj-5",
					"maxclass" : "scope~",
					"numinlets" : 2,
					"numoutlets" : 0,
					"patching_rect" : [ 442.5, 501.0, 130.0, 130.0 ],
					"presentation" : 1,
					"presentation_rect" : [ 15.5, 181.0, 308.9375, 140.0 ],
					"style" : ""
				}

			}
 ],
		"lines" : [ 			{
				"patchline" : 				{
					"destination" : [ "obj-8", 0 ],
					"midpoints" : [ 182.0, 390.5, 592.5, 390.5 ],
					"source" : [ "obj-100", 0 ]
				}

			}
, 			{
				"patchline" : 				{
					"destination" : [ "obj-8", 0 ],
					"midpoints" : [ 182.0, 418.0, 592.5, 418.0 ],
					"source" : [ "obj-101", 0 ]
				}

			}
, 			{
				"patchline" : 				{
					"destination" : [ "obj-27", 1 ],
					"source" : [ "obj-11", 0 ]
				}

			}
, 			{
				"patchline" : 				{
					"destination" : [ "obj-97", 0 ],
					"source" : [ "obj-12", 0 ]
				}

			}
, 			{
				"patchline" : 				{
					"destination" : [ "obj-98", 0 ],
					"source" : [ "obj-13", 0 ]
				}

			}
, 			{
				"patchline" : 				{
					"destination" : [ "obj-100", 0 ],
					"source" : [ "obj-14", 0 ]
				}

			}
, 			{
				"patchline" : 				{
					"destination" : [ "obj-101", 0 ],
					"source" : [ "obj-15", 0 ]
				}

			}
, 			{
				"patchline" : 				{
					"destination" : [ "obj-52", 1 ],
					"source" : [ "obj-18", 0 ]
				}

			}
, 			{
				"patchline" : 				{
					"destination" : [ "obj-34", 0 ],
					"source" : [ "obj-19", 0 ]
				}

			}
, 			{
				"patchline" : 				{
					"destination" : [ "obj-8", 0 ],
					"source" : [ "obj-2", 0 ]
				}

			}
, 			{
				"patchline" : 				{
					"destination" : [ "obj-18", 0 ],
					"source" : [ "obj-20", 0 ]
				}

			}
, 			{
				"patchline" : 				{
					"destination" : [ "obj-34", 0 ],
					"source" : [ "obj-21", 0 ]
				}

			}
, 			{
				"patchline" : 				{
					"destination" : [ "obj-19", 0 ],
					"source" : [ "obj-22", 0 ]
				}

			}
, 			{
				"patchline" : 				{
					"destination" : [ "obj-11", 0 ],
					"source" : [ "obj-24", 0 ]
				}

			}
, 			{
				"patchline" : 				{
					"destination" : [ "obj-34", 0 ],
					"source" : [ "obj-27", 0 ]
				}

			}
, 			{
				"patchline" : 				{
					"destination" : [ "obj-5", 0 ],
					"order" : 0,
					"source" : [ "obj-274", 1 ]
				}

			}
, 			{
				"patchline" : 				{
					"destination" : [ "obj-5", 0 ],
					"order" : 0,
					"source" : [ "obj-274", 0 ]
				}

			}
, 			{
				"patchline" : 				{
					"destination" : [ "obj-77", 1 ],
					"order" : 1,
					"source" : [ "obj-274", 1 ]
				}

			}
, 			{
				"patchline" : 				{
					"destination" : [ "obj-77", 0 ],
					"order" : 1,
					"source" : [ "obj-274", 0 ]
				}

			}
, 			{
				"patchline" : 				{
					"destination" : [ "obj-21", 0 ],
					"source" : [ "obj-28", 0 ]
				}

			}
, 			{
				"patchline" : 				{
					"destination" : [ "obj-30", 0 ],
					"source" : [ "obj-29", 1 ]
				}

			}
, 			{
				"patchline" : 				{
					"destination" : [ "obj-33", 0 ],
					"source" : [ "obj-29", 0 ]
				}

			}
, 			{
				"patchline" : 				{
					"destination" : [ "obj-8", 0 ],
					"source" : [ "obj-32", 0 ]
				}

			}
, 			{
				"patchline" : 				{
					"destination" : [ "obj-52", 0 ],
					"source" : [ "obj-34", 0 ]
				}

			}
, 			{
				"patchline" : 				{
					"destination" : [ "obj-29", 1 ],
					"order" : 0,
					"source" : [ "obj-52", 0 ]
				}

			}
, 			{
				"patchline" : 				{
					"destination" : [ "obj-29", 0 ],
					"order" : 1,
					"source" : [ "obj-52", 0 ]
				}

			}
, 			{
				"patchline" : 				{
					"destination" : [ "obj-99", 0 ],
					"source" : [ "obj-6", 0 ]
				}

			}
, 			{
				"patchline" : 				{
					"destination" : [ "obj-3", 0 ],
					"source" : [ "obj-77", 0 ]
				}

			}
, 			{
				"patchline" : 				{
					"destination" : [ "obj-4", 0 ],
					"source" : [ "obj-77", 1 ]
				}

			}
, 			{
				"patchline" : 				{
					"destination" : [ "obj-274", 1 ],
					"order" : 1,
					"source" : [ "obj-8", 0 ]
				}

			}
, 			{
				"patchline" : 				{
					"destination" : [ "obj-274", 0 ],
					"order" : 2,
					"source" : [ "obj-8", 0 ]
				}

			}
, 			{
				"patchline" : 				{
					"destination" : [ "obj-34", 0 ],
					"order" : 0,
					"source" : [ "obj-8", 0 ]
				}

			}
, 			{
				"patchline" : 				{
					"destination" : [ "obj-89", 0 ],
					"source" : [ "obj-87", 0 ]
				}

			}
, 			{
				"patchline" : 				{
					"destination" : [ "obj-8", 0 ],
					"midpoints" : [ 182.0, 412.0, 592.5, 412.0 ],
					"source" : [ "obj-88", 0 ]
				}

			}
, 			{
				"patchline" : 				{
					"destination" : [ "obj-8", 0 ],
					"midpoints" : [ 335.0, 360.75, 592.5, 360.75 ],
					"source" : [ "obj-89", 0 ]
				}

			}
, 			{
				"patchline" : 				{
					"destination" : [ "obj-27", 0 ],
					"source" : [ "obj-9", 0 ]
				}

			}
, 			{
				"patchline" : 				{
					"destination" : [ "obj-8", 0 ],
					"midpoints" : [ 156.0, 360.75, 592.5, 360.75 ],
					"source" : [ "obj-90", 0 ]
				}

			}
, 			{
				"patchline" : 				{
					"destination" : [ "obj-90", 0 ],
					"source" : [ "obj-91", 0 ]
				}

			}
, 			{
				"patchline" : 				{
					"destination" : [ "obj-95", 0 ],
					"source" : [ "obj-93", 0 ]
				}

			}
, 			{
				"patchline" : 				{
					"destination" : [ "obj-8", 0 ],
					"midpoints" : [ 156.0, 189.75, 592.5, 189.75 ],
					"source" : [ "obj-95", 0 ]
				}

			}
, 			{
				"patchline" : 				{
					"destination" : [ "obj-8", 0 ],
					"midpoints" : [ 156.0, 246.5, 592.5, 246.5 ],
					"source" : [ "obj-97", 0 ]
				}

			}
, 			{
				"patchline" : 				{
					"destination" : [ "obj-8", 0 ],
					"midpoints" : [ 156.0, 273.0, 592.5, 273.0 ],
					"source" : [ "obj-98", 0 ]
				}

			}
, 			{
				"patchline" : 				{
					"destination" : [ "obj-8", 0 ],
					"midpoints" : [ 156.0, 221.0, 592.5, 221.0 ],
					"source" : [ "obj-99", 0 ]
				}

			}
 ],
		"parameters" : 		{
			"obj-77" : [ "live.gain~", "live.gain~", 0 ],
			"obj-274" : [ "vst~[8]", "vst~", 0 ],
			"obj-29" : [ "live.gain~[1]", "live.gain~", 0 ]
		}
,
		"dependency_cache" : [ 			{
				"name" : "Etch.maxsnap",
				"bootpath" : "~/Documents/Max 7/Snapshots",
				"patcherrelativepath" : "../../../Documents/Max 7/Snapshots",
				"type" : "mx@s",
				"implicit" : 1
			}
 ],
		"autosave" : 0,
		"styles" : [ 			{
				"name" : "AudioStatus_Menu",
				"default" : 				{
					"bgfillcolor" : 					{
						"type" : "color",
						"color" : [ 0.294118, 0.313726, 0.337255, 1 ],
						"color1" : [ 0.454902, 0.462745, 0.482353, 0.0 ],
						"color2" : [ 0.290196, 0.309804, 0.301961, 1.0 ],
						"angle" : 270.0,
						"proportion" : 0.39,
						"autogradient" : 0
					}

				}
,
				"parentstyle" : "",
				"multi" : 0
			}
, 			{
				"name" : "multisliderBlue&Yellow",
				"default" : 				{
					"color" : [ 0.960784, 0.867826, 0.084811, 1.0 ],
					"bgcolor" : [ 0.317647, 0.654902, 0.976471, 0.79 ]
				}
,
				"parentstyle" : "",
				"multi" : 0
			}
, 			{
				"name" : "newobjBlue-1",
				"default" : 				{
					"accentcolor" : [ 0.317647, 0.654902, 0.976471, 1.0 ]
				}
,
				"parentstyle" : "",
				"multi" : 0
			}
, 			{
				"name" : "newobjGold-1",
				"default" : 				{
					"accentcolor" : [ 0.764706, 0.592157, 0.101961, 1.0 ]
				}
,
				"parentstyle" : "",
				"multi" : 0
			}
, 			{
				"name" : "newobjGreen-1",
				"default" : 				{
					"accentcolor" : [ 0.0, 0.533333, 0.168627, 1.0 ]
				}
,
				"parentstyle" : "",
				"multi" : 0
			}
, 			{
				"name" : "newobjRed-1",
				"default" : 				{
					"accentcolor" : [ 0.784314, 0.145098, 0.023529, 1.0 ]
				}
,
				"parentstyle" : "",
				"multi" : 0
			}
, 			{
				"name" : "newobjYellow-1",
				"default" : 				{
					"accentcolor" : [ 0.82517, 0.78181, 0.059545, 1.0 ],
					"fontsize" : [ 12.059008 ]
				}
,
				"parentstyle" : "",
				"multi" : 0
			}
, 			{
				"name" : "numberGold-1",
				"default" : 				{
					"accentcolor" : [ 0.764706, 0.592157, 0.101961, 1.0 ]
				}
,
				"parentstyle" : "",
				"multi" : 0
			}
 ]
	}

}
